<svg width="600" height="141" viewBox="0 0 600 141" fill="none" xmlns="http://www.w3.org/2000/svg">
<g filter="url(#filter0_d_1225_6221)">
<path d="M359.704 100.194C358.672 80.656 305.171 100.472 302.576 119.633C319.268 129.739 369.119 121.741 360.645 103.739C360.568 102.398 360.186 101.14 359.704 100.194Z" fill="#003C66"/>
<path d="M360.37 103.882C365.353 115.699 322.106 123.749 303.873 119.536C322.851 122.981 361.864 115.736 360.37 103.882Z" fill="black"/>
<path d="M359.237 100.042C357.332 87.8134 316.365 105.954 302.201 119.787C317.368 106.144 355.509 89.7513 359.237 100.042Z" fill="black"/>
<path d="M359.51 101.898C358.957 100.886 335.033 110.898 303.859 118.629C338.572 110.02 360.451 103.619 359.51 101.898Z" fill="black"/>
</g>
<g filter="url(#filter1_d_1225_6221)">
<path d="M470.534 67.3006C479.727 89.8338 537.888 45.3908 533.335 21.8641C508.589 16.6047 450.155 45.7265 467.934 63.5102C468.572 65.0543 469.554 66.3807 470.534 67.3006Z" fill="#003C66"/>
<path d="M468.215 63.2326C457.262 51.3291 507.503 24.7605 531.768 22.4909C506.894 25.9573 461.563 49.9051 468.215 63.2326Z" fill="black"/>
<path d="M471.173 67.2933C478.485 80.8984 521.82 43.3834 533.737 21.5345C520.502 43.5578 479.955 77.9014 471.173 67.2933Z" fill="black"/>
<path d="M470.082 65.2243C471.176 66.1938 496.718 44.9685 532.153 23.5526C492.695 47.3996 468.221 63.5749 470.082 65.2243Z" fill="black"/>
<path d="M488.832 55.5716C496.804 26.8964 409.332 30.1874 396.263 56.6042C415.656 79.0758 492.086 91.1088 488.481 61.1306C489.02 59.1597 489.075 57.1639 488.832 55.5716Z" fill="#003C66"/>
<path d="M488.012 61.207C489.533 80.6112 422.69 71.7766 398.197 57.0771C424.146 71.02 484.437 79.0145 488.012 61.207Z" fill="black"/>
<path d="M488.224 55.1322C491.382 36.5892 422.962 43.3888 395.641 56.6495C424.33 44.137 487.789 38.523 488.224 55.1322Z" fill="black"/>
<path d="M487.724 57.9369C487.41 56.2154 447.737 59.3478 398.618 55.7609C453.312 59.7549 488.258 60.8656 487.724 57.9369Z" fill="black"/>
<path d="M528.579 63.158C521.36 44.7036 581.686 39.3814 592.272 55.8903C580.305 72.5562 528.498 87.1575 529.157 66.8383C528.668 65.5691 528.509 64.2417 528.579 63.158Z" fill="#003C66"/>
<path d="M529.483 64.6408C529.594 63.4648 557.055 62.1453 590.6 55.529C553.247 62.8963 529.294 66.6415 529.483 64.6408Z" fill="black"/>
<path d="M460.724 63.0713C459.078 86.5396 545.235 79.2396 552.437 57.3149C528.262 40.2884 449.72 34.6861 459.856 58.5853C459.753 60.1978 460.135 61.8046 460.724 63.0713Z" fill="#003C66" stroke="black" stroke-width="0.069762"/>
<path d="M460.306 58.4999C454.55 42.9872 522.87 46.5297 550.412 57.039C521.59 47.2151 459.961 43.9992 460.306 58.4999Z" fill="black"/>
<path d="M461.423 63.3933C462.343 78.4629 528.81 69.3573 553.044 57.2468C527.287 68.8289 465.488 76.7177 461.423 63.3933Z" fill="black"/>
<path d="M461.306 61.1129C461.995 62.4796 500.713 57.8509 550.281 58.1194C495.086 57.8205 460.135 58.7877 461.306 61.1129Z" fill="black"/>
<path d="M471.737 65.1397C475.668 34.3909 393.782 68.7256 398.476 81.8588C401.855 94.0773 492.322 95.316 472.797 68.9256C472.821 67.2034 472.294 66.4011 471.737 65.1397Z" fill="#003C66"/>
<path d="M472.452 68.5C477.54 82.6741 424.28 87.5457 402.451 80.8042C425.249 86.7336 473.294 82.3587 472.452 68.5Z" fill="black"/>
<path d="M471.388 63.944C470.077 49.6095 418.758 66.3813 400.394 80.923C419.963 66.7035 467.701 51.6631 471.388 63.944Z" fill="black"/>
<path d="M471.452 66.4463C470.807 65.0925 437.78 75.2745 395.247 81.7485C442.608 74.5395 472.55 68.7496 471.452 66.4463Z" fill="black"/>
<path d="M506.338 82.695C488.659 108.375 569.611 107.439 572.128 94.1893C575.25 82.2166 504.381 48.7449 507.295 78.9808C506.46 80.4893 506.496 81.3847 506.338 82.695Z" fill="#003C66"/>
<path d="M507.366 79.4785C510.065 65.1713 554.442 79.9432 568.489 93.6951C553.292 80.3118 513.27 66.9691 507.366 79.4785Z" fill="black"/>
<path d="M506.046 83.8736C500.288 96.97 548.772 100.564 570.169 94.3273C547.973 99.8492 503.138 96.0116 506.046 83.8736Z" fill="black"/>
<path d="M507.181 81.6457C507.049 83.0693 537.962 85.9214 574.625 95.4419C533.8 84.8407 507.405 79.2237 507.181 81.6457Z" fill="black"/>
<path d="M10.4517 91.0551C9.99644 78.7724 86.4174 64.1871 75.728 90.2733C84.5938 116.761 10.0966 102.305 10.4517 91.0551Z" fill="#003C66"/>
<path d="M72.0294 92.6615C72.5378 105.922 29.3757 100.631 13.8428 90.8495C30.3393 100.097 69.2701 104.887 72.0294 92.6615Z" fill="black"/>
<path d="M72.3176 88.5003C74.8245 75.7767 30.2529 81.2016 12.1948 90.5835C31.1224 81.698 72.4451 77.1404 72.3176 88.5003Z" fill="black"/>
<path d="M71.7497 90.6922C71.5755 89.3972 43.0417 92.3555 7.93538 90.3816C47.0268 92.5795 72.0461 92.8956 71.7497 90.6922Z" fill="black"/>
</g>
<g filter="url(#filter2_d_1225_6221)">
<path d="M240.6 75.8147C243.174 54.1835 177.912 64.8901 171.244 85.3616C188.471 99.8769 247.268 101.374 240.998 79.8946C241.168 78.4087 240.972 76.9507 240.6 75.8147Z" fill="#003C66"/>
<path d="M240.654 79.9937C244.104 93.9743 192.883 93.894 172.752 85.5208C193.886 93.2049 240.089 93.2961 240.654 79.9937Z" fill="black"/>
<path d="M240.093 75.5512C240.258 61.753 189.713 73.2034 170.784 85.452C190.829 73.618 237.792 63.502 240.093 75.5512Z" fill="black"/>
<path d="M240.05 77.6407C239.61 76.4174 210.205 82.467 172.912 84.5227C214.438 82.2336 240.799 79.7219 240.05 77.6407Z" fill="black"/>
<path d="M260.13 75.2446C253.068 48.3208 205.508 102.119 213.084 111.667C219.425 120.852 284.548 94.1813 262.104 78.0867C261.568 76.6389 260.933 76.1293 260.13 75.2446Z" fill="#003C66"/>
<path d="M261.718 77.8383C269.91 88.1361 233.37 108.522 215.587 109.569C233.802 107.547 266.771 89.1728 261.718 77.8383Z" fill="black"/>
<path d="M259.495 74.3518C253.954 62.7631 222.623 92.5091 214.155 110.297C223.589 92.4097 252.913 65.2087 259.495 74.3518Z" fill="black"/>
<path d="M260.345 76.4268C259.448 75.4921 239.088 94.1239 210.738 112.565C242.307 92.0305 261.87 78.0171 260.345 76.4268Z" fill="black"/>
</g>
<defs>
<filter id="filter0_d_1225_6221" x="299.411" y="90.7539" width="64.9862" height="37.4911" filterUnits="userSpaceOnUse" color-interpolation-filters="sRGB">
<feFlood flood-opacity="0" result="BackgroundImageFix"/>
<feColorMatrix in="SourceAlpha" type="matrix" values="0 0 0 0 0 0 0 0 0 0 0 0 0 0 0 0 0 0 127 0" result="hardAlpha"/>
<feOffset dy="1.39524"/>
<feGaussianBlur stdDeviation="1.39524"/>
<feComposite in2="hardAlpha" operator="out"/>
<feColorMatrix type="matrix" values="0 0 0 0 0 0 0 0 0 0 0 0 0 0 0 0 0 0 0.25 0"/>
<feBlend mode="normal" in2="BackgroundImageFix" result="effect1_dropShadow_1225_6221"/>
<feBlend mode="normal" in="SourceGraphic" in2="effect1_dropShadow_1225_6221" result="shape"/>
</filter>
<filter id="filter1_d_1225_6221" x="5.14494" y="19.8433" width="589.918" height="89.5946" filterUnits="userSpaceOnUse" color-interpolation-filters="sRGB">
<feFlood flood-opacity="0" result="BackgroundImageFix"/>
<feColorMatrix in="SourceAlpha" type="matrix" values="0 0 0 0 0 0 0 0 0 0 0 0 0 0 0 0 0 0 127 0" result="hardAlpha"/>
<feOffset dy="1.39524"/>
<feGaussianBlur stdDeviation="1.39524"/>
<feComposite in2="hardAlpha" operator="out"/>
<feColorMatrix type="matrix" values="0 0 0 0 0 0 0 0 0 0 0 0 0 0 0 0 0 0 0.25 0"/>
<feBlend mode="normal" in2="BackgroundImageFix" result="effect1_dropShadow_1225_6221"/>
<feBlend mode="normal" in="SourceGraphic" in2="effect1_dropShadow_1225_6221" result="shape"/>
</filter>
<filter id="filter2_d_1225_6221" x="167.994" y="62.5269" width="101.587" height="55.2025" filterUnits="userSpaceOnUse" color-interpolation-filters="sRGB">
<feFlood flood-opacity="0" result="BackgroundImageFix"/>
<feColorMatrix in="SourceAlpha" type="matrix" values="0 0 0 0 0 0 0 0 0 0 0 0 0 0 0 0 0 0 127 0" result="hardAlpha"/>
<feOffset dy="1.39524"/>
<feGaussianBlur stdDeviation="1.39524"/>
<feComposite in2="hardAlpha" operator="out"/>
<feColorMatrix type="matrix" values="0 0 0 0 0 0 0 0 0 0 0 0 0 0 0 0 0 0 0.25 0"/>
<feBlend mode="normal" in2="BackgroundImageFix" result="effect1_dropShadow_1225_6221"/>
<feBlend mode="normal" in="SourceGraphic" in2="effect1_dropShadow_1225_6221" result="shape"/>
</filter>
</defs>
</svg>
