<svg width="32" height="32" viewBox="0 0 32 32" fill="none" xmlns="http://www.w3.org/2000/svg">
<path d="M17.4877 2.66666C18.9996 2.67069 19.767 2.67875 20.4295 2.69757L20.6903 2.70698C20.9913 2.71773 21.2883 2.73117 21.6471 2.74729C23.0771 2.81449 24.0528 3.04028 24.9089 3.37224C25.7958 3.71361 26.5431 4.17593 27.2903 4.92184C27.9737 5.59368 28.5025 6.40637 28.8399 7.30335C29.1718 8.15946 29.3976 9.13518 29.4648 10.5665C29.4809 10.924 29.4943 11.221 29.5051 11.5234L29.5132 11.7841C29.5333 12.4454 29.5414 13.2128 29.5441 14.7247L29.5454 15.7273V17.4879C29.5487 18.4682 29.5384 19.4485 29.5145 20.4285L29.5064 20.6893C29.4957 20.9917 29.4823 21.2887 29.4661 21.6462C29.3989 23.0775 29.1705 24.0519 28.8399 24.9093C28.5034 25.8068 27.9745 26.6197 27.2903 27.2908C26.6183 27.974 25.8057 28.5028 24.9089 28.8404C24.0528 29.1724 23.0771 29.3982 21.6471 29.4654C21.3282 29.4804 21.0093 29.4938 20.6903 29.5057L20.4295 29.5138C19.767 29.5326 18.9996 29.542 17.4877 29.5447L16.4851 29.546H14.7259C13.7452 29.5494 12.7645 29.5391 11.784 29.5151L11.5233 29.5071C11.2043 29.495 10.8853 29.4811 10.5664 29.4654C9.13648 29.3982 8.16078 29.1724 7.30335 28.8404C6.40651 28.5036 5.59416 27.9747 4.92325 27.2908C4.23925 26.6192 3.70998 25.8065 3.37236 24.9093C3.0404 24.0532 2.81462 23.0775 2.74743 21.6462C2.73245 21.3273 2.71901 21.0083 2.70711 20.6893L2.70039 20.4285C2.67562 19.4485 2.66442 18.4683 2.66679 17.4879V14.7247C2.66304 13.7445 2.6729 12.7642 2.69636 11.7841L2.70577 11.5234C2.71652 11.221 2.72996 10.924 2.74608 10.5665C2.81328 9.13518 3.03906 8.1608 3.37101 7.30335C3.70849 6.40545 4.23881 5.59251 4.9246 4.92184C5.59534 4.23839 6.40714 3.70956 7.30335 3.37224C8.16078 3.04028 9.13513 2.81449 10.5664 2.74729C10.9239 2.73117 11.2223 2.71773 11.5233 2.70698L11.784 2.69891C12.764 2.67503 13.7443 2.66473 14.7245 2.668L17.4877 2.66666ZM16.1061 9.3865C14.3239 9.3865 12.6148 10.0945 11.3546 11.3547C10.0944 12.6149 9.38645 14.3241 9.38645 16.1063C9.38645 17.8886 10.0944 19.5978 11.3546 20.858C12.6148 22.1182 14.3239 22.8262 16.1061 22.8262C17.8883 22.8262 19.5974 22.1182 20.8576 20.858C22.1178 19.5978 22.8258 17.8886 22.8258 16.1063C22.8258 14.3241 22.1178 12.6149 20.8576 11.3547C19.5974 10.0945 17.8883 9.3865 16.1061 9.3865ZM16.1061 12.0744C16.6356 12.0743 17.1599 12.1785 17.6491 12.3811C18.1382 12.5836 18.5828 12.8805 18.9572 13.2549C19.3317 13.6292 19.6287 14.0736 19.8314 14.5628C20.0341 15.0519 20.1385 15.5762 20.1386 16.1057C20.1387 16.6351 20.0345 17.1595 19.8319 17.6487C19.6294 18.1379 19.3325 18.5824 18.9582 18.9569C18.5838 19.3313 18.1394 19.6284 17.6503 19.8311C17.1612 20.0338 16.6369 20.1382 16.1074 20.1382C15.0381 20.1382 14.0126 19.7135 13.2565 18.9573C12.5004 18.2012 12.0757 17.1757 12.0757 16.1063C12.0757 15.037 12.5004 14.0115 13.2565 13.2554C14.0126 12.4992 15.0381 12.0744 16.1074 12.0744M23.1631 7.37055C22.7175 7.37055 22.2903 7.54754 21.9752 7.8626C21.6602 8.17765 21.4832 8.60495 21.4832 9.05051C21.4832 9.49606 21.6602 9.92337 21.9752 10.2384C22.2903 10.5535 22.7175 10.7305 23.1631 10.7305C23.6086 10.7305 24.0359 10.5535 24.351 10.2384C24.666 9.92337 24.843 9.49606 24.843 9.05051C24.843 8.60495 24.666 8.17765 24.351 7.8626C24.0359 7.54754 23.6086 7.37055 23.1631 7.37055Z" fill="#05003E"/>
</svg>
