<svg id="Слой_1" data-name="Слой 1" xmlns="http://www.w3.org/2000/svg" viewBox="0 0 208.29 208.43"><defs><style>.cls-1{fill:#080808;}</style></defs><path class="cls-1" d="M232.28,83.59q0,28.2,0,56.39a47.23,47.23,0,0,1-41.65,47.42,57.34,57.34,0,0,1-6.93.35H72.1a46.29,46.29,0,0,1-20.89-4.5c-15-7.43-24-19.44-26.65-36-.93-5.76-.45-11.58-.46-17.37q-.08-40.31,0-80.63c0-7.75,0-15.51,0-23.27A47.13,47.13,0,0,1,62-19.77a47.42,47.42,0,0,1,9.29-.9q49.92,0,99.84,0c4.88,0,9.75-.05,14.63,0a47.15,47.15,0,0,1,45.45,37,48.87,48.87,0,0,1,1.09,10.36q0,26.46,0,52.91v4Zm-6.6,0V27.41a42.83,42.83,0,0,0-.8-8.82C220.84-.72,204.76-14,185-14c-37.88-.08-75.76,0-113.64,0a38.46,38.46,0,0,0-20,5.21c-13.47,8-20.51,20-20.61,35.69-.12,19,0,38.08,0,57.12,0,19.24-.06,38.48,0,57.72a37.78,37.78,0,0,0,8.31,23.54c8.27,10.55,19.22,15.86,32.61,15.9,21.73.07,43.47,0,65.21,0q23.85,0,47.71,0a39.14,39.14,0,0,0,20.3-5.19c13.66-8.06,20.64-20.15,20.77-36C225.79,121.17,225.68,102.37,225.68,83.57Z" transform="translate(-23.98 20.67)"/><path class="cls-1" d="M138.83,149.42H110.27c-.41-30.64.56-61.25-.79-91.93h24.81q.69,6.32,1.36,12.44c.62,0,.73-.29.92-.54,7.12-9.45,16.65-14,28.41-14,7.63,0,14.61,2,20.52,7,5.31,4.5,8.35,10.4,10.15,17a61,61,0,0,1,1.9,15.91c0,17.56,0,35.12,0,52.67a2.79,2.79,0,0,1-.16,1.35H169.08a3.44,3.44,0,0,1-.15-1.6q0-25.32,0-50.63a28.68,28.68,0,0,0-1.27-8.63c-1.56-4.93-4.44-8.62-9.79-9.64-5.86-1.12-10.94.35-14.87,5a18.05,18.05,0,0,0-4.13,12v53.51Z" transform="translate(-23.98 20.67)"/><path class="cls-1" d="M58.87,149.39a2.42,2.42,0,0,1-.18-1.44q0-44.5,0-89c0-1.18.25-1.57,1.5-1.56,8.55.06,17.1,0,25.65,0a2.18,2.18,0,0,1,1.44.21v91.76Z" transform="translate(-23.98 20.67)"/><path class="cls-1" d="M57.91,31.66a13.75,13.75,0,0,1,12.8-14.17c4.76-.46,9.23.28,12.84,3.61a14,14,0,0,1,4.21,14.43c-1.34,5.4-5,8.72-10.37,10-6,1.44-11.45.56-15.89-4A13.3,13.3,0,0,1,57.91,31.66Z" transform="translate(-23.98 20.67)"/></svg>