<svg width="32" height="32" viewBox="0 0 32 32" fill="none" xmlns="http://www.w3.org/2000/svg">
<path d="M29.6101 3.27375C29.4551 3.13996 29.2666 3.05098 29.0649 3.0164C28.8631 2.98182 28.6557 3.00294 28.4651 3.0775L3.13257 12.9912C2.77355 13.1309 2.4696 13.3833 2.26648 13.7106C2.06335 14.0379 1.97205 14.4223 2.00632 14.806C2.04058 15.1897 2.19856 15.5519 2.45646 15.838C2.71437 16.1241 3.05825 16.3187 3.43632 16.3925L10.0001 17.6812V25C9.99878 25.3986 10.1172 25.7885 10.3401 26.119C10.563 26.4495 10.88 26.7055 11.2501 26.8538C11.6196 27.0046 12.0259 27.0408 12.4162 26.9577C12.8066 26.8745 13.1629 26.6759 13.4388 26.3875L16.6038 23.105L21.6251 27.5C21.9873 27.8213 22.4546 27.9992 22.9388 28C23.151 27.9998 23.3619 27.9665 23.5638 27.9013C23.8938 27.7966 24.1905 27.6073 24.4245 27.3522C24.6585 27.0971 24.8216 26.7852 24.8976 26.4475L29.9713 4.375C30.0167 4.17594 30.0071 3.96827 29.9434 3.77427C29.8798 3.58027 29.7646 3.40725 29.6101 3.27375ZM21.9676 7.77375L10.7688 15.7937L4.56882 14.5775L21.9676 7.77375ZM12.0001 25V19.065L15.0988 21.7825L12.0001 25ZM22.9413 26L12.6063 16.9375L27.4813 6.27625L22.9413 26Z" fill="#05003E"/>
</svg>
