<svg width="32" height="32" viewBox="0 0 32 32" fill="none" xmlns="http://www.w3.org/2000/svg">
<path d="M10.62 8.26932C10.3722 8.23325 10.1196 8.28313 9.90404 8.41066H9.88538C9.38538 8.70399 8.93471 9.07332 8.55071 9.50799C8.23071 9.87732 8.05738 10.2507 8.01204 10.6107C7.98538 10.824 8.00404 11.04 8.06671 11.244L8.09071 11.2573C8.45071 12.3147 8.92004 13.332 9.49338 14.2893C10.2326 15.634 11.1424 16.8776 12.2 17.9893L12.232 18.0347L12.2827 18.072L12.3134 18.108L12.3507 18.14C13.4663 19.2008 14.7129 20.1149 16.06 20.86C17.6 21.6987 18.5347 22.0947 19.096 22.26V22.268C19.26 22.3187 19.4094 22.3413 19.56 22.3413C20.0381 22.306 20.4906 22.1117 20.8454 21.7893C21.2787 21.4053 21.6454 20.9533 21.9307 20.4507V20.4413C22.1987 19.9347 22.108 19.4573 21.7214 19.1333C20.9447 18.4547 20.1049 17.852 19.2134 17.3333C18.616 17.0093 18.0094 17.2053 17.764 17.5333L17.24 18.1947C16.9707 18.5227 16.4827 18.4773 16.4827 18.4773L16.4694 18.4853C12.828 17.556 11.856 13.8693 11.856 13.8693C11.856 13.8693 11.8107 13.368 12.148 13.112L12.804 12.584C13.1187 12.328 13.3374 11.7227 13 11.1253C12.4848 10.233 11.8833 9.39342 11.204 8.61866C11.0559 8.43632 10.8481 8.31213 10.6174 8.26799L10.62 8.26932ZM16.7734 6.66666C16.5966 6.66666 16.427 6.73689 16.302 6.86192C16.1769 6.98694 16.1067 7.15651 16.1067 7.33332C16.1067 7.51013 16.1769 7.6797 16.302 7.80473C16.427 7.92975 16.5966 7.99999 16.7734 7.99999C18.4587 7.99999 19.8587 8.55066 20.9667 9.60666C21.536 10.184 21.98 10.868 22.2707 11.6173C22.5627 12.368 22.696 13.1693 22.6614 13.972C22.6539 14.1488 22.7171 14.3213 22.8368 14.4516C22.9566 14.5819 23.1232 14.6592 23.3 14.6667C23.4769 14.6741 23.6494 14.611 23.7796 14.4912C23.9099 14.3714 23.9873 14.2048 23.9947 14.028C24.0361 13.0406 23.8722 12.0554 23.5134 11.1347C23.153 10.2095 22.6066 9.36815 21.908 8.66266L21.8947 8.64932C20.52 7.33599 18.7814 6.66666 16.7734 6.66666Z" fill="#05003E"/>
<path d="M16.7267 8.85866C16.5499 8.85866 16.3803 8.9289 16.2553 9.05393C16.1303 9.17895 16.0601 9.34852 16.0601 9.52533C16.0601 9.70214 16.1303 9.87171 16.2553 9.99673C16.3803 10.1218 16.5499 10.192 16.7267 10.192H16.7494C17.9654 10.2787 18.8507 10.684 19.4707 11.3493C20.1067 12.0347 20.4361 12.8867 20.4107 13.94C20.4067 14.1168 20.473 14.288 20.5951 14.4159C20.7173 14.5438 20.8852 14.6179 21.0621 14.622C21.2389 14.6261 21.4101 14.5597 21.538 14.4376C21.6659 14.3154 21.74 14.1475 21.7441 13.9707C21.7761 12.588 21.3307 11.3947 20.4481 10.4427V10.44C19.5454 9.472 18.3067 8.96 16.8161 8.86L16.7934 8.85733L16.7267 8.85866Z" fill="#05003E"/>
<path d="M16.7013 11.092C16.6121 11.0841 16.5222 11.0943 16.437 11.1219C16.3518 11.1496 16.2731 11.1941 16.2055 11.2528C16.1379 11.3116 16.0828 11.3834 16.0435 11.4639C16.0043 11.5444 15.9816 11.632 15.977 11.7214C15.9723 11.8108 15.9857 11.9003 16.0164 11.9845C16.0471 12.0686 16.0944 12.1457 16.1555 12.2112C16.2167 12.2766 16.2904 12.3291 16.3722 12.3654C16.4541 12.4017 16.5425 12.4212 16.632 12.4227C17.1893 12.452 17.5453 12.62 17.7693 12.8453C17.9947 13.072 18.1627 13.436 18.1933 14.0053C18.195 14.0948 18.2147 14.183 18.2511 14.2647C18.2876 14.3464 18.3402 14.42 18.4057 14.4809C18.4712 14.5419 18.5483 14.589 18.6324 14.6196C18.7165 14.6501 18.8059 14.6634 18.8952 14.6587C18.9846 14.6539 19.0721 14.6312 19.1525 14.592C19.2329 14.5527 19.3046 14.4976 19.3632 14.4301C19.4219 14.3625 19.4664 14.2838 19.494 14.1987C19.5216 14.1136 19.5318 14.0238 19.524 13.9347C19.4813 13.1347 19.2307 12.428 18.7173 11.908C18.2013 11.388 17.4987 11.1347 16.7013 11.092Z" fill="#05003E"/>
<path fill-rule="evenodd" clip-rule="evenodd" d="M9.42266 3.17867C13.6654 2.23028 18.0652 2.23028 22.308 3.17867L22.76 3.27867C24.0003 3.55594 25.1394 4.17164 26.0507 5.05737C26.9621 5.9431 27.6101 7.06416 27.9227 8.29601C28.9996 12.5399 28.9996 16.9855 27.9227 21.2293C27.6101 22.4612 26.9621 23.5822 26.0507 24.468C25.1394 25.3537 24.0003 25.9694 22.76 26.2467L22.3067 26.3467C19.6494 26.9409 16.9226 27.1648 14.204 27.012L10.6667 30.1773C10.5333 30.2967 10.3703 30.3782 10.1948 30.4131C10.0192 30.448 9.8375 30.4352 9.66859 30.3759C9.49968 30.3167 9.34977 30.2132 9.23451 30.0762C9.11925 29.9393 9.04286 29.7739 9.01332 29.5973L8.42799 26.1013C7.30557 25.7521 6.29147 25.1208 5.48262 24.2678C4.67376 23.4149 4.09719 22.3687 3.80799 21.2293C2.731 16.9855 2.731 12.5399 3.80799 8.29601C4.12055 7.06416 4.76852 5.9431 5.6799 5.05737C6.59129 4.17164 7.73039 3.55594 8.97066 3.27867L9.42266 3.17867ZM21.872 5.12934C17.9164 4.24508 13.8143 4.24508 9.85866 5.12934L9.40532 5.23067C8.52628 5.42755 7.71901 5.86421 7.07316 6.49218C6.4273 7.12015 5.96814 7.91484 5.74666 8.78801C4.75161 12.709 4.75161 16.8164 5.74666 20.7373C5.96824 21.6107 6.42761 22.4055 7.07371 23.0335C7.71982 23.6614 8.52737 24.098 9.40666 24.2947L9.52666 24.3213C9.72078 24.3648 9.89755 24.4651 10.0344 24.6095C10.1712 24.7539 10.2618 24.9358 10.2947 25.132L10.6867 27.476L13.1827 25.2427C13.2823 25.1532 13.399 25.0847 13.5256 25.0412C13.6523 24.9977 13.7864 24.98 13.92 24.9893C16.5854 25.1784 19.2642 24.9786 21.872 24.396L22.324 24.2947C23.2033 24.098 24.0108 23.6614 24.6569 23.0335C25.303 22.4055 25.7624 21.6107 25.984 20.7373C26.9787 16.8173 26.9787 12.7093 25.984 8.78801C25.7624 7.91467 25.303 7.11986 24.6569 6.49188C24.0108 5.8639 23.2033 5.42733 22.324 5.23067L21.872 5.12934Z" fill="#05003E"/>
</svg>
