<svg width="115" height="39" viewBox="0 0 115 39" fill="none" xmlns="http://www.w3.org/2000/svg">
<mask id="mask0_476_6965" style="mask-type:luminance" maskUnits="userSpaceOnUse" x="0" y="0" width="115" height="39">
<path d="M0 0.16394H115V38.8369H0V0.16394Z" fill="white"/>
</mask>
<g mask="url(#mask0_476_6965)">
<path d="M59.532 18.9778C61.102 18.9778 62.374 17.7228 62.374 16.1748C62.374 14.6268 61.102 13.3718 59.532 13.3718C57.963 13.3718 56.692 14.6268 56.692 16.1748C56.692 17.7228 57.963 18.9778 59.532 18.9778Z" fill="#1D1D1B"/>
<path d="M61.704 13.4759H57.03C56.6398 13.4783 56.2647 13.3259 55.9868 13.0519C55.709 12.778 55.5511 12.4051 55.548 12.0149V10.7499C55.548 9.94394 56.213 9.28894 57.03 9.28894H61.705C62.523 9.28894 63.187 9.94394 63.187 10.7499V12.0139C63.1858 12.2072 63.1465 12.3984 63.0714 12.5765C62.9962 12.7546 62.8867 12.9161 62.749 13.0518C62.6113 13.1875 62.4483 13.2948 62.2691 13.3674C62.09 13.44 61.8983 13.4765 61.705 13.4749L61.704 13.4759Z" fill="#1D1D1B"/>
<path d="M62.342 13.5329H56.396C56.1587 13.5337 55.9307 13.4406 55.7619 13.2738C55.5931 13.107 55.4971 12.8802 55.495 12.6429V10.1329C55.495 9.64292 55.901 9.24292 56.396 9.24292H62.342C62.838 9.24292 63.244 9.64292 63.244 10.1329V12.6429C63.244 13.1329 62.838 13.5329 62.342 13.5329ZM56.396 9.35292C56.2929 9.35213 56.1906 9.37169 56.0951 9.41049C55.9995 9.44928 55.9125 9.50655 55.8392 9.57901C55.7658 9.65146 55.7074 9.73768 55.6674 9.83273C55.6274 9.92778 55.6065 10.0298 55.606 10.1329V12.6429C55.606 13.0749 55.958 13.4229 56.396 13.4229H62.342C62.78 13.4229 63.133 13.0749 63.133 12.6429V10.1329C63.1325 10.0298 63.1116 9.92778 63.0716 9.83273C63.0316 9.73768 62.9732 9.65146 62.8998 9.57901C62.8265 9.50655 62.7395 9.44928 62.6439 9.41049C62.5484 9.37169 62.4461 9.35213 62.343 9.35292H56.396Z" fill="#1D1D1B"/>
<path d="M64.7039 9.72086C64.1713 9.73202 63.6389 9.75136 63.1069 9.77886C63.1589 9.88786 63.1859 10.0069 63.1859 10.1319V11.0369C63.9709 11.2089 64.9409 11.3489 66.0529 11.3489C67.5869 11.3439 68.8529 11.0729 69.7379 10.8129C69.7539 10.5069 69.7699 10.1949 69.7799 9.88786C68.0921 9.74254 66.3977 9.6868 64.7039 9.72086ZM55.5529 10.1319C55.553 10.0111 55.5794 9.89178 55.6304 9.78228C55.6813 9.67277 55.7556 9.57571 55.8479 9.49786C53.5588 8.91473 51.1547 8.95964 48.8889 9.62786C48.8739 9.93486 48.8579 10.2469 48.8469 10.5529C51.0773 10.7393 53.3178 10.774 55.5529 10.6569V10.1319Z" fill="#1D1D1B"/>
<path d="M74.113 11.7179C73.027 11.6769 71.303 11.9159 70.819 12.0149C70.112 12.1549 68.409 12.4879 66.428 12.4619C65.4314 12.449 64.4381 12.3462 63.46 12.1549C62.079 11.8009 60.618 12.1859 59.664 13.1689C59.606 13.2259 59.554 13.2829 59.506 13.3459C59.453 13.2829 59.401 13.2259 59.348 13.1689C58.399 12.1809 56.939 11.8009 55.553 12.1549C54.5745 12.3436 53.5814 12.4464 52.585 12.4619C50.597 12.4879 48.9 12.1549 48.194 12.0149C47.709 11.9149 45.984 11.6769 44.899 11.7179L1.25696 9.08691L44.377 13.5539C44.672 13.6209 45.178 13.8139 45.705 13.9439C47.118 14.2969 48.689 14.7399 51.472 15.6239C54.699 16.6539 54.488 16.6689 55.579 16.9439C56.7361 17.2344 57.9104 17.4515 59.095 17.5939C59.111 17.6199 59.121 17.6519 59.137 17.6779C59.253 17.6679 59.38 17.6569 59.507 17.6409C59.637 17.6569 59.759 17.6669 59.875 17.6779C59.8911 17.651 59.9051 17.6229 59.917 17.5939C61.1015 17.4515 62.2758 17.2344 63.433 16.9439C64.525 16.6689 64.313 16.6539 67.54 15.6239C70.323 14.7339 71.894 14.2969 73.307 13.9439C73.829 13.8139 74.34 13.6209 74.635 13.5539L117.756 9.08691L74.113 11.7179Z" fill="#1D1D1B"/>
<path d="M59.57 10.5269C58.441 10.5269 53.882 12.0409 53.882 13.9069C53.882 14.1209 53.913 14.3289 53.976 14.5269C54.83 15.4099 57.013 16.0449 59.569 16.0449C62.126 16.0449 64.309 15.4149 65.162 14.5259C65.226 14.3229 65.257 14.1159 65.257 13.9079C65.257 12.0409 60.629 10.5279 59.569 10.5279L59.57 10.5269Z" fill="#1D1D1B"/>
<path d="M59.5699 10.2879C60.0859 10.2879 61.4569 10.6469 62.7219 11.2349C62.7269 11.1619 62.7319 11.0889 62.7319 11.0159V10.0389C62.7319 8.68086 61.6149 7.57886 60.2389 7.57886H58.5729C57.1969 7.57886 56.0799 8.68086 56.0799 10.0389V11.0159C56.0799 11.1359 56.0899 11.2559 56.1059 11.3699C57.4339 10.7099 58.9749 10.2879 59.5699 10.2879ZM58.5729 7.81286H60.2389C60.5869 7.81286 60.9139 7.87986 61.2139 8.00986H60.9139C60.3279 8.00986 59.7909 8.20786 59.3639 8.54586C58.9217 8.19901 58.376 8.01031 57.8139 8.00986H57.5929C57.8979 7.87986 58.2249 7.81286 58.5729 7.81286ZM45.2629 11.9469C45.3999 11.6299 45.5319 11.3649 45.6369 11.1619C45.6579 11.1199 45.6789 11.0779 45.6999 11.0419C45.8849 10.6989 45.9949 10.5529 46.1699 10.5169C46.2059 10.5119 46.3269 10.4799 46.4009 10.5369C46.4859 10.5999 46.6119 10.8439 46.0589 12.0669C45.7932 12.0298 45.5278 11.9898 45.2629 11.9469Z" fill="#1D1D1B"/>
<path d="M45.7479 10.5059L58.8369 -1.74011L58.9679 -0.789112L46.6859 11.3909L46.6229 10.9899L45.8689 11.0999L45.7479 10.5059Z" fill="#1D1D1B"/>
<path d="M50.945 8.36383L50.771 8.51983C50.7177 8.56721 50.6479 8.5916 50.5767 8.58766C50.5055 8.58373 50.4387 8.55179 50.391 8.49883L49.759 7.79683C49.659 7.68683 49.669 7.51683 49.78 7.42283L49.954 7.26683C50.0072 7.21932 50.0769 7.19476 50.1481 7.19851C50.2193 7.20226 50.2861 7.234 50.334 7.28683L50.966 7.98883C51.066 8.09883 51.055 8.26983 50.945 8.36383ZM56.138 3.35583L55.964 3.51183C55.9109 3.55933 55.8411 3.58389 55.7699 3.58015C55.6987 3.5764 55.6319 3.54465 55.584 3.49183L54.951 2.78883C54.851 2.67983 54.861 2.50883 54.973 2.41483L55.147 2.25883C55.2002 2.21132 55.2699 2.18676 55.3411 2.19051C55.4123 2.19425 55.4791 2.226 55.527 2.27883L56.159 2.98183C56.259 3.09083 56.249 3.25683 56.138 3.35583ZM47.166 9.70983C47.008 9.55483 46.839 9.34183 46.876 9.12283C46.918 8.89383 47.16 8.76983 47.208 8.74283C47.661 8.48283 51.298 5.02483 57.366 -0.872173C57.392 -0.892173 57.514 -0.981173 57.629 -0.950173C57.777 -0.908173 57.893 -0.684173 57.819 -0.424173C54.2654 2.95114 50.7144 6.32914 47.166 9.70983ZM73.164 11.9468C73.0488 11.6808 72.924 11.4189 72.79 11.1618C72.77 11.1198 72.748 11.0778 72.727 11.0418C72.542 10.6988 72.432 10.5528 72.257 10.5168C72.221 10.5118 72.1 10.4798 72.026 10.5368C71.941 10.5998 71.815 10.8438 72.368 12.0668C72.638 12.0298 72.901 11.9878 73.164 11.9468Z" fill="#1D1D1B"/>
<path d="M72.68 10.5069L59.754 -1.58411L59.559 -0.690106L71.74 11.3899L71.803 10.9899L72.557 11.0999L72.678 10.5069H72.68Z" fill="#1D1D1B"/>
<path d="M67.482 8.36387L67.656 8.51987C67.7091 8.56738 67.7789 8.59193 67.8501 8.58819C67.9213 8.58444 67.9881 8.55269 68.036 8.49987L68.668 7.79687C68.768 7.68787 68.758 7.51687 68.647 7.42287L68.473 7.26687C68.4198 7.21936 68.3501 7.1948 68.2789 7.19855C68.2077 7.2023 68.1409 7.23404 68.093 7.28687L67.461 7.98987C67.361 8.09887 67.372 8.26987 67.482 8.36387ZM62.29 3.35587L62.463 3.51187C62.5161 3.55937 62.5859 3.58393 62.6571 3.58019C62.7283 3.57644 62.7951 3.54469 62.843 3.49187L63.475 2.78887C63.575 2.67987 63.565 2.50887 63.455 2.41487L63.281 2.25887C63.2278 2.21136 63.1581 2.1868 63.0869 2.19055C63.0157 2.1943 62.9489 2.22604 62.901 2.27887L62.268 2.98187C62.168 3.09087 62.179 3.25687 62.29 3.35587ZM60.455 -0.570132C60.502 -0.731132 60.603 -0.991132 60.829 -1.07413C61.045 -1.15213 61.272 -1.02213 61.362 -0.975132C62.1 -0.565132 66.517 3.69487 66.982 4.14187C67.007 4.16787 67.155 4.33887 67.112 4.53687C67.065 4.76587 66.775 4.95287 66.428 4.89587C64.435 3.07587 62.442 1.24987 60.455 -0.570132ZM59.728 24.5209H59.406C59.3578 24.5215 59.3099 24.5126 59.2652 24.4946C59.2204 24.4766 59.1797 24.4499 59.1454 24.416C59.111 24.3822 59.0838 24.3418 59.0652 24.2973C59.0466 24.2528 59.037 24.2051 59.037 24.1569V21.7129C59.037 21.5099 59.2 21.3489 59.406 21.3489H59.728C59.933 21.3489 60.097 21.5099 60.097 21.7129V24.1569C60.097 24.2052 60.0874 24.253 60.0687 24.2976C60.0501 24.3421 60.0227 24.3825 59.9883 24.4164C59.9538 24.4503 59.913 24.477 59.8681 24.4949C59.8233 24.5128 59.7763 24.5217 59.728 24.5209Z" fill="#1D1D1B"/>
<path d="M60.402 23.0599H58.732C58.7084 23.0594 58.686 23.0499 58.6692 23.0333C58.6525 23.0168 58.6427 22.9944 58.642 22.9709V22.8929C58.642 22.8459 58.684 22.8049 58.732 22.8049H60.402C60.45 22.8049 60.492 22.8459 60.492 22.8929V22.9709C60.492 22.9826 60.4896 22.9942 60.4851 23.005C60.4805 23.0158 60.4739 23.0256 60.4655 23.0338C60.4571 23.042 60.4472 23.0485 60.4363 23.0528C60.4254 23.0571 60.4137 23.0601 60.402 23.0599ZM58.926 22.8049V21.6349C58.926 21.2969 59.206 21.0149 59.554 21.0149H59.585C59.928 21.0149 60.213 21.2909 60.213 21.6349V22.8049H60.313V21.6349C60.3114 21.4432 60.2339 21.26 60.0974 21.1254C59.9609 20.9908 59.7766 20.9158 59.585 20.9169H59.554C59.153 20.9169 58.826 21.2389 58.826 21.6349V22.8049H58.926Z" fill="#1D1D1B"/>
<path d="M59.9229 20.5059H59.2159V20.9849H59.9229V20.5059Z" fill="#1D1D1B"/>
<path d="M59.8379 18.9669H59.3059V20.6939H59.8379V18.9669Z" fill="#1D1D1B"/>
<path d="M58.847 17.5679H60.217L59.833 18.9679H59.3L58.847 17.5679ZM48.963 23.7569H48.568C48.5089 23.7573 48.4503 23.7461 48.3955 23.7238C48.3408 23.7016 48.291 23.6688 48.2489 23.6272C48.2068 23.5857 48.1734 23.5363 48.1504 23.4819C48.1274 23.4275 48.1154 23.369 48.115 23.3099V20.7929C48.1154 20.7338 48.1274 20.6754 48.1504 20.6209C48.1734 20.5665 48.2068 20.5171 48.2489 20.4756C48.291 20.4341 48.3408 20.4013 48.3955 20.379C48.4503 20.3568 48.5089 20.3455 48.568 20.3459H48.963C49.0222 20.3454 49.0809 20.3565 49.1357 20.3787C49.1906 20.4009 49.2405 20.4337 49.2827 20.4752C49.3249 20.5168 49.3585 20.5662 49.3815 20.6207C49.4045 20.6752 49.4166 20.7337 49.417 20.7929V23.3099C49.422 23.5599 49.217 23.7569 48.963 23.7569ZM54.757 16.4449L54.404 16.2689L49.902 20.3399H49.881C49.8472 20.3397 49.8138 20.346 49.7825 20.3587C49.7512 20.3714 49.7227 20.3901 49.6987 20.4138C49.6746 20.4375 49.6555 20.4656 49.6423 20.4967C49.6292 20.5278 49.6223 20.5612 49.622 20.5949V22.5709C49.622 22.7109 49.738 22.8259 49.881 22.8259C49.949 22.8262 50.0143 22.7995 50.0627 22.7517C50.111 22.7039 50.1385 22.6389 50.139 22.5709V20.5699L54.757 16.4449Z" fill="#1D1D1B"/>
<path d="M49.8959 21.5879H49.1899V21.8579H49.8959V21.5879ZM69.8279 23.7569H70.2229C70.282 23.7573 70.3406 23.7461 70.3954 23.7238C70.4501 23.7016 70.5 23.6688 70.542 23.6272C70.5841 23.5857 70.6176 23.5363 70.6405 23.4819C70.6635 23.4275 70.6756 23.369 70.6759 23.3099V20.7929C70.6756 20.7338 70.6635 20.6754 70.6405 20.6209C70.6176 20.5665 70.5841 20.5171 70.542 20.4756C70.5 20.4341 70.4501 20.4013 70.3954 20.379C70.3406 20.3568 70.282 20.3455 70.2229 20.3459H69.8279C69.7688 20.3454 69.7101 20.3565 69.6552 20.3787C69.6003 20.4009 69.5504 20.4337 69.5082 20.4752C69.466 20.5168 69.4325 20.5662 69.4094 20.6207C69.3864 20.6752 69.3743 20.7337 69.3739 20.7929V23.3099C69.3689 23.5599 69.5739 23.7569 69.8279 23.7569ZM64.0399 16.4449L64.3929 16.2689L68.8949 20.3399H68.9149C69.0579 20.3399 69.1739 20.4549 69.1739 20.5949V22.5709C69.1739 22.7109 69.0579 22.8259 68.9159 22.8259C68.8822 22.8262 68.8487 22.8198 68.8174 22.8071C68.7862 22.7945 68.7577 22.7757 68.7336 22.7521C68.7096 22.7284 68.6904 22.7002 68.6773 22.6691C68.6641 22.638 68.6572 22.6047 68.6569 22.5709V20.5699L64.0399 16.4449Z" fill="#1D1D1B"/>
<path d="M68.897 21.8579H69.604V21.5879H68.897V21.8579ZM77.661 16.5129C77.7421 16.5135 77.8226 16.498 77.8978 16.4674C77.973 16.4368 78.0414 16.3918 78.0991 16.3347C78.1569 16.2777 78.2029 16.2099 78.2344 16.1351C78.2659 16.0603 78.2824 15.9801 78.283 15.8989C78.2824 15.8178 78.2659 15.7375 78.2344 15.6627C78.2029 15.5879 78.1569 15.5201 78.0991 15.4631C78.0414 15.4061 77.973 15.361 77.8978 15.3304C77.8226 15.2999 77.7421 15.2844 77.661 15.2849C77.5798 15.2844 77.4993 15.2999 77.4242 15.3304C77.349 15.361 77.2806 15.4061 77.2228 15.4631C77.165 15.5201 77.1191 15.5879 77.0875 15.6627C77.056 15.7375 77.0395 15.8178 77.039 15.8989C77.039 16.2379 77.317 16.5129 77.661 16.5129Z" fill="#1D1D1B"/>
<path d="M77.8239 15.2899H77.5079C77.411 15.2902 77.3179 15.2522 77.2488 15.1842C77.1797 15.1163 77.1402 15.0238 77.1389 14.9269V12.8669C77.1389 12.6699 77.3029 12.5029 77.5089 12.5029H77.8239C78.0239 12.5029 78.1939 12.6639 78.1939 12.8669V14.9269C78.1913 15.0237 78.1513 15.1157 78.0823 15.1835C78.0133 15.2514 77.9207 15.2899 77.8239 15.2909V15.2899ZM75.9639 14.9419L77.1499 15.7319L77.2499 15.5659L75.9639 14.9419ZM75.9639 16.8809L77.2499 16.2579L77.1499 16.0909L75.9639 16.8809ZM79.3639 16.8809L78.1719 16.0909L78.0719 16.2569L79.3639 16.8809ZM79.3639 14.9419L78.0719 15.5659L78.1719 15.7319L79.3639 14.9419ZM77.6609 16.2999C77.8759 16.2999 78.0509 16.1269 78.0509 15.9139C78.0505 15.8631 78.0401 15.8128 78.0203 15.766C78.0005 15.7192 77.9717 15.6768 77.9355 15.6411C77.8992 15.6055 77.8564 15.5773 77.8093 15.5582C77.7621 15.5391 77.7118 15.5295 77.6609 15.5299C77.6101 15.5295 77.5597 15.5391 77.5126 15.5582C77.4655 15.5773 77.4226 15.6055 77.3864 15.6411C77.3502 15.6768 77.3213 15.7192 77.3015 15.766C77.2817 15.8128 77.2713 15.8631 77.2709 15.9139C77.2709 16.1269 77.4459 16.2999 77.6609 16.2999ZM83.1009 14.8069L83.0009 14.4329C83.0244 14.3821 83.037 14.3269 83.0379 14.2709V12.3939C83.0371 12.2885 82.9946 12.1878 82.9196 12.1137C82.8446 12.0397 82.7433 11.9984 82.6379 11.9989C82.4159 11.9989 82.2369 12.1759 82.2369 12.3939V14.2709C82.2369 14.3229 82.2469 14.3709 82.2629 14.4169L82.1579 14.8069H82.4369V14.6149C82.4983 14.6485 82.567 14.6663 82.6369 14.6669C82.7032 14.6675 82.7686 14.6513 82.8269 14.6199V14.8069H83.1009ZM41.1719 16.5129C41.2531 16.5134 41.3336 16.498 41.4087 16.4674C41.4839 16.4368 41.5523 16.3917 41.6101 16.3347C41.6679 16.2777 41.7138 16.2099 41.7454 16.1351C41.7769 16.0603 41.7934 15.9801 41.7939 15.8989C41.7934 15.8177 41.7769 15.7375 41.7454 15.6627C41.7138 15.5879 41.6679 15.5201 41.6101 15.4631C41.5523 15.4061 41.4839 15.361 41.4087 15.3304C41.3336 15.2998 41.2531 15.2844 41.1719 15.2849C41.0908 15.2844 41.0103 15.2998 40.9351 15.3304C40.8599 15.361 40.7915 15.4061 40.7338 15.4631C40.676 15.5201 40.63 15.5879 40.5985 15.6627C40.567 15.7375 40.5505 15.8177 40.5499 15.8989C40.5499 16.2379 40.8289 16.5129 41.1719 16.5129Z" fill="#1D1D1B"/>
<path d="M41.014 15.2899H41.33C41.53 15.2899 41.7 15.1299 41.7 14.9269V12.8669C41.6989 12.7696 41.6594 12.6768 41.5901 12.6086C41.5207 12.5404 41.4272 12.5024 41.33 12.5029H41.014C40.814 12.5029 40.644 12.6639 40.644 12.8669V14.9269C40.644 15.1239 40.808 15.2909 41.014 15.2909V15.2899ZM42.87 14.9419L41.683 15.7319L41.583 15.5659L42.87 14.9419ZM42.87 16.8809L41.583 16.2579L41.683 16.0909L42.87 16.8809ZM39.47 16.8809L40.66 16.0909L40.76 16.2569L39.47 16.8809ZM39.47 14.9419L40.76 15.5659L40.66 15.7319L39.47 14.9419ZM41.172 16.2999C41.388 16.2999 41.562 16.1269 41.562 15.9139C41.5609 15.8113 41.5193 15.7134 41.4462 15.6414C41.3731 15.5695 41.2745 15.5294 41.172 15.5299C41.1211 15.5295 41.0707 15.5391 41.0236 15.5582C40.9765 15.5773 40.9336 15.6055 40.8974 15.6411C40.8612 15.6768 40.8324 15.7192 40.8126 15.766C40.7927 15.8128 40.7824 15.8631 40.782 15.9139C40.782 16.1269 40.957 16.2999 41.172 16.2999ZM35.732 14.8069L35.832 14.4329C35.8085 14.3821 35.7959 14.3269 35.795 14.2709V12.3939C35.795 12.1759 35.975 11.9989 36.195 11.9989C36.417 11.9989 36.596 12.1759 36.596 12.3939V14.2709C36.596 14.3229 36.586 14.3709 36.57 14.4169L36.675 14.8069H36.401V14.6149C36.3396 14.6485 36.2709 14.6663 36.201 14.6669C36.1347 14.6675 36.0693 14.6513 36.011 14.6199V14.8069H35.732ZM64.2 29.0659L64.484 28.0889L64.342 23.6589L65.597 21.9269L65.602 21.1309L63.778 21.4949L63.673 20.3659L61.216 20.8759L61.575 21.9419L59.709 22.3169L59.914 22.9039L61.991 24.2979L63.609 28.2919L64.2 29.0659ZM65.433 21.3439L65.428 21.8739L64.174 23.6059L64.274 26.7059L63.794 21.6659L65.433 21.3439ZM60.051 22.7949L59.93 22.4459L61.622 22.1079L63.225 26.8929L62.128 24.1829L60.051 22.7949ZM63.762 28.2189L63.746 28.1769L64.311 28.0939L64.131 28.6969L63.762 28.2189ZM63.204 19.2069L62.782 19.9659L62.244 17.9639L62.165 19.8979L61.532 18.9259L61.749 19.9919L60.826 19.2269L61.67 20.4809L62.935 20.3139L63.204 19.2069Z" fill="#1D1D1B"/>
<path d="M65.117 21.5729L63.92 21.7959V21.8479L64.063 23.4709L65.207 21.8689L65.117 21.5729ZM61.612 22.3529L61.596 22.3009L60.394 22.5139L60.42 22.8209L62.065 23.9129L61.612 22.3529ZM51.902 30.2729L52.466 29.8359L54.206 27.2829L55.623 26.8089L55.95 26.3619L54.77 25.8369L55.175 25.1559L53.583 24.4589L53.346 25.2019L52.144 24.6669L52.018 25.0769L52.613 26.6899L51.886 29.5859L51.902 30.2729ZM55.766 26.4139L55.544 26.7099L54.126 27.1839L52.908 28.9719L54.711 25.9409L55.766 26.4139ZM52.139 25.0829L52.213 24.8379L53.303 25.3219L52.239 28.6599L52.734 26.6949L52.139 25.0829ZM52.002 29.6169L52.007 29.5869L52.36 29.7629L52.012 30.0329L52.002 29.6169ZM55.386 24.3179L54.838 24.5779L55.355 23.2309L54.522 24.2919L54.564 23.4919L54.242 24.1779L54.042 23.3779L54 24.4209L54.78 24.8319L55.386 24.3169V24.3179Z" fill="#1D1D1B"/>
<path d="M55.497 26.4199L54.727 26.0659L54.706 26.0959L54.121 27.0639L55.423 26.6169L55.497 26.4199ZM53.198 25.4569L53.214 25.4209L52.444 25.0569L52.334 25.2389L52.814 26.5179L53.198 25.4569ZM58.296 36.8099L58.67 36.2059L59.392 33.2159L60.552 32.2799L60.7 31.7499L59.408 31.6659L59.545 30.8919L57.805 30.7919L57.848 31.5679L56.53 31.4839L56.556 31.9159L57.69 33.2209L58.038 36.1849L58.296 36.8089V36.8099ZM60.546 31.8589L60.446 32.2119L59.286 33.1479L58.781 35.2439L59.392 31.7859L60.546 31.8589ZM56.677 31.8639L56.662 31.6089L57.858 31.6869L58.048 35.1819L57.811 33.1689L56.677 31.8639ZM58.159 36.1639L58.154 36.1339L58.549 36.1799L58.317 36.5549L58.159 36.1639ZM59.45 30.0279L59.029 30.4599L59.034 29.0249L58.628 30.3039L58.38 29.5399L58.327 30.2939L57.853 29.6119L58.185 30.6059L59.065 30.7199L59.45 30.0279Z" fill="#1D1D1B"/>
<path d="M60.2939 31.9569L59.4499 31.8899L59.4449 31.9259L59.2389 33.0389L60.2989 32.1709L60.2939 31.9569ZM57.7999 31.8489V31.8119L56.9569 31.7389L56.9199 31.9469L57.8159 32.9769L57.7999 31.8489Z" fill="#1D1D1B"/>
</g>
</svg>
