<svg width="233" height="74" viewBox="0 0 233 74" fill="none" xmlns="http://www.w3.org/2000/svg">
<path fill-rule="evenodd" clip-rule="evenodd" d="M206.798 55.1867L228.642 40.8002L206.798 24.4146V17.9219L233 38.374V43.7561L206.798 61.7649V55.1867Z" fill="#003C66"/>
<path fill-rule="evenodd" clip-rule="evenodd" d="M94.809 0H135.967C138.701 0 140.941 2.23828 140.941 4.97206V69.0279C140.941 71.7617 138.701 74 135.967 74H94.809C92.0743 74 89.8352 71.7617 89.8352 69.0279V4.97206C89.8523 2.23828 92.0743 0 94.809 0Z" fill="#003C66"/>
<path fill-rule="evenodd" clip-rule="evenodd" d="M204.524 16.4731H199.277L182.236 61.683H187.483L204.524 16.4731Z" fill="#003C66"/>
<path d="M5.29855 61.8168V16.7266H0V61.8168H5.29855ZM157.076 41.3135H168.323C167.024 36.7173 165.451 31.1643 162.7 21.4423C160.153 30.3784 158.529 36.1706 157.076 41.3135ZM169.827 46.6273H155.641V46.3881C154.393 50.7792 153.094 55.3583 151.265 61.7998H144.941L158.512 16.7095H167.144L180.663 61.7998H174.1C172.134 54.8457 170.938 50.5913 169.827 46.6273ZM48.6954 61.8168V16.7266H42.7986C42.7986 29.4215 42.2345 43.0734 43.4652 55.6488L25.6894 16.7266H16.3913V61.8168H22.2881C22.2881 48.8826 22.647 35.8459 21.5531 22.963L39.2092 61.8168H48.6954ZM82.9992 21.579L84.0931 16.7266H54.9169L53.9426 21.579H65.9925V61.8168H71.2227V21.579H82.9992Z" fill="#333333"/>
<path d="M101.87 61.8168V16.7266H96.0925V61.8168H101.87ZM136.652 21.579L137.746 16.7266H108.091L107.117 21.579H119.167V61.8168H124.893V21.579H136.652Z" fill="white"/>
</svg>
