<svg width="258" height="77" viewBox="0 0 258 77" fill="none" xmlns="http://www.w3.org/2000/svg">
<g clip-path="url(#clip0_1088_4794)">
<path fill-rule="evenodd" clip-rule="evenodd" d="M113.717 19.9121L90.2429 18.3701L108.5 24.5411L99.1099 27.6261L115.281 32.2551L113.717 19.9121Z" fill="#126B0E"/>
<path fill-rule="evenodd" clip-rule="evenodd" d="M121.019 6.54199H84.5049L106.26 11.113L85.0259 13.742L110.801 16.827L121.019 6.54199Z" fill="#914E27"/>
<path fill-rule="evenodd" clip-rule="evenodd" d="M113.411 20.0752C129.172 20.8842 144.411 21.6662 159.146 22.4222C157.93 27.4722 155.887 33.1892 153.922 37.9002C151.601 43.4592 150.713 49.1482 148.506 54.3872C144.899 53.7032 140.802 55.8982 138.754 58.4812C135.996 61.9602 135.624 67.7382 135.624 67.7382H123.627C123.627 67.7382 124.805 57.7702 122.062 55.9102C118.585 54.6292 116.311 53.4912 112.059 55.7262C111.781 50.3602 112.739 44.1062 112.47 38.6882C112.629 37.3312 112.787 35.9722 112.945 34.6132C112.736 30.1272 112.909 24.8562 113.411 20.0752ZM135.075 26.5702C134.348 26.9872 133.55 26.7082 132.627 26.9982C131.039 27.4962 128.632 29.0742 127.511 30.2822C126.775 31.0752 124.466 35.2612 123.865 35.5412C121.113 35.4452 115.557 35.2502 115.557 35.2502L115.281 43.0542C115.281 43.0542 120.547 43.5582 122.373 43.5702C122.868 45.4122 123.251 47.7562 124.244 49.2332C127.347 53.8542 134.566 54.2602 139.093 49.2712C139.813 48.4762 142.04 44.3922 142.632 44.1032C144.827 44.1602 147.014 44.2182 149.188 44.2752C149.205 44.1892 149.221 44.1022 149.238 44.0152C149.321 44.0182 149.404 44.0202 149.488 44.0222C149.991 41.3402 150.993 38.8852 151.93 36.5252C149.343 36.4352 146.741 36.3432 144.123 36.2522C142.971 31.5002 141.647 26.9432 135.075 26.5702Z" fill="#008400"/>
<path fill-rule="evenodd" clip-rule="evenodd" d="M124.506 0.00488281C132.419 0.588883 140.198 1.16288 147.844 1.72688C154.222 2.19788 157.851 1.27588 158.689 6.52788C146.235 5.66488 133.421 4.77788 120.238 3.86388C120.255 3.77288 120.272 3.68088 120.288 3.58988C120.656 3.19788 120.747 2.43088 121.133 1.98088C121.993 0.984883 123.413 0.711883 124.506 0.00488281ZM117.832 6.47988C128.593 7.19288 139.11 7.88988 149.384 8.57088C152.165 8.75488 159.455 8.58488 160.815 9.85888C163.587 10.9999 163.994 15.7129 162.407 19.7069C162.243 19.6979 162.079 19.6899 161.916 19.6809C160.204 20.5949 151.71 19.3889 149.148 19.2499C141.065 18.8109 132.833 18.3639 124.45 17.9089C120.137 17.6739 114.73 17.8709 110.945 16.8979C110.979 16.7149 111.013 16.5309 111.046 16.3479C110.056 14.2399 112.845 9.57588 113.877 8.44888C114.816 7.85988 115.755 7.27088 116.691 6.68288C117.336 6.67088 117.472 6.68088 117.832 6.47988Z" fill="#643113"/>
<path fill-rule="evenodd" clip-rule="evenodd" d="M142.13 38.276C142.069 38.778 141.971 39.284 141.834 39.801C141.387 41.46 140.535 43.181 139.28 44.766C139.259 44.785 139.24 44.809 139.221 44.833C136.98 47.631 134.013 49.368 131.308 49.736C129.851 49.934 128.476 49.736 127.328 49.096C127.839 48.778 128.387 48.367 128.997 47.867C130.006 47.031 131.081 45.979 131.943 44.892C132.269 44.479 132.568 44.059 132.815 43.641C133.716 42.115 133.919 40.656 134.173 39.349C134.43 38.03 134.708 36.865 135.584 35.645C135.627 35.585 135.66 35.537 135.689 35.501C136.26 34.773 137.036 34.364 138.097 33.813C138.745 33.47 139.492 33.06 140.24 32.465C141.354 33.419 141.988 34.79 142.152 36.372C142.215 36.981 142.208 37.621 142.13 38.276ZM134.021 34.303C133.959 34.387 133.902 34.465 133.855 34.532C132.707 36.123 132.365 37.677 132.101 39.029C131.84 40.398 131.647 41.573 130.989 42.687C130.8 42.999 130.56 43.346 130.281 43.698C129.545 44.628 128.554 45.603 127.647 46.36C126.768 47.114 125.865 47.665 125.678 47.701C125.655 47.704 125.636 47.723 125.614 47.731C123.309 45.059 123.866 40.101 127.127 35.978C129.374 33.142 132.371 31.379 135.1 31.008C136.26 30.85 137.378 30.947 138.364 31.317C137.96 31.583 137.545 31.813 137.114 32.045C136.112 32.577 134.96 33.124 134.021 34.303Z" fill="#914E27"/>
<path fill-rule="evenodd" clip-rule="evenodd" d="M151.771 66.4522C150.403 72.2742 146.097 76.9942 142.155 76.9942C141.869 76.9942 141.596 76.9632 141.331 76.9142L141.362 76.9942L120.497 73.9062L137.097 70.6352C137.023 69.3522 137.144 67.9392 137.494 66.4522C138.862 60.6302 143.168 55.9102 147.11 55.9102C151.053 55.9102 153.14 60.6302 151.771 66.4522ZM145.863 61.0532C143.687 61.0532 141.311 63.7002 140.555 66.9662C139.8 70.2322 140.952 72.8802 143.128 72.8802C145.305 72.8802 147.681 70.2322 148.436 66.9662C149.191 63.7002 148.04 61.0532 145.863 61.0532ZM111.901 76.9942C111.04 76.9942 110.274 76.7582 109.607 76.3452L76.6809 73.3922L100.522 70.9242L80.0869 70.6162L107.05 67.3972C107.104 67.0852 107.164 66.7712 107.239 66.4522C108.607 60.6302 112.913 55.9102 116.856 55.9102C120.798 55.9102 122.886 60.6302 121.517 66.4522C120.149 72.2742 115.843 76.9942 111.901 76.9942ZM115.609 61.0532C113.433 61.0532 111.056 63.7002 110.302 66.9662C109.546 70.2322 110.698 72.8802 112.874 72.8802C115.05 72.8802 117.426 70.2322 118.182 66.9662C118.937 63.7002 117.785 61.0532 115.609 61.0532Z" fill="#914E27"/>
<path fill-rule="evenodd" clip-rule="evenodd" d="M87.789 44.2721L84.619 62.1031H80.652L80.668 60.5301H80.403C79.615 61.1941 78.695 61.7101 77.642 62.0771C76.589 62.4441 75.535 62.6271 74.477 62.6271C71.867 62.6271 70 62.0241 68.875 60.8181C67.75 59.6121 67.47 57.4181 68.036 54.2361C68.583 51.1601 69.63 49.0361 71.179 47.8641C72.727 46.6931 74.805 46.1071 77.415 46.1071C78.824 46.1071 80.556 46.2831 82.61 46.6321L83.03 44.2721C83.427 42.0351 83.231 40.5141 82.439 39.7091C81.647 38.9051 80.247 38.5031 78.238 38.5031H72.949L73.322 36.4051C74.218 36.1261 75.283 35.8811 76.52 35.6711C77.756 35.4611 78.867 35.3561 79.855 35.3561C82.111 35.3561 83.874 35.6011 85.145 36.0901C86.415 36.5811 87.28 37.4631 87.742 38.7391C88.203 40.0161 88.218 41.8591 87.789 44.2721ZM78.442 49.2541C76.961 49.2541 75.731 49.6301 74.75 50.3821C73.77 51.1341 73.119 52.4191 72.796 54.2361C72.447 56.1951 72.628 57.5581 73.337 58.3271C74.046 59.0961 75.142 59.4811 76.623 59.4811C77.258 59.4811 77.946 59.3761 78.689 59.1661C79.431 58.9561 80.039 58.7121 80.512 58.4321L82.144 49.2541H78.442ZM51.3 62.1031L48.824 35.8811H53.319L55.424 57.6451H55.636L65.483 35.8811H69.978L58.176 62.1031H51.3ZM41.252 62.1031H37.285L37.301 60.5301H37.037C36.248 61.1941 35.328 61.7101 34.275 62.0771C33.222 62.4441 32.168 62.6271 31.11 62.6271C28.5 62.6271 26.634 62.0241 25.508 60.8181C24.383 59.6121 24.103 57.4181 24.669 54.2361C25.216 51.1601 26.263 49.0361 27.812 47.8641C29.36 46.6931 31.438 46.1071 34.048 46.1071C35.457 46.1071 37.19 46.2831 39.243 46.6321L39.663 44.2721C40.06 42.0351 39.864 40.5141 39.072 39.7091C38.28 38.9051 36.88 38.5031 34.871 38.5031H29.582L29.956 36.4051C30.851 36.1261 31.917 35.8811 33.153 35.6711C34.389 35.4611 35.5 35.3561 36.488 35.3561C38.744 35.3561 40.507 35.6011 41.778 36.0901C43.048 36.5811 43.914 37.4631 44.375 38.7391C44.836 40.0161 44.851 41.8591 44.423 44.2721L41.252 62.1031ZM35.075 49.2541C33.594 49.2541 32.364 49.6301 31.384 50.3821C30.404 51.1341 29.752 52.4191 29.429 54.2361C29.081 56.1951 29.261 57.5581 29.971 58.3271C30.679 59.0961 31.775 59.4811 33.256 59.4811C33.891 59.4811 34.579 59.3761 35.322 59.1661C36.064 58.9561 36.672 58.7121 37.145 58.4321L38.777 49.2541H35.075ZM21.684 62.1031H16.13L8.024 43.7471L4.76 62.1031H0L6.528 25.3921H11.288L8.117 43.2231L21.601 25.3921H27.154L13.094 43.4851L21.684 62.1031Z" fill="#008400"/>
<path fill-rule="evenodd" clip-rule="evenodd" d="M257.41 48.9922L257.131 50.5652H243.38C242.975 52.8382 242.905 54.6222 243.169 55.9142C243.432 57.2082 244.054 58.1262 245.033 58.6682C246.011 59.2102 247.4 59.4812 249.198 59.4812H254.487L254.114 61.5782C253.219 61.8592 252.153 62.1032 250.917 62.3132C249.68 62.5222 248.568 62.6272 247.581 62.6272C244.866 62.6272 242.779 62.2162 241.322 61.3952C239.864 60.5742 238.94 59.1752 238.551 57.1992C238.162 55.2242 238.278 52.4882 238.9 48.9922C239.509 45.5662 240.334 42.8562 241.376 40.8632C242.418 38.8702 243.683 37.4542 245.173 36.6152C246.662 35.7762 248.464 35.3562 250.579 35.3562C252.695 35.3562 254.347 35.7762 255.538 36.6152C256.729 37.4542 257.491 38.8702 257.824 40.8632C258.157 42.8562 258.019 45.5662 257.41 48.9922ZM252.942 40.3652C252.365 38.9492 251.407 38.2412 250.067 38.2412C248.727 38.2412 247.517 38.9492 246.437 40.3652C245.356 41.7812 244.524 44.1322 243.94 47.4192H252.93C253.514 44.1322 253.519 41.7812 252.942 40.3652ZM221.231 62.1032L218.755 35.8812H223.25L225.356 57.6452H225.567L235.414 35.8812H239.91L228.107 62.1032H221.231ZM211.475 32.2092L212.5 26.4412H217.26L216.235 32.2092H211.475ZM210.919 62.1032H206.159L210.822 35.8812H215.582L210.919 62.1032ZM201.924 39.8142C200.408 39.8142 199.111 40.1642 198.036 40.8632L194.259 62.1032H189.499L194.162 35.8812H198.182L198.073 37.9782H198.337C200.278 36.5812 202.589 35.8812 205.269 35.8812H207.913L207.213 39.8142H201.924ZM184.609 55.1022C183.204 57.8472 181.484 59.7872 179.449 60.9232C177.413 62.0592 174.915 62.6272 171.953 62.6272C168.674 62.6272 165.916 62.2772 163.678 61.5782L170.019 25.9162C172.505 25.2172 175.388 24.8672 178.667 24.8672C181.629 24.8672 183.925 25.4362 185.556 26.5722C187.188 27.7082 188.218 29.6492 188.647 32.3932C189.075 35.1382 188.861 38.9222 188.003 43.7472C187.145 48.5722 186.013 52.3572 184.609 55.1022ZM183.951 34.4122C183.72 32.1402 183.104 30.5492 182.102 29.6402C181.101 28.7312 179.754 28.2762 178.062 28.2762H174.359L168.857 59.2182H172.56C174.252 59.2182 175.76 58.7642 177.086 57.8552C178.411 56.9462 179.593 55.3562 180.632 53.0822C181.67 50.8102 182.541 47.6992 183.244 43.7472C183.946 39.7972 184.181 36.6852 183.951 34.4122Z" fill="#643113"/>
</g>
<defs>
<clipPath id="clip0_1088_4794">
<rect width="258" height="77" fill="white"/>
</clipPath>
</defs>
</svg>
