<svg width="24" height="24" viewBox="0 0 24 24" fill="none" xmlns="http://www.w3.org/2000/svg">
<path d="M24 12C24 8.8174 22.7357 5.76516 20.4853 3.51472C18.2348 1.26428 15.1826 0 12 0C10.4241 0 8.8637 0.310389 7.4078 0.913446C5.95189 1.5165 4.62902 2.40042 3.51472 3.51472C2.40042 4.62902 1.5165 5.95189 0.913445 7.4078C0.310387 8.86371 0 10.4241 0 12C0 15.1826 1.26428 18.2348 3.51472 20.4853C5.76515 22.7357 8.8174 24 12 24C13.5759 24 15.1363 23.6896 16.5922 23.0866C18.0481 22.4835 19.371 21.5996 20.4853 20.4853C22.7357 18.2348 24 15.1826 24 12ZM4.8 10.8H14.4L10.2 6.6L11.904 4.896L19.008 12L11.904 19.104L10.2 17.4L14.4 13.2H4.8V10.8Z" fill="#2D5BD0"/>
</svg>
