<svg width="167" height="57" viewBox="0 0 167 57" fill="none" xmlns="http://www.w3.org/2000/svg">
<g clip-path="url(#clip0_1088_4793)">
<mask id="mask0_1088_4793" style="mask-type:luminance" maskUnits="userSpaceOnUse" x="0" y="0" width="167" height="57">
<path d="M167 0H0V57H167V0Z" fill="white"/>
</mask>
<g mask="url(#mask0_1088_4793)">
<path d="M63.1638 20.6528V5.20459H68.6734C69.7713 5.20459 70.6767 5.39065 71.3898 5.76278C72.1029 6.12988 72.6338 6.62521 72.9826 7.24877C73.3315 7.86731 73.5059 8.55375 73.5059 9.30805C73.5059 9.97183 73.3853 10.5199 73.1442 10.9524C72.9083 11.3849 72.5953 11.7269 72.2054 11.9783C71.8207 12.2297 71.4026 12.4158 70.9512 12.5365V12.6873C71.4334 12.7175 71.9182 12.8834 72.4055 13.1851C72.8929 13.4869 73.3007 13.9194 73.629 14.4825C73.9573 15.0458 74.1215 15.7347 74.1215 16.5494C74.1215 17.3238 73.9419 18.0203 73.5828 18.6388C73.2237 19.2574 72.6569 19.7477 71.8823 20.1097C71.1077 20.4718 70.0995 20.6528 68.8581 20.6528H63.1638ZM65.0722 18.9934H68.8581C70.1047 18.9934 70.9896 18.757 71.5129 18.2843C72.0412 17.8066 72.3055 17.2283 72.3055 16.5494C72.3055 16.0264 72.1695 15.5437 71.8977 15.1011C71.6257 14.6535 71.2384 14.2965 70.7357 14.03C70.233 13.7584 69.6379 13.6227 68.9505 13.6227H65.0722V18.9934ZM65.0722 11.9933H68.6119C69.1865 11.9933 69.7045 11.8827 70.1663 11.6614C70.6331 11.4402 71.0025 11.1284 71.2743 10.7261C71.5514 10.3238 71.6899 9.85114 71.6899 9.30805C71.6899 8.62914 71.4487 8.05336 70.9666 7.58066C70.4843 7.10294 69.72 6.86407 68.6734 6.86407H65.0722V11.9933Z" fill="black"/>
<path d="M77.0107 20.6527V9.06652H78.8271V20.6527H77.0107ZM77.9342 7.13547C77.5803 7.13547 77.2753 7.0173 77.0183 6.78095C76.7675 6.5446 76.6416 6.26047 76.6416 5.92858C76.6416 5.59668 76.7675 5.31255 77.0183 5.0762C77.2753 4.83986 77.5803 4.72168 77.9342 4.72168C78.288 4.72168 78.5907 4.83986 78.8424 5.0762C79.0986 5.31255 79.2275 5.59668 79.2275 5.92858C79.2275 6.26047 79.0986 6.5446 78.8424 6.78095C78.5907 7.0173 78.288 7.13547 77.9342 7.13547Z" fill="black"/>
<path d="M90.0633 14.0444V15.7039H83.5381V14.0444H90.0633ZM83.9689 9.06592V20.6522H82.1533V9.06592H83.9689ZM91.4488 9.06592V20.6522H89.6324V9.06592H91.4488Z" fill="black"/>
<path d="M102.676 14.0444V15.7039H96.1499V14.0444H102.676ZM96.5808 9.06592V20.6522H94.7651V9.06592H96.5808ZM104.061 9.06592V20.6522H102.244V9.06592H104.061Z" fill="black"/>
<path d="M109.194 18.0272L114.888 9.06592H116.981V20.6522H115.164V11.6909L109.501 20.6522H107.377V9.06592H109.194V18.0272Z" fill="black"/>
<path d="M129.603 9.06592V18.9927H131.264V24.3936H129.449V20.6522H120.307V9.06592H122.123V18.9927H127.786V9.06592H129.603Z" fill="black"/>
<path d="M135.631 13.2599H139.017C140.402 13.2599 141.462 13.6044 142.196 14.2933C142.929 14.9823 143.296 15.8547 143.296 16.9108C143.296 17.6048 143.131 18.2359 142.803 18.8041C142.475 19.3673 141.993 19.8174 141.357 20.1544C140.721 20.4863 139.941 20.6522 139.017 20.6522H134.061V9.06592H135.878V18.9927H139.017C139.736 18.9927 140.326 18.8067 140.787 18.4345C141.248 18.0624 141.479 17.5847 141.479 17.0013C141.479 16.3878 141.248 15.8874 140.787 15.5002C140.326 15.1131 139.736 14.9194 139.017 14.9194H135.631V13.2599Z" fill="black"/>
<path d="M146.06 20.6522V9.06592H147.876V14.1048H149.077L153.324 9.06592H155.663L150.893 14.6479L155.725 20.6522H153.386L149.508 15.7642H147.876V20.6522H146.06Z" fill="black"/>
<path d="M161.177 20.9237C160.428 20.9237 159.748 20.7854 159.138 20.5088C158.527 20.2272 158.042 19.8225 157.683 19.2944C157.324 18.7613 157.145 18.1177 157.145 17.3634C157.145 16.6995 157.278 16.1615 157.545 15.7492C157.812 15.3318 158.168 15.0049 158.614 14.7685C159.061 14.5322 159.554 14.3562 160.092 14.2405C160.636 14.1198 161.182 14.0243 161.731 13.9539C162.449 13.8634 163.032 13.7955 163.478 13.7502C163.929 13.6999 164.258 13.617 164.463 13.5013C164.673 13.3856 164.778 13.1845 164.778 12.8979V12.8375C164.778 12.0933 164.57 11.515 164.155 11.1026C163.745 10.6902 163.121 10.484 162.285 10.484C161.418 10.484 160.739 10.6701 160.246 11.0422C159.753 11.4143 159.407 11.8116 159.207 12.2341L157.483 11.6306C157.791 10.9266 158.202 10.3785 158.715 9.98619C159.233 9.58886 159.797 9.3123 160.408 9.15642C161.023 8.99553 161.628 8.91504 162.223 8.91504C162.603 8.91504 163.039 8.96026 163.532 9.05078C164.029 9.13628 164.509 9.3148 164.971 9.58635C165.437 9.8579 165.825 10.2678 166.132 10.8159C166.44 11.3641 166.594 12.0983 166.594 13.0186V20.6521H164.778V19.0832H164.686C164.563 19.3346 164.358 19.6036 164.07 19.8903C163.783 20.1769 163.401 20.4208 162.923 20.622C162.447 20.8231 161.864 20.9237 161.177 20.9237ZM161.454 19.3246C162.172 19.3246 162.778 19.1863 163.27 18.9097C163.767 18.6331 164.142 18.2761 164.394 17.8385C164.65 17.4011 164.778 16.9409 164.778 16.4582V14.8289C164.701 14.9194 164.532 15.0024 164.27 15.0778C164.014 15.1482 163.716 15.2111 163.378 15.2664C163.044 15.3166 162.718 15.3619 162.4 15.4021C162.088 15.4373 161.834 15.4675 161.638 15.4927C161.166 15.553 160.726 15.651 160.315 15.7869C159.91 15.9176 159.582 16.1162 159.33 16.3828C159.084 16.6443 158.961 17.0013 158.961 17.4539C158.961 18.0724 159.194 18.5401 159.661 18.8569C160.133 19.1687 160.73 19.3246 161.454 19.3246Z" fill="black"/>
<path d="M64.7737 32.7563V48.5437H63.1638V32.7563H64.7737Z" fill="black"/>
<path d="M67.2747 34.4523V32.7563H77.2457V34.4523H73.0653V48.5437H71.4554V34.4523H67.2747Z" fill="black"/>
<path d="M83.8781 39.8018V41.4977H78.062V39.8018H83.8781Z" fill="black"/>
<path d="M87.3272 48.5437H85.6389L90.5208 32.7563H92.1824L97.0643 48.5437H95.3768L91.4038 35.2539H91.3001L87.3272 48.5437ZM87.9502 42.3767H94.7538V44.0727H87.9502V42.3767Z" fill="black"/>
<path d="M98.9272 48.5436V36.7031H100.459V41.8525H101.472L105.056 36.7031H107.029L103.004 42.4075L107.081 48.5436H105.108L101.836 43.5484H100.459V48.5436H98.9272Z" fill="black"/>
<path d="M111.68 48.821C111.048 48.821 110.475 48.6797 109.96 48.397C109.445 48.1093 109.036 47.6955 108.733 47.1559C108.43 46.6112 108.278 45.9534 108.278 45.1825C108.278 44.5042 108.391 43.9543 108.616 43.5329C108.841 43.1063 109.142 42.7723 109.518 42.5308C109.895 42.2893 110.311 42.1094 110.765 41.9912C111.223 41.8678 111.685 41.7702 112.148 41.6982C112.753 41.6057 113.245 41.5363 113.621 41.4901C114.002 41.4387 114.279 41.3539 114.452 41.2357C114.63 41.1175 114.718 40.912 114.718 40.619V40.5574C114.718 39.7968 114.543 39.2058 114.192 38.7844C113.846 38.3629 113.32 38.1523 112.615 38.1523C111.884 38.1523 111.31 38.3424 110.895 38.7227C110.479 39.103 110.187 39.509 110.019 39.9406L108.564 39.324C108.824 38.6045 109.17 38.0444 109.603 37.6435C110.04 37.2375 110.516 36.9548 111.031 36.7955C111.551 36.6311 112.061 36.5488 112.563 36.5488C112.884 36.5488 113.251 36.5951 113.667 36.6876C114.086 36.775 114.491 36.9574 114.881 37.235C115.274 37.5124 115.601 37.9313 115.861 38.4915C116.121 39.0516 116.25 39.8019 116.25 40.7424V48.5435H114.718V46.9401H114.64C114.537 47.197 114.364 47.472 114.121 47.7649C113.879 48.0579 113.556 48.3071 113.153 48.5127C112.752 48.7183 112.26 48.821 111.68 48.821ZM111.914 47.1868C112.52 47.1868 113.031 47.0455 113.446 46.7628C113.866 46.4801 114.181 46.1153 114.393 45.6681C114.61 45.2211 114.718 44.7508 114.718 44.2575V42.5924C114.653 42.6849 114.511 42.7697 114.29 42.8468C114.073 42.9188 113.822 42.983 113.537 43.0395C113.256 43.0909 112.98 43.1372 112.712 43.1783C112.448 43.2143 112.234 43.2451 112.07 43.2708C111.672 43.3324 111.3 43.4327 110.953 43.5715C110.611 43.7051 110.334 43.9081 110.122 44.1804C109.914 44.4477 109.81 44.8125 109.81 45.2751C109.81 45.9072 110.007 46.3851 110.401 46.7088C110.799 47.0275 111.304 47.1868 111.914 47.1868Z" fill="black"/>
<path d="M117.982 51.9354V46.8477H118.813C119.016 46.5959 119.191 46.3235 119.339 46.0306C119.486 45.7376 119.613 45.3908 119.721 44.9899C119.834 44.5839 119.93 44.0906 120.007 43.5098C120.085 42.924 120.155 42.2174 120.215 41.39L120.553 36.7031H126.889V46.8477H128.421V51.9354H126.889V48.5436H119.514V51.9354H117.982ZM120.553 46.8477H125.357V38.3991H121.981L121.721 41.39C121.613 42.6285 121.478 43.7102 121.318 44.6353C121.158 45.5603 120.903 46.2978 120.553 46.8477Z" fill="black"/>
<path d="M134.635 48.7901C133.674 48.7901 132.845 48.5384 132.148 48.0347C131.456 47.526 130.921 46.8167 130.544 45.9072C130.172 44.9924 129.986 43.9286 129.986 42.7158C129.986 41.503 130.172 40.434 130.544 39.509C130.921 38.5788 131.445 37.8542 132.116 37.3351C132.791 36.811 133.579 36.5488 134.478 36.5488C134.998 36.5488 135.511 36.6517 136.017 36.8572C136.524 37.0627 136.984 37.3968 137.4 37.8593C137.815 38.3167 138.146 38.9231 138.393 39.6786C138.64 40.434 138.763 41.3642 138.763 42.4691V43.2399H131.077V41.6674H137.205C137.205 40.9993 137.092 40.4032 136.868 39.879C136.647 39.3548 136.331 38.9411 135.92 38.6379C135.513 38.3347 135.033 38.1831 134.478 38.1831C133.868 38.1831 133.341 38.3629 132.895 38.7227C132.453 39.0773 132.114 39.5398 131.876 40.1103C131.637 40.6807 131.518 41.2922 131.518 41.9449V42.9932C131.518 43.8875 131.649 44.6455 131.908 45.2673C132.172 45.8841 132.538 46.3543 133.005 46.678C133.473 46.9966 134.016 47.1559 134.635 47.1559C135.037 47.1559 135.4 47.0891 135.725 46.9555C136.054 46.8167 136.338 46.6112 136.575 46.3388C136.813 46.0613 136.997 45.717 137.128 45.3059L138.608 45.7992C138.451 46.3954 138.19 46.9196 137.821 47.3718C137.454 47.8189 136.999 48.1683 136.459 48.4202C135.917 48.6669 135.31 48.7901 134.635 48.7901Z" fill="black"/>
<path d="M146.547 46.0768L150.026 36.7031H151.481L147.17 48.5436H145.924L141.691 36.7031H143.119L146.547 46.0768ZM142.626 36.7031V48.5436H141.094V36.7031H142.626ZM150.468 48.5436V36.7031H152V48.5436H150.468Z" fill="black"/>
<path d="M154.804 48.5434V36.7029H156.336V48.5434H154.804ZM155.583 34.7295C155.284 34.7295 155.027 34.6087 154.81 34.3672C154.598 34.1257 154.492 33.8353 154.492 33.4961C154.492 33.157 154.598 32.8666 154.81 32.625C155.027 32.3835 155.284 32.2627 155.583 32.2627C155.881 32.2627 156.137 32.3835 156.349 32.625C156.565 32.8666 156.673 33.157 156.673 33.4961C156.673 33.8353 156.565 34.1257 156.349 34.3672C156.137 34.6087 155.881 34.7295 155.583 34.7295Z" fill="black"/>
<path d="M165.14 48.5436V38.3682H162.492C161.894 38.3682 161.425 38.5327 161.083 38.8615C160.741 39.1905 160.57 39.6427 160.57 40.2183C160.57 40.7836 160.723 41.2281 161.031 41.5519C161.343 41.8756 161.769 42.0375 162.31 42.0375H165.53V43.7334H162.31C161.635 43.7334 161.053 43.5921 160.563 43.3094C160.074 43.0268 159.698 42.6234 159.434 42.0992C159.17 41.5699 159.038 40.9429 159.038 40.2183C159.038 39.4885 159.176 38.8615 159.454 38.3374C159.731 37.8132 160.126 37.4098 160.641 37.1271C161.161 36.8445 161.777 36.7031 162.492 36.7031H166.594V48.5436H165.14ZM158.493 48.5436L161.323 42.6542H162.985L160.155 48.5436H158.493Z" fill="black"/>
<path d="M0 8.76926C0 3.92611 3.93933 0 8.79877 0H48.393C53.2525 0 57.1918 3.92612 57.1918 8.76926V48.2307C57.1918 53.0739 53.2525 57 48.393 57H8.79877C3.93932 57 0 53.0739 0 48.2307V8.76926Z" fill="url(#paint0_linear_1088_4793)"/>
<path d="M26.7216 6.8301C24.9394 7.67747 24.5258 9.86566 25.9048 11.2063C26.4776 11.7534 26.9656 11.9358 27.8779 11.9358H28.6523L31.9727 15.2931L35.2824 18.6397V22.2115C35.2824 25.0969 35.3142 25.8369 35.4309 26.0729C35.5157 26.2338 35.8658 26.6414 36.2159 26.9954L36.8523 27.6175L36.7993 28.2503C36.6933 29.3444 37.2979 30.4171 38.2951 30.9533C39.2179 31.4467 40.5864 31.1786 41.3608 30.3634C41.7851 29.9236 42.1777 29.0226 42.1671 28.5078C42.1564 27.6068 41.5623 26.6307 40.7137 26.1266C40.2788 25.8691 40.0985 25.8262 39.3665 25.8262C38.5496 25.8262 38.5072 25.8155 38.1253 25.4401L37.7222 25.0539V21.3641V17.685L34.02 13.9201L30.3178 10.1659L30.3708 9.57602C30.4769 8.35326 29.9783 7.45222 28.9069 6.90519C28.0901 6.48687 27.496 6.47614 26.7216 6.8301ZM28.1643 9.0612C28.3128 9.31861 28.3128 9.36147 28.1325 9.56531C27.6551 10.1016 26.8914 9.52237 27.2944 8.94317C27.5172 8.62139 27.9627 8.68576 28.1643 9.0612ZM39.8226 28.1538C39.9817 28.2933 39.9923 28.6901 39.8226 28.8617C39.7484 28.9368 39.568 28.9905 39.4195 28.9905C38.9103 28.9905 38.7088 28.5078 39.0695 28.1109C39.2498 27.9178 39.5362 27.9285 39.8226 28.1538Z" fill="white"/>
<path d="M17.7887 6.90574C17.3326 7.08809 16.6113 7.75314 16.3778 8.21431C16.049 8.83645 16.049 9.9842 16.3672 10.6063C16.9083 11.6468 18.0327 12.2474 19.1253 12.0972L19.6346 12.0329L23.7505 16.141L27.8664 20.2491L27.8558 20.9893V21.7187L27.3679 22.1584C25.8403 23.5207 26.1373 25.7195 27.9937 26.7064C28.4924 26.9745 29.5955 26.9423 30.1366 26.6635C31.1338 26.1378 31.6641 25.2798 31.6747 24.2071C31.6747 23.4027 31.3034 22.5875 30.7094 22.1048L30.2957 21.7723V20.764C30.2957 20.1526 30.2426 19.6271 30.1472 19.4125C30.0623 19.2195 28.1635 17.2136 25.6918 14.7252L21.3849 10.3811L21.4485 9.78037C21.5016 9.34063 21.4697 9.01885 21.3319 8.62198C21.0984 7.91404 20.3347 7.09881 19.73 6.91648C19.2102 6.76631 18.1494 6.75558 17.7887 6.90574ZM19.1572 9.08314C19.3481 9.32984 19.2421 9.716 18.9238 9.8876C18.6692 10.0378 18.6268 10.0378 18.4252 9.85546C18.1812 9.63019 18.1388 9.25475 18.3298 9.06171C18.5101 8.87939 18.9981 8.90082 19.1572 9.08314ZM29.2561 23.7566C29.638 24.0785 29.5319 24.7005 29.0864 24.7005C28.6302 24.7005 28.4924 24.5933 28.4924 24.2071C28.4924 23.7138 28.8954 23.4778 29.2561 23.7566Z" fill="white"/>
<path d="M37.4283 8.12844C36.1553 8.68621 35.4552 10.145 35.8583 11.3785C36.3251 12.7943 37.789 13.6096 39.1786 13.2127C39.5605 13.1162 39.8469 12.9123 40.3031 12.4511L40.929 11.829H42.3293H43.7296L45.9254 14.0493L48.1213 16.2589V17.4066V18.5651L47.75 18.8439C47.3044 19.1872 46.9014 19.8736 46.7529 20.5172C46.5195 21.5684 47.0923 22.7591 48.1213 23.349C49.4155 24.0783 51.0809 23.5742 51.8023 22.212C51.9296 21.9653 51.9827 21.622 51.9933 21.0535C51.9933 20.0775 51.7174 19.4446 51.0279 18.8654L50.5718 18.4793L50.5824 16.9132L50.593 15.3472L50.0732 14.8109C49.7868 14.5105 48.5032 13.2127 47.2196 11.9256C45.4587 10.145 44.801 9.54432 44.5145 9.46924C44.313 9.41558 43.4219 9.36192 42.5308 9.36192H40.9184L40.3562 8.79344C39.9955 8.43951 39.6242 8.1821 39.3484 8.0963C38.7755 7.92461 37.8632 7.93533 37.4283 8.12844ZM38.8498 10.3809C39.1468 10.8315 38.4997 11.4214 38.086 11.0782C37.9057 10.9173 37.8951 10.4132 38.0648 10.2415C38.2558 10.0484 38.6801 10.1235 38.8498 10.3809ZM49.7125 20.6245C50.0944 21.0107 49.8717 21.5255 49.3518 21.4611C48.6517 21.386 48.7153 20.5387 49.4261 20.4207C49.4685 20.4207 49.5958 20.5065 49.7125 20.6245Z" fill="white"/>
<path d="M9.85672 9.07176C9.28389 9.28631 8.67918 9.82264 8.37156 10.3804C8.11695 10.8416 8.07455 11.0347 8.07455 11.7426V12.5792L5.1573 15.5289L2.24007 18.4787L2.20825 22.1042C2.18703 24.0885 2.20825 25.8369 2.24007 25.9871C2.31433 26.2874 4.63751 28.7115 5.07244 28.9475C5.30581 29.0655 6.10143 29.0977 9.26261 29.0977H13.1664L15.3092 31.2644L17.4627 33.4418L22.0135 33.4954L26.5751 33.549L26.957 33.9995C27.1585 34.2462 27.5934 34.5787 27.9223 34.7396C29.6408 35.587 31.6776 34.2248 31.6776 32.219C31.6776 31.2107 30.8501 30.0845 29.8848 29.752C28.877 29.4087 27.742 29.7305 27.0206 30.5671L26.6069 31.0391L22.5652 31.0605L18.5235 31.082L16.3488 28.8831L14.1742 26.6842L10.1113 26.6521L6.05899 26.6199L5.34825 25.9012L4.6269 25.1933V22.3401V19.4977L7.2471 16.8483L9.85672 14.2097L10.4189 14.2632C11.2994 14.3598 11.904 14.1346 12.5511 13.4803C13.6544 12.3648 13.6332 10.6915 12.4769 9.65103C11.7343 8.97524 10.7266 8.74998 9.85672 9.07176ZM11.0766 11.2063C11.2569 11.3886 11.2357 11.7212 11.0236 11.9571C10.8114 12.1931 10.5886 12.2039 10.3341 11.9679C10.1219 11.7748 10.0901 11.5817 10.2492 11.2814C10.3765 11.0454 10.875 11.0025 11.0766 11.2063ZM29.4605 32.0581C29.5347 32.2726 29.5241 32.4013 29.3968 32.5944C29.121 33.0342 28.4951 32.8519 28.4951 32.337C28.4951 31.9508 28.6755 31.7792 29.0468 31.7792C29.2801 31.7792 29.3756 31.8436 29.4605 32.0581Z" fill="white"/>
<path d="M12.7423 16.0335C11.9255 16.3232 11.183 17.192 10.9814 18.1037C10.8011 18.9404 11.0663 19.7448 11.7876 20.4742C12.4241 21.1178 13.0181 21.3323 13.9199 21.2358L14.5139 21.1714L16.9326 23.5848L19.3512 25.9982L19.2982 26.6203C19.086 28.905 21.5258 30.4282 23.3717 29.1732C24.8144 28.1971 25.0478 26.4166 23.9021 25.1616C23.2868 24.4751 22.7352 24.2498 21.8016 24.282L21.0485 24.3035L18.6405 21.8686L16.2324 19.4445L16.2749 18.6937C16.3067 18.093 16.2749 17.857 16.0839 17.4708C15.7975 16.8702 15.0655 16.1944 14.5139 16.0335C14.0153 15.8834 13.1773 15.8834 12.7423 16.0335ZM14.0047 18.2217C14.2275 18.4362 14.2169 18.6186 13.9729 18.9189C13.8032 19.1334 13.7289 19.1548 13.4743 19.069C12.9333 18.876 13.0287 18.0501 13.6016 18.0501C13.7289 18.0501 13.9199 18.1251 14.0047 18.2217ZM22.3215 26.5452C22.4594 26.6847 22.4912 27.0494 22.3639 27.2425C22.226 27.4677 21.7486 27.5213 21.5577 27.3283C21.197 26.9635 21.4092 26.4166 21.9184 26.4166C22.0669 26.4166 22.2472 26.4702 22.3215 26.5452Z" fill="white"/>
<path d="M48.2134 26.8989C47.6511 27.1885 47.0995 27.7891 46.8767 28.3255C46.6433 28.8832 46.6858 29.8379 46.9616 30.4278C47.0889 30.7067 47.4071 31.125 47.6723 31.361L48.1603 31.79L45.3386 34.6539C43.7898 36.2307 42.4638 37.6251 42.4001 37.7538C42.3365 37.8825 42.2834 38.1614 42.2834 38.3652C42.2834 38.6333 42.2198 38.7728 42.0713 38.8586C41.9546 38.923 41.6682 39.2126 41.4454 39.5022C40.8831 40.2208 40.7135 40.9824 40.9468 41.7869C41.1271 42.409 41.5408 43.0204 41.9864 43.3207C42.241 43.503 42.2834 43.5996 42.2834 44.0608C42.2834 44.5757 42.2516 44.6294 41.8166 44.994C39.9815 46.5601 41.0105 49.6277 43.4079 49.7135C44.2459 49.735 44.7976 49.5205 45.3598 48.952C45.8901 48.4157 46.2084 47.6542 46.2084 46.9677C46.1978 46.2383 45.6356 45.2086 45.0415 44.8117C44.7657 44.6294 44.7233 44.5328 44.7233 44.1038C44.7233 43.6639 44.7657 43.5781 45.1476 43.2671C45.381 43.0847 45.6992 42.6986 45.8584 42.4197C46.113 42.0014 46.1554 41.7976 46.1554 41.1648C46.1448 40.2745 45.8795 39.6631 45.2218 39.0409L44.787 38.6334L47.6723 35.7159C49.3272 34.0319 50.5684 32.7018 50.5684 32.5838C50.579 32.4658 50.5896 32.2405 50.6002 32.0796C50.6108 31.8866 50.7911 31.6399 51.1412 31.3073L51.661 30.8139H56.6256H57.1918V29.0334V27.8106H56.6256H51.661L51.2897 27.4245C50.7699 26.8667 50.2183 26.6307 49.3908 26.6415C48.8711 26.6415 48.5846 26.7058 48.2134 26.8989ZM49.8364 29.0334C49.9743 29.2265 49.9319 29.4088 49.7091 29.634C49.4545 29.8915 49.2529 29.9022 49.0302 29.677C48.627 29.2694 49.0514 28.54 49.5394 28.7974C49.6666 28.8618 49.794 28.969 49.8364 29.0334ZM43.9277 40.7893C44.2141 41.1004 44.0338 41.5831 43.6306 41.626C43.0791 41.6904 42.8244 41.1862 43.2063 40.7679C43.4291 40.5105 43.6837 40.5212 43.9277 40.7893ZM43.8746 46.6887C44.1611 46.9784 44.1399 47.2894 43.8216 47.504C43.5776 47.6649 43.5351 47.6649 43.2912 47.504C42.9517 47.2787 42.9411 46.8711 43.2594 46.6459C43.567 46.4313 43.62 46.4313 43.8746 46.6887Z" fill="white"/>
<path d="M11.9222 32.3587C11.2009 32.5517 10.5114 33.131 10.1825 33.7853C9.78996 34.579 9.75816 35.0403 10.034 35.7804C10.3204 36.5419 10.6492 36.9495 11.2963 37.3357C11.7101 37.5824 11.901 37.6252 12.6223 37.6252H13.4604L14.797 38.9875C15.529 39.7276 16.2397 40.3926 16.367 40.457C16.5155 40.5321 17.396 40.575 18.775 40.575H20.9603L21.5756 41.1971C22.2439 41.8728 22.7107 42.0766 23.5805 42.0766C24.27 42.0766 25.0975 41.6583 25.6067 41.0469L25.9886 40.575H29.4044H32.8202L33.0111 40.8646C33.2127 41.1864 33.7961 41.7549 33.9341 41.7549C33.9765 41.7549 34.0083 42.7953 34.0083 44.061V46.3564L33.637 46.6568C32.0246 47.9439 32.2368 50.3359 34.0295 51.2368C35.3873 51.9234 36.968 51.3227 37.7105 49.8317C38.1985 48.8449 37.8696 47.5255 36.9362 46.7318L36.4481 46.3242V44.061V41.7978L36.9043 41.476C37.7954 40.8324 38.1773 39.4487 37.7317 38.4083C36.9043 36.4561 34.3689 36.0807 33.1597 37.7433L32.8945 38.0972L29.4256 38.1079H25.9461L25.3945 37.5287C24.7793 36.8959 24.3549 36.7136 23.4532 36.7136C22.7425 36.7136 21.9363 37.1104 21.4907 37.6682L21.1406 38.1079H19.2737H17.4066L16.261 36.9602L15.1153 35.8233L15.1895 35.362C15.3486 34.268 14.7227 33.0881 13.7256 32.5947C12.9936 32.2514 12.5375 32.1871 11.9222 32.3587ZM12.9724 34.7613C13.0573 35.1261 12.8876 35.362 12.4951 35.4049C12.1238 35.4479 11.8798 35.1368 11.9965 34.7721C12.145 34.3109 12.8558 34.3001 12.9724 34.7613ZM23.8457 39.0411C24.0791 39.2557 24.0897 39.4809 23.8563 39.7384C23.5062 40.1352 22.9759 39.8777 22.9759 39.32C22.9759 38.8802 23.485 38.7086 23.8457 39.0411ZM35.5571 39.0411C35.7692 39.3308 35.7374 39.6954 35.4828 39.8242C35.154 40.0065 34.7615 39.867 34.6872 39.5452C34.5599 39.0197 35.2389 38.6228 35.5571 39.0411ZM35.504 48.4051C35.7374 48.5338 35.7798 49.0379 35.5783 49.2418C35.2813 49.5421 34.6448 49.2632 34.6448 48.8342C34.6448 48.5982 34.9206 48.2979 35.1327 48.2979C35.2282 48.2979 35.3873 48.3515 35.504 48.4051Z" fill="white"/>
</g>
</g>
<defs>
<linearGradient id="paint0_linear_1088_4793" x1="8.60721e-07" y1="29.0377" x2="57.1918" y2="29.0377" gradientUnits="userSpaceOnUse">
<stop stop-color="#00C99F"/>
<stop offset="1" stop-color="#009ACB"/>
</linearGradient>
<clipPath id="clip0_1088_4793">
<rect width="167" height="57" fill="white"/>
</clipPath>
</defs>
</svg>
