<svg width="25" height="24" viewBox="0 0 25 24" fill="none" xmlns="http://www.w3.org/2000/svg">
<g id="basil:viber-outline">
<path id="Vector" d="M13.0449 6.64394C12.9123 6.64394 12.7851 6.69662 12.6914 6.79039C12.5976 6.88416 12.5449 7.01134 12.5449 7.14394C12.5449 7.27655 12.5976 7.40373 12.6914 7.4975C12.7851 7.59127 12.9123 7.64394 13.0449 7.64394H13.0619C13.9739 7.70894 14.6379 8.01294 15.1029 8.51194C15.5799 9.02594 15.8269 9.66494 15.8079 10.4549C15.8049 10.5876 15.8546 10.7159 15.9462 10.8119C16.0378 10.9078 16.1638 10.9634 16.2964 10.9664C16.429 10.9695 16.5574 10.9197 16.6533 10.8281C16.7493 10.7365 16.8049 10.6106 16.8079 10.4779C16.8319 9.44094 16.4979 8.54594 15.8359 7.83194V7.82994C15.1589 7.10394 14.2299 6.71994 13.1119 6.64494L13.0949 6.64294L13.0449 6.64394Z" fill="#05003E"/>
<path id="Vector_2" d="M13.0259 8.31895C12.959 8.31305 12.8915 8.32069 12.8277 8.34141C12.7638 8.36214 12.7047 8.39553 12.654 8.43959C12.6033 8.48365 12.562 8.53747 12.5325 8.59785C12.5031 8.65823 12.4861 8.72392 12.4826 8.791C12.4791 8.85808 12.4892 8.92518 12.5122 8.98829C12.5352 9.0514 12.5707 9.10923 12.6165 9.15832C12.6624 9.20741 12.7177 9.24675 12.7791 9.27401C12.8405 9.30127 12.9067 9.31587 12.9739 9.31695C13.3919 9.33895 13.6589 9.46495 13.8269 9.63395C13.9959 9.80395 14.1219 10.077 14.1449 10.504C14.1461 10.5711 14.1609 10.6372 14.1882 10.6985C14.2156 10.7598 14.255 10.8149 14.3041 10.8606C14.3533 10.9064 14.4111 10.9417 14.4742 10.9646C14.5372 10.9875 14.6043 10.9975 14.6713 10.994C14.7383 10.9904 14.8039 10.9734 14.8642 10.9439C14.9245 10.9145 14.9783 10.8732 15.0223 10.8225C15.0663 10.7718 15.0997 10.7128 15.1204 10.649C15.1411 10.5852 15.1487 10.5178 15.1429 10.451C15.1109 9.85095 14.9229 9.32095 14.5379 8.93095C14.1509 8.54095 13.6239 8.35095 13.0259 8.31895Z" fill="#05003E"/>
<path id="Vector_3" fill-rule="evenodd" clip-rule="evenodd" d="M7.56681 2.38406C10.7489 1.67276 14.0487 1.67276 17.2308 2.38406L17.5698 2.45906C18.5 2.66701 19.3543 3.12879 20.0379 3.79308C20.7214 4.45738 21.2074 5.29818 21.4418 6.22206C22.2495 9.40495 22.2495 12.7392 21.4418 15.9221C21.2074 16.8459 20.7214 17.6867 20.0379 18.351C19.3543 19.0153 18.5 19.4771 17.5698 19.6851L17.2298 19.7601C15.2368 20.2057 13.1918 20.3737 11.1528 20.2591L8.49981 22.6331C8.39979 22.7226 8.27757 22.7837 8.1459 22.8099C8.01423 22.8361 7.87794 22.8265 7.75126 22.782C7.62457 22.7376 7.51214 22.6599 7.4257 22.5572C7.33925 22.4545 7.28196 22.3305 7.25981 22.1981L6.82081 19.5761C5.97899 19.3141 5.21842 18.8407 4.61178 18.2009C4.00514 17.5612 3.57271 16.7766 3.35581 15.9221C2.54806 12.7392 2.54806 9.40494 3.35581 6.22206C3.59023 5.29818 4.07621 4.45738 4.75974 3.79308C5.44328 3.12879 6.29761 2.66701 7.22781 2.45906L7.56681 2.38406ZM16.9038 3.84706C13.9371 3.18386 10.8605 3.18386 7.89381 3.84706L7.55381 3.92306C6.89453 4.07071 6.28908 4.39821 5.80468 4.86919C5.32029 5.34016 4.97592 5.93618 4.80981 6.59106C4.06352 9.53178 4.06352 12.6123 4.80981 15.5531C4.976 16.2081 5.32052 16.8042 5.8051 17.2752C6.28968 17.7461 6.89535 18.0736 7.55481 18.2211L7.64481 18.2411C7.7904 18.2736 7.92298 18.3489 8.02558 18.4572C8.12819 18.5655 8.19616 18.7019 8.22081 18.8491L8.51481 20.6071L10.3868 18.9321C10.4616 18.865 10.549 18.8136 10.644 18.7809C10.739 18.7483 10.8396 18.7351 10.9398 18.7421C12.9389 18.8839 14.9479 18.734 16.9038 18.2971L17.2428 18.2211C17.9023 18.0736 18.5079 17.7461 18.9925 17.2752C19.4771 16.8042 19.8216 16.2081 19.9878 15.5531C20.7338 12.6131 20.7338 9.53206 19.9878 6.59106C19.8216 5.93606 19.4771 5.33995 18.9925 4.86896C18.5079 4.39798 17.9023 4.07055 17.2428 3.92306L16.9038 3.84706Z" fill="#05003E"/>
<path id="Vector_4" d="M8.46485 6.202C8.279 6.17495 8.08948 6.21236 7.92785 6.308H7.91385C7.53885 6.528 7.20085 6.805 6.91285 7.131C6.67285 7.408 6.54285 7.688 6.50885 7.958C6.48885 8.118 6.50285 8.28 6.54985 8.433L6.56785 8.443C6.83785 9.236 7.18985 9.999 7.61985 10.717C8.1743 11.7255 8.8566 12.6582 9.64985 13.492L9.67385 13.526L9.71185 13.554L9.73485 13.581L9.76285 13.605C10.5996 14.4006 11.5345 15.0862 12.5448 15.645C13.6998 16.274 14.4008 16.571 14.8218 16.695V16.701C14.9448 16.739 15.0568 16.756 15.1698 16.756C15.5284 16.7295 15.8678 16.5838 16.1338 16.342C16.4588 16.054 16.7338 15.715 16.9478 15.338V15.331C17.1488 14.951 17.0808 14.593 16.7908 14.35C16.2083 13.841 15.5785 13.389 14.9098 13C14.4618 12.757 14.0068 12.904 13.8228 13.15L13.4298 13.646C13.2278 13.892 12.8618 13.858 12.8618 13.858L12.8518 13.864C10.1208 13.167 9.39185 10.402 9.39185 10.402C9.39185 10.402 9.35785 10.026 9.61085 9.834L10.1028 9.438C10.3388 9.246 10.5028 8.792 10.2498 8.344C9.86345 7.67476 9.41229 7.04508 8.90285 6.464C8.79174 6.32725 8.63591 6.23411 8.46285 6.201L8.46485 6.202ZM13.0798 5C12.9472 5 12.8201 5.05268 12.7263 5.14645C12.6325 5.24021 12.5798 5.36739 12.5798 5.5C12.5798 5.63261 12.6325 5.75979 12.7263 5.85355C12.8201 5.94732 12.9472 6 13.0798 6C14.3438 6 15.3938 6.413 16.2248 7.205C16.6518 7.638 16.9848 8.151 17.2028 8.713C17.4218 9.276 17.5218 9.877 17.4958 10.479C17.4903 10.6116 17.5376 10.741 17.6274 10.8387C17.7173 10.9364 17.8422 10.9944 17.9748 11C18.1075 11.0056 18.2368 10.9582 18.3346 10.8684C18.4323 10.7786 18.4903 10.6536 18.4958 10.521C18.5269 9.78049 18.4039 9.04159 18.1348 8.351C17.8646 7.65714 17.4548 7.02612 16.9308 6.497L16.9208 6.487C15.8898 5.502 14.5858 5 13.0798 5Z" fill="#05003E"/>
</g>
</svg>
