<svg width="25" height="24" viewBox="0 0 25 24" fill="none" xmlns="http://www.w3.org/2000/svg">
<g id="bxl:whatsapp">
<path id="Vector" fill-rule="evenodd" clip-rule="evenodd" d="M18.903 5.63303C18.0714 4.79591 17.0819 4.13214 15.9919 3.68018C14.9019 3.22821 13.733 2.99703 12.553 3.00003C7.605 3.00003 3.577 7.02703 3.575 11.977C3.575 13.559 3.988 15.103 4.773 16.465L3.5 21.116L8.259 19.867C9.57539 20.5836 11.0502 20.9594 12.549 20.96H12.553C17.5 20.96 21.528 16.933 21.53 11.983C21.5334 10.8035 21.303 9.63502 20.8521 8.54509C20.4012 7.45516 19.7387 6.4654 18.903 5.63303ZM12.553 19.445H12.55C11.2135 19.4452 9.90163 19.0856 8.752 18.404L8.48 18.242L5.656 18.983L6.409 16.23L6.232 15.948C5.48479 14.7585 5.08923 13.3818 5.091 11.977C5.093 7.86303 8.44 4.51603 12.556 4.51603C13.5363 4.51385 14.5072 4.70611 15.4127 5.08168C16.3181 5.45725 17.1401 6.00867 17.831 6.70403C18.5256 7.39607 19.0762 8.21892 19.4509 9.12503C19.8256 10.0311 20.017 11.0025 20.014 11.983C20.012 16.097 16.665 19.445 12.553 19.445ZM16.646 13.856C16.421 13.743 15.319 13.201 15.113 13.126C14.908 13.051 14.759 13.014 14.609 13.238C14.459 13.462 14.029 13.967 13.898 14.117C13.767 14.267 13.636 14.285 13.412 14.173C13.188 14.061 12.465 13.824 11.608 13.06C10.941 12.465 10.491 11.731 10.36 11.506C10.229 11.281 10.346 11.16 10.459 11.048C10.56 10.948 10.683 10.786 10.795 10.655C10.907 10.524 10.944 10.431 11.019 10.281C11.094 10.131 11.057 10 11 9.88803C10.944 9.77503 10.495 8.67103 10.308 8.22203C10.127 7.78703 9.942 7.84503 9.804 7.83903C9.66108 7.83318 9.51804 7.83052 9.375 7.83103C9.26126 7.83393 9.14934 7.86029 9.04626 7.90848C8.94318 7.95666 8.85117 8.02562 8.776 8.11103C8.57 8.33603 7.991 8.87803 7.991 9.98203C7.991 11.086 8.795 12.153 8.907 12.303C9.019 12.453 10.489 14.718 12.739 15.69C13.275 15.921 13.693 16.059 14.018 16.163C14.555 16.334 15.044 16.309 15.431 16.252C15.862 16.188 16.758 15.71 16.945 15.186C17.132 14.662 17.132 14.213 17.076 14.119C17.02 14.025 16.869 13.968 16.646 13.856Z" fill="#05003E"/>
</g>
</svg>
