<svg width="72" height="31" viewBox="0 0 72 31" fill="none" xmlns="http://www.w3.org/2000/svg">
<path d="M2.53094 13.712H11.4109V15.224H2.53094V13.712ZM2.72294 21.464H12.8269V23H0.946938V6.2H12.4669V7.736H2.72294V21.464ZM17.0016 23V6.2H18.4656L30.0576 20.792H29.2896V6.2H31.0416V23H29.5776L18.0096 8.408H18.7776V23H17.0016Z" fill="#05003E"/>
<line x1="42.5" y1="5.5" x2="42.5" y2="22.5" stroke="#05003E" stroke-linecap="round"/>
<rect x="53" y="6" width="18" height="16" fill="#2162B4"/>
<path d="M53.5325 8.00817L53.5325 8.08757L53.5924 8.13978L68.9371 21.5054L68.9865 21.5485L69.0522 21.5485L70.3019 21.5485L70.4772 21.5485L70.4772 21.3736L70.4772 19.9929L70.4772 19.9134L70.4171 19.8612L55.0444 6.50775L54.9949 6.46482L54.9294 6.46482L53.7078 6.46482L53.5325 6.46482L53.5325 6.63975L53.5325 8.00817Z" fill="white" stroke="white" stroke-width="0.35"/>
<path d="M70.4677 8.00817L70.4677 8.08757L70.4078 8.13978L55.0632 21.5054L55.0137 21.5485L54.948 21.5485L53.6983 21.5485L53.523 21.5485L53.523 21.3736L53.523 19.9929L53.523 19.9134L53.5831 19.8612L68.9559 6.50775L69.0053 6.46482L69.0708 6.46482L70.2924 6.46482L70.4677 6.46482L70.4677 6.63975L70.4677 8.00817Z" fill="white" stroke="white" stroke-width="0.35"/>
<path d="M70.3025 6.6281L69.0561 6.6281L61.9929 12.8223L61.9929 13.9662L70.3025 6.6281Z" fill="#CF0032"/>
<path d="M61.9928 13.9627L60.7464 13.9627L53.6832 7.76854L53.6832 6.6246L61.9928 13.9627Z" fill="#CF0032"/>
<path d="M61.9927 14.0368L63.2391 14.0368L70.3023 20.231L70.3023 21.3749L61.9927 14.0368Z" fill="#CF0032"/>
<path d="M53.6734 21.3751L54.9198 21.3751L61.9829 15.1809L61.9829 14.037L53.6734 21.3751Z" fill="#CF0032"/>
<rect x="53.264" y="15.6692" width="3.33769" height="17.4565" transform="rotate(-90 53.264 15.6692)" fill="#CF0032" stroke="white" stroke-width="0.35"/>
<rect x="60.5056" y="6.175" width="2.97384" height="15.65" fill="#CF0032" stroke="white" stroke-width="0.35"/>
</svg>
