<svg width="59" height="18" viewBox="0 0 59 18" fill="none" xmlns="http://www.w3.org/2000/svg">
<path d="M7.57431 17.144C5.43031 17.144 3.74231 16.528 2.51031 15.296C1.27831 14.064 0.662313 12.24 0.662313 9.824V0.199999H2.43831V9.752C2.43831 11.736 2.88631 13.2 3.78231 14.144C4.67831 15.088 5.94231 15.56 7.57431 15.56C9.22231 15.56 10.4943 15.088 11.3903 14.144C12.2863 13.2 12.7343 11.736 12.7343 9.752V0.199999H14.4623V9.824C14.4623 12.24 13.8463 14.064 12.6143 15.296C11.3983 16.528 9.71831 17.144 7.57431 17.144ZM16.7746 17L24.4546 0.199999H26.2066L33.8866 17H32.0146L24.9586 1.232H25.6786L18.6226 17H16.7746ZM19.7986 12.512L20.3266 11.072H30.0946L30.6226 12.512H19.7986Z" fill="#05003E"/>
<path d="M39 1C39 0.447715 39.4477 0 40 0H58C58.5523 0 59 0.447715 59 1V8H39V1Z" fill="#2162B4"/>
<path d="M39 8H59V15C59 15.5523 58.5523 16 58 16H40C39.4477 16 39 15.5523 39 15V8Z" fill="#FDD817"/>
</svg>
