<svg width="58" height="17" viewBox="0 0 58 17" fill="none" xmlns="http://www.w3.org/2000/svg">
<path d="M2.53094 7.712H11.4109V9.224H2.53094V7.712ZM2.72294 15.464H12.8269V17H0.946938V0.199999H12.4669V1.736H2.72294V15.464ZM17.0016 17V0.199999H18.4656L30.0576 14.792H29.2896V0.199999H31.0416V17H29.5776L18.0096 2.408H18.7776V17H17.0016Z" fill="#05003E"/>
<rect x="40" width="18" height="16" fill="#2162B4"/>
<path d="M40.5325 2.00817L40.5325 2.08757L40.5924 2.13978L55.9371 15.5054L55.9865 15.5485L56.0522 15.5485L57.3019 15.5485L57.4772 15.5485L57.4772 15.3736L57.4772 13.9929L57.4772 13.9134L57.4171 13.8612L42.0444 0.507748L41.9949 0.464822L41.9294 0.464822L40.7078 0.464822L40.5325 0.464822L40.5325 0.639754L40.5325 2.00817Z" fill="white" stroke="white" stroke-width="0.35"/>
<path d="M57.4677 2.00817L57.4677 2.08757L57.4078 2.13978L42.0632 15.5054L42.0137 15.5485L41.948 15.5485L40.6983 15.5485L40.523 15.5485L40.523 15.3736L40.523 13.9929L40.523 13.9134L40.5831 13.8612L55.9559 0.507748L56.0053 0.464822L56.0708 0.464822L57.2924 0.464822L57.4677 0.464822L57.4677 0.639754L57.4677 2.00817Z" fill="white" stroke="white" stroke-width="0.35"/>
<path d="M57.3025 0.628103L56.0561 0.628102L48.9929 6.82228L48.9929 7.96622L57.3025 0.628103Z" fill="#CF0032"/>
<path d="M48.9928 7.96272L47.7464 7.96272L40.6832 1.76854L40.6832 0.624598L48.9928 7.96272Z" fill="#CF0032"/>
<path d="M48.9927 8.03679L50.2391 8.03679L57.3023 14.231L57.3023 15.3749L48.9927 8.03679Z" fill="#CF0032"/>
<path d="M40.6734 15.3751L41.9198 15.3751L48.9829 9.1809L48.9829 8.03695L40.6734 15.3751Z" fill="#CF0032"/>
<rect x="40.264" y="9.66924" width="3.33769" height="17.4565" transform="rotate(-90 40.264 9.66924)" fill="#CF0032" stroke="white" stroke-width="0.35"/>
<rect x="47.5056" y="0.175" width="2.97384" height="15.65" fill="#CF0032" stroke="white" stroke-width="0.35"/>
</svg>
