<svg width="72" height="31" viewBox="0 0 72 31" fill="none" xmlns="http://www.w3.org/2000/svg">
<path d="M7.57431 23.144C5.43031 23.144 3.74231 22.528 2.51031 21.296C1.27831 20.064 0.662313 18.24 0.662313 15.824V6.2H2.43831V15.752C2.43831 17.736 2.88631 19.2 3.78231 20.144C4.67831 21.088 5.94231 21.56 7.57431 21.56C9.22231 21.56 10.4943 21.088 11.3903 20.144C12.2863 19.2 12.7343 17.736 12.7343 15.752V6.2H14.4623V15.824C14.4623 18.24 13.8463 20.064 12.6143 21.296C11.3983 22.528 9.71831 23.144 7.57431 23.144ZM16.7746 23L24.4546 6.2H26.2066L33.8866 23H32.0146L24.9586 7.232H25.6786L18.6226 23H16.7746ZM19.7986 18.512L20.3266 17.072H30.0946L30.6226 18.512H19.7986Z" fill="#05003E"/>
<line x1="42.5" y1="5.5" x2="42.5" y2="22.5" stroke="#05003E" stroke-linecap="round"/>
<path d="M52 7C52 6.44772 52.4477 6 53 6H71C71.5523 6 72 6.44772 72 7V14H52V7Z" fill="#2162B4"/>
<path d="M52 14H72V21C72 21.5523 71.5523 22 71 22H53C52.4477 22 52 21.5523 52 21V14Z" fill="#FDD817"/>
</svg>
