<svg width="25" height="24" viewBox="0 0 25 24" fill="none" xmlns="http://www.w3.org/2000/svg">
<g id="&#208;&#134;&#208;&#189;&#209;&#129;&#209;&#130;&#208;&#176;&#208;&#179;&#209;&#128;&#208;&#176;&#208;&#188;">
<path id="Vector" d="M13.6157 2C14.7497 2.00302 15.3252 2.00907 15.8221 2.02318L16.0177 2.03024C16.2435 2.0383 16.4662 2.04838 16.7353 2.06048C17.8078 2.11088 18.5396 2.28022 19.1816 2.52919C19.8469 2.78521 20.4073 3.13196 20.9677 3.69138C21.4803 4.19527 21.8768 4.80478 22.1299 5.47752C22.3789 6.1196 22.5482 6.85139 22.5986 7.92489C22.6107 8.19301 22.6208 8.41577 22.6288 8.64256L22.6349 8.83811C22.65 9.33404 22.656 9.90959 22.6581 11.0436L22.6591 11.7955V13.116C22.6615 13.8512 22.6538 14.5864 22.6359 15.3214L22.6298 15.517C22.6218 15.7438 22.6117 15.9665 22.5996 16.2346C22.5492 17.3081 22.3778 18.0389 22.1299 18.682C21.8776 19.3551 21.4809 19.9648 20.9677 20.4681C20.4637 20.9805 19.8543 21.3771 19.1816 21.6303C18.5396 21.8793 17.8078 22.0487 16.7353 22.0991C16.4962 22.1103 16.257 22.1204 16.0177 22.1293L15.8221 22.1353C15.3252 22.1494 14.7497 22.1565 13.6157 22.1585L12.8638 22.1595H11.5444C10.8089 22.1621 10.0733 22.1543 9.33802 22.1363L9.14247 22.1303C8.9032 22.1212 8.66397 22.1108 8.42481 22.0991C7.35236 22.0487 6.62059 21.8793 5.97751 21.6303C5.30488 21.3777 4.69562 20.9811 4.19244 20.4681C3.67944 19.9644 3.28249 19.3549 3.02927 18.682C2.7803 18.0399 2.61097 17.3081 2.56057 16.2346C2.54934 15.9955 2.53926 15.7562 2.53033 15.517L2.52529 15.3214C2.50672 14.5864 2.49832 13.8512 2.50009 13.116V11.0436C2.49728 10.3083 2.50467 9.57313 2.52227 8.83811L2.52932 8.64256C2.53739 8.41577 2.54747 8.19301 2.55956 7.92489C2.60996 6.85139 2.77929 6.12061 3.02826 5.47752C3.28137 4.80409 3.67911 4.19439 4.19345 3.69138C4.69651 3.1788 5.30536 2.78218 5.97751 2.52919C6.62059 2.28022 7.35135 2.11088 8.42481 2.06048C8.69293 2.04838 8.91669 2.0383 9.14247 2.03024L9.33802 2.02419C10.073 2.00628 10.8082 1.99855 11.5434 2.00101L13.6157 2ZM12.5796 7.03988C11.243 7.03988 9.96108 7.57087 9.01594 8.51603C8.07081 9.46119 7.53984 10.7431 7.53984 12.0798C7.53984 13.4164 8.07081 14.6983 9.01594 15.6435C9.96108 16.5887 11.243 17.1196 12.5796 17.1196C13.9162 17.1196 15.1981 16.5887 16.1432 15.6435C17.0883 14.6983 17.6193 13.4164 17.6193 12.0798C17.6193 10.7431 17.0883 9.46119 16.1432 8.51603C15.1981 7.57087 13.9162 7.03988 12.5796 7.03988ZM12.5796 9.05583C12.9767 9.05577 13.3699 9.13392 13.7368 9.28583C14.1037 9.43773 14.4371 9.66042 14.7179 9.94117C14.9987 10.2219 15.2215 10.5552 15.3736 10.9221C15.5256 11.2889 15.6039 11.6822 15.6039 12.0793C15.604 12.4764 15.5258 12.8696 15.3739 13.2365C15.222 13.6034 14.9994 13.9368 14.7186 14.2176C14.4379 14.4985 14.1046 14.7213 13.7377 14.8733C13.3709 15.0253 12.9777 15.1036 12.5806 15.1037C11.7786 15.1037 11.0095 14.7851 10.4424 14.218C9.87532 13.6509 9.55674 12.8818 9.55674 12.0798C9.55674 11.2778 9.87532 10.5086 10.4424 9.94152C11.0095 9.37443 11.7786 9.05583 12.5806 9.05583M17.8723 5.52792C17.5382 5.52792 17.2177 5.66066 16.9814 5.89695C16.7451 6.13324 16.6124 6.45372 16.6124 6.78789C16.6124 7.12205 16.7451 7.44253 16.9814 7.67882C17.2177 7.91511 17.5382 8.04786 17.8723 8.04786C18.2065 8.04786 18.5269 7.91511 18.7632 7.67882C18.9995 7.44253 19.1322 7.12205 19.1322 6.78789C19.1322 6.45372 18.9995 6.13324 18.7632 5.89695C18.5269 5.66066 18.2065 5.52792 17.8723 5.52792Z" fill="#05003E"/>
</g>
</svg>
