<svg width="25" height="24" viewBox="0 0 25 24" fill="none" xmlns="http://www.w3.org/2000/svg">
<g id="ph:telegram-logo">
<path id="Vector" d="M22.7076 2.45526C22.5914 2.35492 22.45 2.28819 22.2987 2.26225C22.1474 2.23631 21.9919 2.25216 21.8489 2.30807L2.84949 9.74339C2.58023 9.84809 2.35226 10.0374 2.19992 10.2829C2.04758 10.5284 1.9791 10.8167 2.0048 11.1045C2.0305 11.3922 2.14898 11.6638 2.34241 11.8784C2.53584 12.093 2.79375 12.239 3.0773 12.2943L8.00011 13.2609V18.75C7.99915 19.0489 8.088 19.3413 8.25515 19.5892C8.42231 19.8371 8.66007 20.0291 8.93761 20.1403C9.21473 20.2534 9.51949 20.2806 9.81225 20.2182C10.105 20.1559 10.3722 20.0068 10.5792 19.7906L12.9529 17.3287L16.7189 20.625C16.9906 20.866 17.341 20.9993 17.7042 21C17.8633 20.9998 18.0215 20.9748 18.1729 20.9259C18.4204 20.8474 18.6429 20.7054 18.8184 20.5141C18.994 20.3228 19.1163 20.0889 19.1732 19.8356L22.9786 3.2812C23.0126 3.1319 23.0054 2.97616 22.9576 2.83066C22.9099 2.68516 22.8235 2.55539 22.7076 2.45526ZM16.9757 5.83026L8.57668 11.8453L3.92668 10.9331L16.9757 5.83026ZM9.50011 18.75V14.2987L11.8242 16.3368L9.50011 18.75ZM17.7061 19.5L9.9548 12.7031L21.1111 4.70714L17.7061 19.5Z" fill="#05003E"/>
</g>
</svg>
