<svg width="100" height="100" viewBox="0 0 100 100" fill="none" xmlns="http://www.w3.org/2000/svg">
<g id="&#208;&#155;&#208;&#176;&#209;&#129;&#209;&#130;&#209;&#150;&#208;&#178;&#208;&#186;&#208;&#176;" clip-path="url(#clip0_454_4508)">
<path id="depositphotos_23550031-stock-illustration-bird-swallow-set 1 (Traced)" d="M19.5887 19.4941C17.0046 19.3428 16.3457 19.2139 17.1414 19.016C19.1331 18.5207 29.3723 18.1503 35.4957 18.3525C47.6773 18.7543 59.8347 20.1337 64.7967 21.6774C67.6397 22.5616 71.0487 24.8353 73.4581 27.4537C74.1583 28.215 75.424 29.461 76.2707 30.2233L77.8097 31.6084L78.0915 30.0063C78.3136 28.7452 78.6415 28.2497 79.6345 27.678C81.5798 26.5577 83.7369 26.606 85.5266 27.8105C86.7983 28.666 87.2766 28.785 88.6944 28.5979L90.3643 28.3777L89.6289 28.8314L90.2895 28.7443L87.5621 30.2576C87.2328 30.5634 87.0232 30.8386 87.0173 31.0035C87.0059 31.3195 86.4497 32.166 85.7817 32.8844C84.4517 34.3146 84.4845 33.7649 85.286 41.1797C85.9155 47.0049 84.585 53.053 81.672 57.6094C80.0668 60.1205 70.2336 72.0875 66.1692 76.4763C64.6543 78.112 62.236 80.3841 60.7945 81.5256C58.0301 83.715 57.924 83.5877 60.3985 81.0505C63.2336 78.1438 67.1365 73.1147 68.5769 70.5132C71.5321 65.1741 72.7149 59.8148 72.323 53.5407C72.1853 51.3333 71.8856 49.3969 71.657 49.2377C71.3943 49.0548 70.5941 49.2141 69.4815 49.6712C66.2814 50.9854 60.4705 52.3897 55.7484 52.9894C50.5802 53.6461 50.0472 53.8276 42.1671 57.6134C39.2957 58.993 33.9687 61.3319 30.3293 62.8111C26.6898 64.2903 22.402 66.0936 20.8008 66.8187C19.1996 67.5439 17.8221 68.0903 17.74 68.033C17.6578 67.9758 22.0305 65.3865 27.4574 62.2791C32.8843 59.1714 39.3751 55.4522 41.8812 54.0142C44.3877 52.5762 46.355 51.3414 46.2532 51.2704C46.1514 51.1995 43.9976 51.3933 41.4669 51.7012C32.282 52.8188 20.8601 52.9717 14.2835 52.065L11.2177 51.6424L17.7345 51.1007C31.0378 49.9945 45.4316 47.8502 51.917 46.0077C56.5307 44.6971 64.7209 40.4266 64.7612 39.3101C64.7968 38.3222 61.5053 33.5512 59.5773 31.7963C56.5748 29.0631 52.1342 26.3084 49.2244 25.3741C42.0588 23.0729 25.8799 19.8628 19.5887 19.4941Z" fill="#05003E"/>
<g id="&#208;&#154;&#208;&#176;&#208;&#187;&#208;&#184;&#208;&#189;&#208;&#176;">
<path id="Vector 89" d="M84.5507 26.3092L91.5015 30.2344M91.5015 30.2344L93.7599 30.4151M91.5015 30.2344L89.4244 32.226M93.7599 30.4151L96.5819 32.7508M93.7599 30.4151L94.8064 34.433M93.7599 30.4151L91.5015 34.4789" stroke="#002404" stroke-width="0.5" stroke-linecap="round" stroke-linejoin="round"/>
<ellipse id="Ellipse 19" cx="1.54635" cy="1.69019" rx="1.54635" ry="1.69019" transform="matrix(-0.72242 0.691454 0.691454 0.72242 97.199 30.9515)" fill="#BE0909"/>
<ellipse id="Ellipse 16" cx="1.54635" cy="1.69019" rx="1.54635" ry="1.69019" transform="matrix(-0.973188 0.23001 0.23001 0.973188 90.0485 30.4493)" fill="#8F0000"/>
<ellipse id="Ellipse 13" cx="1.54635" cy="1.69019" rx="1.54635" ry="1.69019" transform="matrix(-0.973188 0.23001 0.23001 0.973188 96.0353 33.442)" fill="#A80000"/>
<ellipse id="Ellipse 14" cx="1.54635" cy="1.69019" rx="1.54635" ry="1.69019" transform="matrix(-0.973188 0.23001 0.23001 0.973188 92.7523 32.8643)" fill="#A80000"/>
<ellipse id="Ellipse 22" cx="0.154082" cy="0.169343" rx="0.154082" ry="0.169343" transform="matrix(-0.973188 0.23001 0.23001 0.973188 98.303 33.7075)" fill="#4B0000"/>
<ellipse id="Ellipse 23" cx="0.154082" cy="0.169343" rx="0.154082" ry="0.169343" transform="matrix(-0.973188 0.23001 0.23001 0.973188 95.4554 36.3665)" fill="#4B0000"/>
<ellipse id="Ellipse 24" cx="0.154082" cy="0.169343" rx="0.154082" ry="0.169343" transform="matrix(-0.973188 0.23001 0.23001 0.973188 91.6191 35.6962)" fill="#4B0000"/>
<ellipse id="Ellipse 25" cx="0.154082" cy="0.169343" rx="0.154082" ry="0.169343" transform="matrix(-0.973188 0.23001 0.23001 0.973188 88.3743 32.8274)" fill="#4B0000"/>
</g>
<path id="depositphotos_23550031-stock-illustration-bird-swallow-set 1 (Traced)_2" d="M88.7024 29.3989L88.2203 29.701L88.0296 28.6852L90.3656 28.3729L88.7024 29.3989Z" fill="#05003E"/>
</g>
<defs>
<clipPath id="clip0_454_4508">
<rect width="100" height="100" fill="white"/>
</clipPath>
</defs>
</svg>
