<svg width="24" height="24" viewBox="0 0 24 24" fill="none" xmlns="http://www.w3.org/2000/svg">
<g clip-path="url(#clip0_314_2620)">
<path d="M4.70137 4.67851C4.0812 4.64221 3.92305 4.61126 4.11403 4.56379C4.59204 4.44492 7.04944 4.35602 8.51907 4.40453C11.4426 4.50097 14.3604 4.83203 15.5513 5.20251C16.2336 5.41472 17.0518 5.9604 17.63 6.58881C17.7981 6.77155 18.1019 7.07058 18.3051 7.25352L18.6744 7.58596L18.7421 7.20145C18.7953 6.89878 18.8741 6.77985 19.1124 6.64265C19.5792 6.37378 20.097 6.38537 20.5265 6.67445C20.8317 6.87977 20.9465 6.90834 21.2867 6.86344L21.6875 6.81059L21.511 6.91946L21.6696 6.89856L21.015 7.26177C20.936 7.33515 20.8857 7.40121 20.8842 7.44078C20.8815 7.51661 20.748 7.71977 20.5877 7.8922C20.2685 8.23545 20.2764 8.10351 20.4687 9.88306C20.6198 11.2811 20.3005 12.7327 19.6014 13.8262C19.2161 14.4289 16.8561 17.3009 15.8807 18.3542C15.5171 18.7468 14.9367 19.2921 14.5908 19.5661C13.9273 20.0915 13.9019 20.061 14.4957 19.4521C15.1762 18.7544 16.1129 17.5475 16.4586 16.9231C17.1678 15.6417 17.4517 14.3555 17.3576 12.8497C17.3246 12.3199 17.2526 11.8552 17.1978 11.817C17.1347 11.7731 16.9427 11.8113 16.6757 11.921C15.9076 12.2364 14.513 12.5735 13.3797 12.7174C12.1393 12.875 12.0114 12.9186 10.1202 13.8272C9.43106 14.1583 8.15257 14.7196 7.27911 15.0746C6.40565 15.4296 5.37656 15.8624 4.99227 16.0364C4.60798 16.2105 4.2774 16.3416 4.25768 16.3279C4.23796 16.3141 5.2874 15.6927 6.58986 14.9469C7.89233 14.2011 9.45012 13.3085 10.0516 12.9633C10.6531 12.6182 11.1253 12.3219 11.1009 12.3048C11.0764 12.2878 10.5595 12.3343 9.95213 12.4082C7.74776 12.6764 5.00651 12.7131 3.42813 12.4955L2.69234 12.3941L4.25638 12.2641C7.44917 11.9986 10.9037 11.484 12.4602 11.0418C13.5675 10.7272 15.5331 9.70233 15.5428 9.43436C15.5513 9.19726 14.7614 8.05224 14.2987 7.63106C13.578 6.97508 12.5123 6.31396 11.814 6.08972C10.0942 5.53743 6.21128 4.76702 4.70137 4.67851Z" fill="#05003E"/>
<path d="M20.2919 6.31425L21.9601 7.2563M21.9601 7.2563L22.5021 7.29967M21.9601 7.2563L21.4616 7.73427M22.5021 7.29967L23.1794 7.86022M22.5021 7.29967L22.7533 8.26395M22.5021 7.29967L21.9601 8.27498" stroke="#002404" stroke-width="0.12" stroke-linecap="round" stroke-linejoin="round"/>
<ellipse cx="0.371124" cy="0.405645" rx="0.371124" ry="0.405645" transform="matrix(-0.72242 0.691454 0.691454 0.72242 23.3276 7.42834)" fill="#BE0909"/>
<ellipse cx="0.371124" cy="0.405645" rx="0.371124" ry="0.405645" transform="matrix(-0.973188 0.23001 0.23001 0.973188 21.6113 7.30786)" fill="#8F0000"/>
<ellipse cx="0.371124" cy="0.405645" rx="0.371124" ry="0.405645" transform="matrix(-0.973188 0.23001 0.23001 0.973188 23.0483 8.02612)" fill="#A80000"/>
<ellipse cx="0.371124" cy="0.405645" rx="0.371124" ry="0.405645" transform="matrix(-0.973188 0.23001 0.23001 0.973188 22.2603 7.88745)" fill="#A80000"/>
<ellipse cx="0.0369796" cy="0.0406423" rx="0.0369796" ry="0.0406423" transform="matrix(-0.973188 0.23001 0.23001 0.973188 23.5928 8.08984)" fill="#4B0000"/>
<ellipse cx="0.0369796" cy="0.0406423" rx="0.0369796" ry="0.0406423" transform="matrix(-0.973188 0.23001 0.23001 0.973188 22.9092 8.72803)" fill="#4B0000"/>
<ellipse cx="0.0369796" cy="0.0406423" rx="0.0369796" ry="0.0406423" transform="matrix(-0.973188 0.23001 0.23001 0.973188 21.9883 8.56714)" fill="#4B0000"/>
<ellipse cx="0.0369796" cy="0.0406423" rx="0.0369796" ry="0.0406423" transform="matrix(-0.973188 0.23001 0.23001 0.973188 21.2095 7.87866)" fill="#4B0000"/>
<path d="M21.2886 7.05571L21.1729 7.12823L21.1272 6.88443L21.6878 6.80949L21.2886 7.05571Z" fill="#05003E"/>
</g>
<defs>
<clipPath id="clip0_314_2620">
<rect width="24" height="24" fill="white"/>
</clipPath>
</defs>
</svg>
