<svg width="50" height="50" viewBox="0 0 50 50" fill="none" xmlns="http://www.w3.org/2000/svg">
<rect x="0.5" y="0.5" width="49" height="49" rx="24.5" stroke="white"/>
<path fill-rule="evenodd" clip-rule="evenodd" d="M23.7373 11.5944C24.4347 10.8971 25.5653 10.8971 26.2627 11.5944L36.977 22.3087C37.6743 23.0061 37.6743 24.1367 36.977 24.8341C36.2796 25.5315 35.149 25.5315 34.4516 24.8341L26.7857 17.1682V37.8571C26.7857 38.8433 25.9862 39.6428 25 39.6428C24.0138 39.6428 23.2143 38.8433 23.2143 37.8571V17.1682L15.5484 24.8341C14.851 25.5315 13.7204 25.5315 13.023 24.8341C12.3257 24.1367 12.3257 23.0061 13.023 22.3087L23.7373 11.5944Z" fill="white"/>
</svg>
