<svg width="31" height="21" viewBox="0 0 31 21" fill="none" xmlns="http://www.w3.org/2000/svg">
<path d="M21.2295 20.58L20.5295 16.87C21.7428 16.5433 22.8628 15.9367 23.8895 15.05C24.9628 14.21 25.4995 12.7867 25.4995 10.78H19.4795V0H30.3295V9.31C30.2828 12.7633 29.5128 15.4467 28.0195 17.36C26.5262 19.2733 24.2628 20.3467 21.2295 20.58Z" fill="white" fill-opacity="0.12"/>
<path d="M1.75 20.58L1.05 16.87C2.26333 16.5433 3.38333 15.9367 4.41 15.05C5.48333 14.21 6.02 12.7867 6.02 10.78H0V0H10.85V9.31C10.8033 12.7633 10.0333 15.4467 8.54 17.36C7.04667 19.2733 4.78333 20.3467 1.75 20.58Z" fill="white" fill-opacity="0.12"/>
</svg>
