
<svg width="964" height="466" viewBox="0 0 964 466" fill="none" xmlns="http://www.w3.org/2000/svg">
<path d="M-1 375.412L28.0301 361.271L248.258 269.695L581.603 254.881H639.664L709.736 200.339H832.864L870.903 163.978L887.921 156.264L962.998 122.23V219.193V318.85V355.211L887.921 339.671L808.839 318.85L639.664 332.275L630.654 332.99L458.476 294.609L367.916 308.421L223.955 323.468L59.9202 442.68L-1 455.003V422.951V404.366V375.412Z" fill="#FFE770"/>
<path d="M223.957 323.468L175.184 339.672L171.191 315.752L223.957 323.468Z" fill="#FDD817"/>
<path d="M231.413 299.996L248.26 269.695L367.918 308.422L231.413 299.996Z" fill="#FDD817"/>
<path d="M921.958 281.816L963 219.194V318.85L769.8 281.816L904.94 276.429L921.958 281.816Z" fill="#FDD817"/>
<path d="M-1 404.366L15.0166 409.753L-1 422.951V404.366Z" fill="#FACF0E"/>
<path d="M248.258 269.695L231.411 299.996L367.916 308.421L223.955 323.468L231.411 299.996L171.189 315.752L248.258 269.695L581.603 254.881L630.654 332.99L639.664 254.881L709.736 200.339H832.864L870.903 163.978L887.921 156.264L921.956 281.815L962.998 219.193V318.85V355.211L887.921 339.671L962.998 318.85L921.956 281.815L870.903 163.978L808.839 247.474L820.851 211.786L709.736 200.339L630.654 332.99L639.664 332.275L769.798 281.815L808.839 318.85L639.664 332.275L630.654 332.99L458.476 294.609L477.496 281.815L248.258 269.695Z" fill="#FACF0E"/>
<path d="M-1 375.412L28.0301 361.271L248.258 269.695L581.603 254.881H639.664L630.654 332.99L581.603 254.881L248.258 269.695L171.189 315.752L231.411 299.996L223.955 323.468L59.9202 442.68L175.182 339.671L223.955 323.468L171.189 315.752L28.0301 361.271L15.0166 409.753L-1 422.951V404.366V375.412Z" fill="#F2C709"/>
<path d="M832.864 200.339L870.903 163.978L887.921 156.264L962.998 122.23V219.193L921.956 281.815L887.921 156.264L870.903 163.978L808.839 247.474L820.851 211.786L709.736 200.339H832.864Z" fill="#F2C709"/>
<path d="M769.798 281.815L808.839 318.85L887.921 339.671L769.798 281.815Z" fill="#F2C709"/>
<path d="M725.127 264.24L709.736 202.347L805.309 247.474L725.127 264.24Z" fill="#F2C709"/>
<path d="M15.0181 409.754L28.0315 361.272L248.26 269.696L477.497 281.816L458.477 294.61L367.917 308.423L248.26 269.696L28.0315 361.272L171.19 315.753L175.184 339.672L28.0315 361.272L59.9217 442.682L15.0181 409.754Z" fill="#FFE14B"/>
<path d="M630.656 332.991L709.738 200.341L820.853 211.788L808.84 247.475L870.905 163.979L921.957 281.816L963 318.851L769.8 281.816L904.94 276.43L720.749 266.329L630.656 332.991Z" fill="#FFE14B"/>
<path d="M721.183 266.229L710.339 201.241L809.253 246.556L721.183 266.229Z" fill="#FACF0E"/>
<path d="M962.932 318.872L887.892 339.796L769.938 281.833L962.932 318.872Z" fill="#FBD72B"/>
<path d="M536.538 265.599L424.697 278.33L461.404 294.148L536.538 265.599Z" fill="#FDD817"/>
<path d="M0 273.382H47.0488L176.183 239.041L346.359 224.901L524.544 239.041L610.633 190.56L721.749 94.9432L756.785 88.2096L841.873 57.2353L913.948 4.71348H930.966L964 0V58.5819V102.35V122.551L888.922 156.584L871.905 164.299L833.865 200.66H710.737L640.665 255.202H582.604L249.259 270.016L29.0301 361.592L0 375.732V343.411V319.171V300.317V294.93V273.382Z" fill="#7BA9E5"/>
<path d="M57.0584 326.578L249.258 270.016L524.543 239.042L582.604 255.202L249.258 270.016L29.0293 361.593L57.0584 326.578Z" fill="#0E5198"/>
<path d="M631.654 215.474L640.664 255.202L710.737 200.661L682.707 170.36L631.654 215.474Z" fill="#0E5198"/>
<path d="M888.921 156.585L963.999 122.551V102.351L888.921 108.411V156.585Z" fill="#0E5198"/>
<path d="M57.0592 326.577L0 319.17V343.411L29.0301 361.592L57.0592 326.577Z" fill="#2162B4"/>
<path d="M710.737 200.66L682.708 170.359L871.905 164.299L828.86 126.591L888.922 108.41L938.974 48.4814L964 58.5817V102.35L888.922 108.41V156.584L871.905 164.299L833.865 200.66H710.737Z" fill="#2162B4"/>
<path d="M57.0592 326.578L0 319.171V300.317L176.183 239.041L249.259 270.016L57.0592 326.578Z" fill="#3A77C7"/>
<path d="M0 343.411L29.0301 361.592L0 375.733V343.411Z" fill="#3A77C7"/>
<path d="M582.604 255.202L524.544 239.041L610.633 190.56L682.708 170.359L828.86 126.591L872.827 74.1854L938.974 48.4816L930.966 4.71348L964 0V58.5819L938.974 48.4816L888.922 108.41L828.86 126.591L871.905 164.299L682.708 170.359L631.655 215.474L640.665 255.202H582.604Z" fill="#3A77C7"/>
<path d="M47.0488 273.383L0 294.93V273.383H47.0488Z" fill="#5A94DE"/>
<path d="M0 343.412L29.0301 361.592L249.259 270.016L346.359 224.901L524.544 239.042L249.259 270.016L29.0301 361.592L0 375.733V343.412Z" fill="#5A94DE"/>
<path d="M682.708 170.359L756.785 88.21L841.873 57.2356L913.948 4.71381H930.966L938.974 48.4819L872.827 74.1858L828.86 126.591L682.708 170.359Z" fill="#5A94DE"/>
<path d="M853.303 76.4499L913.948 4.71381L872.827 74.1858L853.303 76.4499L782.812 122.551L836.404 78.5747L756.785 88.2099L841.873 57.2356L836.404 78.5747L853.303 76.4499Z" fill="#7AA9E4"/>
<path d="M782.811 122.551L853.302 76.4496L836.403 78.5745L782.811 122.551Z" fill="#3B76C5"/>
</svg>
