
<svg width="188" height="107" viewBox="0 0 188 107" fill="none" xmlns="http://www.w3.org/2000/svg">
<path d="M45.7268 89.9404L43.6557 83.2538L46.5309 82.3632C47.2569 82.1384 47.8722 82.1083 48.3769 82.273C48.8816 82.4378 49.2207 82.8003 49.3943 83.3607C49.5639 83.9084 49.4967 84.3898 49.1926 84.8051C48.8865 85.2139 48.4119 85.518 47.7687 85.7172L47.8519 85.3774C48.5969 85.1466 49.2132 85.1197 49.7008 85.2967C50.1927 85.4654 50.5264 85.8331 50.702 86.3999C50.8795 86.973 50.8084 87.4871 50.4887 87.942C50.1734 88.3886 49.605 88.7392 48.7835 88.9936L45.7268 89.9404ZM46.4387 88.8929L48.5307 88.2449C49.0401 88.0871 49.3936 87.8764 49.5911 87.6128C49.7931 87.3409 49.8339 87.0107 49.7135 86.6223C49.5932 86.2338 49.3749 85.9909 49.0586 85.8934C48.7486 85.794 48.3389 85.8232 47.8295 85.981L45.7375 86.629L46.4387 88.8929ZM45.5127 85.903L47.3753 85.3261C47.8402 85.1821 48.1651 84.9802 48.3498 84.7206C48.541 84.459 48.5814 84.1499 48.4709 83.7933C48.3585 83.4303 48.1495 83.1949 47.8439 83.0872C47.5447 82.9775 47.1627 82.9946 46.6978 83.1386L44.8351 83.7155L45.5127 85.903ZM52.7102 87.7774L51.1421 82.7147L52.0591 82.4306L53.6272 87.4933L52.7102 87.7774ZM51.2988 81.5983C51.1205 81.6536 50.9531 81.6426 50.7966 81.5654C50.6464 81.4863 50.5457 81.364 50.4944 81.1984C50.4412 81.0265 50.4541 80.8654 50.5332 80.7153C50.6187 80.5632 50.7506 80.4595 50.9289 80.4043C51.1073 80.3491 51.2715 80.361 51.4216 80.4401C51.5761 80.5109 51.679 80.6291 51.7303 80.7947C51.7836 80.9666 51.7716 81.1308 51.6945 81.2873C51.6154 81.4375 51.4835 81.5411 51.2988 81.5983ZM55.4154 86.9395L53.8473 81.8768L54.7643 81.5927L55.43 83.742L58.3148 82.8485L57.6491 80.6992L58.5661 80.4152L60.1342 85.4779L59.2172 85.7619L58.5604 83.6413L55.6756 84.5348L56.3324 86.6554L55.4154 86.9395ZM61.9173 84.9256L60.3492 79.8629L61.2662 79.5788L61.9319 81.7281L64.8167 80.8346L64.151 78.6853L65.068 78.4013L66.6361 83.464L65.7191 83.748L65.0623 81.6274L62.1775 82.5209L62.8343 84.6415L61.9173 84.9256ZM68.4192 82.9117L66.8511 77.849L67.7681 77.5649L68.9102 81.2521L70.8726 76.6034L71.7036 76.346L73.2718 81.4087L72.3547 81.6927L71.2127 78.0055L69.2598 82.6513L68.4192 82.9117ZM75.0517 80.8573L73.4836 75.7946L74.4006 75.5106L75.7202 79.7709L78.4903 78.9129L77.1707 74.6526L78.0878 74.3685L79.6559 79.4312L75.0517 80.8573ZM79.9529 80.6269L79.5742 79.4042L79.8183 79.3809L78.7389 79.7153L78.4903 78.9129L80.2097 78.3803L80.8222 80.3576L79.9529 80.6269ZM82.9516 74.7464C83.5968 74.5535 84.1325 74.5481 84.5588 74.7301C84.985 74.9122 85.2791 75.2643 85.4408 75.7865C85.6104 76.3341 85.5569 76.8148 85.2803 77.2285C85.0017 77.6359 84.5238 77.9409 83.8468 78.1436L81.6469 78.8146L80.0787 73.7519L80.9958 73.4678L81.5254 75.1777L82.9516 74.7464ZM83.5544 77.47C83.9703 77.3481 84.2567 77.1687 84.4136 76.9316C84.5769 76.6926 84.6063 76.4044 84.5017 76.0669C84.3992 75.7357 84.2191 75.5263 83.9616 75.4385C83.7041 75.3508 83.3643 75.3688 82.942 75.4926L81.7325 75.8463L82.3479 77.8332L83.5544 77.47ZM90.8094 75.9766L88.0878 74.1186L88.7004 73.4264L91.8888 75.6422L90.8094 75.9766ZM87.1413 77.1127L85.5732 72.05L86.4902 71.766L88.0583 76.8287L87.1413 77.1127ZM87.1185 74.7748L86.8759 73.9915L88.5476 73.4737L88.7902 74.257L87.1185 74.7748ZM88.9307 73.8994L88.045 74.0481L89.203 70.9257L90.1869 70.621L88.9307 73.8994ZM95.8615 74.4117L95.5301 73.3419L95.4202 73.1561L94.8551 71.3316C94.7348 70.9431 94.5274 70.6793 94.2331 70.5402C93.9431 70.3927 93.5721 70.389 93.12 70.529C92.8206 70.6218 92.5435 70.7634 92.2885 70.9541C92.0315 71.1384 91.8299 71.3439 91.6838 71.5706L91.0887 71.0012C91.2847 70.7102 91.5474 70.4543 91.8769 70.2336C92.2107 70.0046 92.5783 69.8279 92.9795 69.7037C93.6736 69.4887 94.2608 69.4917 94.741 69.7129C95.2213 69.934 95.5689 70.3916 95.7839 71.0858L96.7307 74.1425L95.8615 74.4117ZM94.2171 74.9839C93.8414 75.1002 93.4905 75.1391 93.1645 75.1005C92.8449 75.06 92.5741 74.9519 92.3522 74.7764C92.1284 74.5944 91.9721 74.3602 91.8833 74.0736C91.7985 73.7998 91.7853 73.5317 91.8436 73.2694C91.9083 73.0051 92.0664 72.7607 92.3179 72.5362C92.5758 72.3098 92.9563 72.1186 93.4594 71.9628L95.0641 71.4658L95.2683 72.1249L93.7017 72.6101C93.2432 72.7521 92.958 72.9242 92.8462 73.1263C92.7343 73.3285 92.7119 73.5378 92.779 73.7543C92.8559 74.0027 93.0167 74.1727 93.2615 74.2644C93.5043 74.3497 93.8008 74.3382 94.151 74.2297C94.4949 74.1232 94.7705 73.954 94.9779 73.7223C95.1917 73.4886 95.3105 73.2075 95.3344 72.8791L95.7112 73.4533C95.6829 73.7901 95.5435 74.095 95.2931 74.368C95.0407 74.6346 94.682 74.8399 94.2171 74.9839ZM101.1 72.7891L99.0291 66.1025L99.9747 65.8096L102.046 72.4962L101.1 72.7891ZM105.498 71.427L103.607 65.3231L103.923 65.4975L101.401 66.2786L101.144 65.4475L106.655 63.7403L106.913 64.5714L104.391 65.3525L104.543 65.0331L106.434 71.137L105.498 71.427ZM108.384 68.0937L108.139 67.3009L110.708 66.505L110.954 67.2979L108.384 68.0937ZM112.133 69.3719L113.09 61.7474L114.035 61.4545L119.144 67.2003L118.141 67.5109L113.532 62.1966L113.914 62.0782L113.116 69.0672L112.133 69.3719ZM112.904 67.3009L112.926 66.4568L116.689 65.2911L117.203 65.9694L112.904 67.3009ZM123.813 65.754L121.092 63.896L121.704 63.2038L124.893 65.4197L123.813 65.754ZM120.145 66.8901L118.577 61.8274L119.494 61.5434L121.062 66.6061L120.145 66.8901ZM120.122 64.5522L119.88 63.7689L121.551 63.2511L121.794 64.0344L120.122 64.5522ZM121.935 63.6768L121.049 63.8255L122.207 60.7031L123.191 60.3984L121.935 63.6768ZM128.865 64.1892L128.534 63.1193L128.424 62.9335L127.859 61.109C127.739 60.7206 127.531 60.4568 127.237 60.3176C126.947 60.1701 126.576 60.1664 126.124 60.3065C125.825 60.3992 125.547 60.5408 125.292 60.7315C125.035 60.9158 124.834 61.1213 124.688 61.348L124.093 60.7786C124.289 60.4876 124.551 60.2317 124.881 60.011C125.215 59.782 125.582 59.6053 125.983 59.4811C126.677 59.2661 127.265 59.2691 127.745 59.4903C128.225 59.7114 128.573 60.1691 128.788 60.8632L129.735 63.9199L128.865 64.1892ZM127.221 64.7613C126.845 64.8777 126.494 64.9166 126.168 64.8779C125.849 64.8374 125.578 64.7293 125.356 64.5538C125.132 64.3719 124.976 64.1376 124.887 63.851C124.802 63.5772 124.789 63.3091 124.847 63.0468C124.912 62.7825 125.07 62.5381 125.322 62.3136C125.58 62.0872 125.96 61.8961 126.463 61.7402L128.068 61.2432L128.272 61.9023L126.706 62.3875C126.247 62.5295 125.962 62.7016 125.85 62.9038C125.738 63.1059 125.716 63.3152 125.783 63.5318C125.86 63.7801 126.021 63.9501 126.265 64.0418C126.508 64.1271 126.805 64.1156 127.155 64.0071C127.499 63.9006 127.774 63.7314 127.982 63.4997C128.196 63.266 128.314 62.9849 128.338 62.6565L128.715 63.2307C128.687 63.5675 128.547 63.8724 128.297 64.1454C128.045 64.412 127.686 64.6173 127.221 64.7613ZM134.711 61.9075L133.524 58.0771L131.327 58.7576L131.581 59.7467C131.667 60.0691 131.74 60.3848 131.801 60.694C131.867 60.9948 131.906 61.2793 131.919 61.5474C131.939 61.8135 131.916 62.0439 131.851 62.2386C131.785 62.4333 131.663 62.5793 131.484 62.6767L130.526 62.7954C130.725 62.7406 130.865 62.6276 130.944 62.4564C131.022 62.2789 131.055 62.0592 131.044 61.7975C131.039 61.5338 131.005 61.2442 130.942 60.9287C130.878 60.6068 130.803 60.2773 130.72 59.9402L130.267 58.2067L134.193 56.9907L135.628 61.6235L134.711 61.9075ZM130.938 64.8349L130.325 62.8576L136.286 61.0113L136.898 62.9886L136.039 63.2549L135.675 62.08L131.443 63.3907L131.807 64.5656L130.938 64.8349ZM140.001 60.8027C139.46 60.9704 138.948 61.0069 138.465 60.9122C137.988 60.8156 137.575 60.6085 137.226 60.2911C136.882 59.9716 136.633 59.5604 136.477 59.0573C136.321 58.5542 136.291 58.0749 136.388 57.6194C136.49 57.1619 136.699 56.7657 137.014 56.4308C137.333 56.0876 137.735 55.8411 138.219 55.6912C138.709 55.5393 139.176 55.5134 139.619 55.6136C140.062 55.7137 140.449 55.9286 140.782 56.2584C141.119 56.5798 141.368 57.0016 141.53 57.5238C141.541 57.562 141.552 57.6075 141.561 57.6605C141.577 57.7114 141.589 57.7601 141.596 57.8067L137.288 59.1411L137.084 58.482L140.914 57.2955L140.613 57.6402C140.519 57.3134 140.362 57.0444 140.143 56.833C139.924 56.6217 139.669 56.4845 139.377 56.4213C139.09 56.3498 138.784 56.3643 138.459 56.4649C138.14 56.5635 137.88 56.7245 137.677 56.9479C137.472 57.165 137.34 57.4257 137.28 57.7302C137.219 58.0283 137.24 58.343 137.342 58.6741L137.39 58.8269C137.494 59.1645 137.664 59.4433 137.9 59.6634C138.14 59.8752 138.423 60.0109 138.749 60.0706C139.074 60.1303 139.418 60.1039 139.781 59.9915C140.081 59.8988 140.336 59.764 140.546 59.5871C140.763 59.4083 140.932 59.1884 141.054 58.9274L141.743 59.3629C141.597 59.7013 141.373 59.9939 141.073 60.2405C140.779 60.4851 140.422 60.6726 140.001 60.8027ZM143.727 59.5858L142.159 54.5231L143.105 54.2302L146.443 57.3001L146.061 57.4185L147.136 52.9816L147.996 52.7153L149.564 57.778L148.733 58.0355L147.484 54.0044L147.664 54.043L146.664 58.0481L146.263 58.1724L143.144 55.3697L143.313 55.2753L144.568 59.3255L143.727 59.5858ZM151.349 57.2252L149.781 52.1625L150.698 51.8785L152.266 56.9412L151.349 57.2252ZM149.937 51.0461C149.759 51.1014 149.592 51.0904 149.435 51.0133C149.285 50.9341 149.184 50.8118 149.133 50.6462C149.08 50.4743 149.093 50.3132 149.172 50.1631C149.257 50.011 149.389 49.9073 149.567 49.8521C149.746 49.7969 149.91 49.8088 150.06 49.888C150.215 49.9587 150.318 50.0769 150.369 50.2425C150.422 50.4144 150.41 50.5786 150.333 50.7351C150.254 50.8853 150.122 50.9889 149.937 51.0461ZM157.292 55.3843L156.742 53.6076L156.938 53.7351L155.324 54.2351C154.649 54.4442 154.076 54.4647 153.605 54.2964C153.141 54.1262 152.824 53.7673 152.654 53.2197C152.473 52.6338 152.536 52.1291 152.845 51.7055C153.159 51.2799 153.654 50.9626 154.329 50.7536L156.545 50.0671L158.114 55.1298L157.292 55.3843ZM153.624 56.5204L154.399 54.1553L155.345 53.8624L154.608 56.2157L153.624 56.5204ZM156.653 53.321L155.893 50.8661L156.116 51.0796L154.607 51.5471C154.186 51.6772 153.886 51.8574 153.706 52.0877C153.524 52.3115 153.489 52.6017 153.599 52.9584C153.804 53.6206 154.333 53.8196 155.187 53.5553L156.734 53.076L156.653 53.321Z" fill="#05003E"/>
<path d="M33.5212 47.757C35.2788 47.2126 36.6771 47.1982 37.7162 47.7139C38.7641 48.2128 39.4932 49.1246 39.9035 50.4492C40.0889 51.0478 40.1772 51.6486 40.1686 52.2515C40.1559 52.8416 40.0065 53.4183 39.7204 53.9815C39.443 54.5281 39.0043 55.0269 38.4042 55.4779C37.8041 55.929 37.0074 56.3084 36.0139 56.6161L34.7721 57.0007L36.2752 61.8533L33.3904 62.7468L29.1653 49.1062L33.5212 47.757ZM34.1021 50.1733L32.7839 50.5816L34.0384 54.6318L34.9936 54.3359C35.5413 54.1663 35.9908 53.9503 36.3422 53.6879C36.6937 53.4255 36.9303 53.1079 37.0522 52.7352C37.174 52.3624 37.16 51.9341 37.0101 51.4501C36.801 50.7751 36.4624 50.3356 35.9945 50.1315C35.5225 49.9148 34.8917 49.9287 34.1021 50.1733ZM54.0627 50.607C54.3309 51.473 54.4486 52.2811 54.4157 53.0311C54.3955 53.7771 54.2355 54.4548 53.9357 55.0641C53.6447 55.6567 53.2246 56.1707 52.6755 56.606C52.1224 57.0285 51.4511 57.3621 50.6614 57.6067C49.9354 57.8316 49.2249 57.926 48.5298 57.8901C47.8435 57.8374 47.2065 57.6509 46.6187 57.3305C46.0269 56.9973 45.4992 56.5326 45.0354 55.9365C44.5843 55.3364 44.2246 54.6034 43.9564 53.7373C43.5974 52.5783 43.4994 51.5408 43.6623 50.6249C43.8214 49.6963 44.2179 48.9035 44.8519 48.2465C45.4859 47.5895 46.3251 47.0993 47.3695 46.7758C48.3502 46.472 49.2813 46.4139 50.163 46.6014C51.0446 46.789 51.8262 47.2169 52.5077 47.8852C53.1854 48.5407 53.7037 49.448 54.0627 50.607ZM46.8603 52.8378C47.0733 53.5256 47.3228 54.0834 47.6089 54.5113C47.9037 54.9224 48.2479 55.1997 48.6412 55.3431C49.0306 55.4737 49.4801 55.4601 49.9895 55.3023C50.499 55.1445 50.871 54.9037 51.1057 54.5797C51.3492 54.2391 51.4699 53.8178 51.468 53.3159C51.4749 52.7974 51.3718 52.1942 51.1588 51.5064C50.9458 50.8187 50.6918 50.2692 50.397 49.858C50.1148 49.4429 49.7791 49.17 49.3896 49.0394C49.0002 48.9088 48.5508 48.9223 48.0413 49.0801C47.2899 49.3129 46.8231 49.7436 46.641 50.3723C46.4676 50.9844 46.5407 51.8062 46.8603 52.8378ZM56.5219 48.7356C56.0446 47.1945 55.8312 45.8298 55.882 44.6416C55.9287 43.4407 56.2674 42.3936 56.898 41.5003C57.5247 40.5944 58.4712 39.8196 59.7375 39.1762C60.377 38.8525 61.0288 38.5459 61.6929 38.2564C62.3658 37.9503 63.0578 37.6383 63.7689 37.3203L64.863 39.7033C64.5564 39.8401 64.2199 39.9932 63.8536 40.1625C63.4834 40.319 63.1087 40.4839 62.7297 40.6572C62.3594 40.8137 62.0039 40.9727 61.663 41.1341C61.3222 41.2955 61.0112 41.4407 60.7301 41.5696C60.2825 41.792 59.9021 42.0285 59.5889 42.2791C59.2717 42.5169 59.0296 42.7943 58.8626 43.1112C58.6956 43.4281 58.6071 43.8185 58.5972 44.2822C58.5961 44.7292 58.677 45.2834 58.84 45.9448L58.9737 45.9033C59.0516 45.614 59.1868 45.3069 59.3793 44.9821C59.5845 44.6533 59.8653 44.343 60.2216 44.0512C60.5779 43.7594 61.0171 43.5326 61.5393 43.3709C62.3671 43.1145 63.14 43.0635 63.8579 43.218C64.5757 43.3726 65.2048 43.736 65.745 44.3085C66.2852 44.881 66.7112 45.6703 67.0228 46.6765C67.3897 47.8609 67.4789 48.9151 67.2905 49.8389C67.102 50.7626 66.6888 51.5467 66.0509 52.1909C65.409 52.8224 64.5849 53.294 63.5788 53.6057C62.8146 53.8424 62.0771 53.9173 61.3662 53.8304C60.6553 53.7435 59.9922 53.4952 59.3768 53.0857C58.7614 52.6761 58.2084 52.1075 57.7179 51.3801C57.2401 50.6487 56.8414 49.7672 56.5219 48.7356ZM63.0347 51.2408C63.4423 51.1145 63.7649 50.9169 64.0026 50.6479C64.2531 50.3749 64.3979 50.0089 64.4373 49.5501C64.4894 49.0873 64.4089 48.512 64.1958 47.8243C63.9394 46.9964 63.5962 46.3839 63.1661 45.9867C62.7447 45.5728 62.1966 45.4704 61.5215 45.6795C61.114 45.8057 60.7634 46.026 60.4699 46.3402C60.1852 46.6378 59.9613 46.9514 59.7982 47.2811C59.6312 47.598 59.5307 47.8594 59.4968 48.0654C59.6507 48.5621 59.8388 49.0342 60.0611 49.4818C60.2796 49.9167 60.5352 50.2911 60.8279 50.6053C61.1206 50.9194 61.4469 51.1393 61.8069 51.2651C62.1797 51.387 62.5889 51.3789 63.0347 51.2408ZM79.877 42.6113C80.1452 43.4774 80.2629 44.2854 80.23 45.0354C80.2098 45.7814 80.0498 46.4591 79.75 47.0684C79.459 47.661 79.0389 48.175 78.4898 48.6103C77.9367 49.0328 77.2653 49.3664 76.4757 49.611C75.7497 49.8359 75.0392 49.9303 74.3441 49.8944C73.6578 49.8417 73.0208 49.6552 72.433 49.3348C71.8412 49.0016 71.3134 48.5369 70.8496 47.9408C70.3986 47.3407 70.0389 46.6077 69.7706 45.7416C69.4117 44.5826 69.3136 43.5451 69.4766 42.6292C69.6357 41.7006 70.0322 40.9078 70.6662 40.2508C71.3002 39.5938 72.1394 39.1036 73.1837 38.7801C74.1644 38.4763 75.0956 38.4182 75.9772 38.6058C76.8589 38.7933 77.6405 39.2212 78.322 39.8895C78.9997 40.545 79.518 41.4523 79.877 42.6113ZM72.6745 44.8421C72.8876 45.5299 73.1371 46.0877 73.4232 46.5156C73.718 46.9267 74.0621 47.204 74.4555 47.3474C74.8449 47.478 75.2944 47.4644 75.8038 47.3066C76.3133 47.1488 76.6853 46.908 76.92 46.584C77.1634 46.2434 77.2842 45.8222 77.2823 45.3203C77.2892 44.8017 77.1861 44.1985 76.9731 43.5107C76.76 42.823 76.5061 42.2735 76.2112 41.8623C75.9291 41.4472 75.5934 41.1743 75.2039 41.0437C74.8145 40.9131 74.3651 40.9267 73.8556 41.0845C73.1042 41.3172 72.6374 41.7479 72.4552 42.3766C72.2819 42.9887 72.355 43.8105 72.6745 44.8421ZM90.7822 35.8835L87.3624 36.9427L89.9306 45.2341L87.084 46.1158L84.5159 37.8244L81.0961 38.8837L80.4334 36.744L90.1194 33.7438L90.7822 35.8835ZM91.6045 33.2838L94.7185 32.3193L98.5029 37.5749C98.6258 37.7462 98.7359 37.9215 98.8333 38.1007C98.9434 38.276 99.0428 38.4615 99.1314 38.6574C99.2327 38.8494 99.3252 39.058 99.409 39.2833L99.4663 39.2656C99.4019 38.9226 99.3562 38.5948 99.3292 38.2821C99.3109 37.9528 99.303 37.6342 99.3053 37.3264L99.4182 30.8636L102.475 29.9168L101.707 43.0521C101.66 43.8482 101.496 44.5553 101.212 45.1734C100.942 45.7876 100.564 46.3025 100.079 46.718C99.5932 47.1336 99.0194 47.444 98.3571 47.6491C98.0387 47.7477 97.7526 47.8154 97.4987 47.8521C97.2616 47.8977 97.0479 47.929 96.8578 47.946L96.1595 45.6916C96.3075 45.6737 96.481 45.6479 96.6799 45.6142C96.8916 45.5766 97.1057 45.5242 97.3222 45.4571C97.717 45.3349 98.0289 45.1475 98.2578 44.8952C98.4995 44.6389 98.6705 44.3346 98.7708 43.9825C98.875 43.6432 98.9332 43.2901 98.9452 42.9235L98.9574 42.3544L91.6045 33.2838ZM123.423 26.4223C123.597 26.9827 123.567 27.5156 123.332 28.0209C123.111 28.5222 122.674 28.9367 122.021 29.2644L122.045 29.3408C122.799 29.2051 123.455 29.2739 124.014 29.5474C124.586 29.8169 124.971 30.27 125.168 30.9068C125.306 31.3526 125.345 31.7942 125.285 32.2315C125.238 32.6649 125.073 33.0788 124.791 33.4734C124.508 33.8681 124.098 34.2325 123.559 34.5668C123.033 34.8972 122.357 35.1906 121.529 35.447L116.561 36.9855L113.331 26.5544L118.298 25.0159C119.113 24.7634 119.866 24.6277 120.558 24.6088C121.259 24.5732 121.856 24.6956 122.347 24.976C122.852 25.2525 123.21 25.7346 123.423 26.4223ZM122.179 31.6653C122.053 31.2577 121.803 31.0141 121.429 30.9344C121.051 30.842 120.544 30.8944 119.907 31.0917L118.035 31.6716L118.799 34.136L120.728 33.5384C121.263 33.3727 121.673 33.1411 121.958 32.8435C122.251 32.5293 122.325 32.1365 122.179 31.6653ZM120.61 27.5451C120.507 27.214 120.305 27.0114 120.003 26.9375C119.701 26.8636 119.301 26.9035 118.804 27.0574L116.798 27.6787L117.438 29.742L119.119 29.2213C119.717 29.0359 120.144 28.813 120.398 28.5528C120.661 28.2758 120.732 27.94 120.61 27.5451ZM143.266 28.7142L137.057 30.6374L136.548 28.9944L137.973 27.7154L135.239 18.8891L133.34 18.6397L132.832 16.9967L139.041 15.0735L139.549 16.7165L138.124 17.9955L140.858 26.8218L142.757 27.0712L143.266 28.7142ZM151.895 26.0415L149.01 26.935L145.53 15.7015L141.824 16.8495L141.078 14.4423L151.376 11.2528L152.121 13.66L148.415 14.808L151.895 26.0415ZM33.6825 66.5507L34.4222 68.9388L28.6908 70.714L32.1762 81.9666L29.2914 82.8601L25.0663 69.2195L33.6825 66.5507ZM40.2754 67.7958C41.6764 67.3618 42.841 67.3361 43.769 67.7187C44.7059 68.0845 45.3676 68.8916 45.7542 70.1397L47.9082 77.0938L45.9213 77.7092L44.9294 76.4671L44.853 76.4907C44.6744 76.9508 44.4634 77.3512 44.22 77.6918C43.9893 78.0285 43.6859 78.3109 43.3099 78.539C42.9506 78.7759 42.478 78.9851 41.8921 79.1666C41.2808 79.3559 40.6912 79.4129 40.1235 79.3375C39.5646 79.2454 39.07 79.0008 38.6399 78.6036C38.2059 78.1937 37.8725 77.613 37.6397 76.8615C37.2965 75.7535 37.4325 74.818 38.0477 74.0552C38.6589 73.2796 39.7335 72.6257 41.2716 72.0935L43.0688 71.474L42.9268 71.0155C42.7571 70.4678 42.4864 70.112 42.1146 69.948C41.7555 69.7801 41.3212 69.775 40.8117 69.9328C40.3023 70.0906 39.8292 70.3209 39.3926 70.6236C38.952 70.9136 38.5232 71.2418 38.1063 71.6083L36.5725 69.9687C37.0422 69.5021 37.5889 69.0816 38.2127 68.7069C38.8491 68.3283 39.5367 68.0246 40.2754 67.7958ZM42.4874 73.5175C41.5782 73.827 40.9927 74.1899 40.7308 74.606C40.4688 75.0221 40.4148 75.4785 40.5686 75.9753C40.7028 76.4083 40.9268 76.6809 41.2407 76.793C41.5506 76.8924 41.9094 76.879 42.317 76.7528C42.9283 76.5634 43.3889 76.2254 43.6987 75.7386C44.0046 75.239 44.055 74.6581 43.8499 73.9958L43.5836 73.1361L42.4874 73.5175ZM54.3904 63.4448C55.5621 63.0819 56.653 63.2465 57.663 63.9386C58.6691 64.618 59.4463 65.8429 59.9946 67.6133C60.3615 68.7978 60.4992 69.8508 60.4078 70.7725C60.3125 71.6814 60.0286 72.4323 59.5563 73.0253C59.0839 73.6183 58.4529 74.037 57.6632 74.2816C57.1665 74.4355 56.7137 74.5059 56.3049 74.493C55.9089 74.4761 55.5519 74.4052 55.2341 74.2803C54.9162 74.1554 54.6263 74.0079 54.3642 73.8378L54.2114 73.8852C54.3373 74.1114 54.4544 74.3543 54.5627 74.6139C54.6671 74.8607 54.7587 75.1115 54.8376 75.3662L56.1394 79.5692L53.2929 80.4509L48.6418 65.4347L50.9534 64.7187L51.7747 65.9509L51.9085 65.9095C52.0127 65.5701 52.1631 65.2443 52.3595 64.9322C52.5521 64.6074 52.8113 64.3177 53.1372 64.0632C53.4759 63.8048 53.8937 63.5986 54.3904 63.4448ZM54.1775 66.0023C53.6808 66.1561 53.3175 66.3803 53.0877 66.6748C52.8579 66.9693 52.738 67.3484 52.7281 67.8121C52.727 68.2591 52.8167 68.7967 52.9973 69.4247L53.092 69.7304C53.301 70.4054 53.5422 70.9588 53.8156 71.3906C54.085 71.8097 54.41 72.0929 54.7906 72.2402C55.1712 72.3875 55.6226 72.3803 56.1448 72.2185C56.5779 72.0844 56.897 71.8529 57.1022 71.5242C57.3075 71.1954 57.4072 70.7737 57.4013 70.259C57.3955 69.7444 57.288 69.1495 57.0789 68.4745C56.7633 67.4556 56.3674 66.7407 55.8912 66.3299C55.4238 65.9024 54.8526 65.7932 54.1775 66.0023ZM65.9964 59.829C67.3974 59.3951 68.562 59.3694 69.49 59.7519C70.4269 60.1177 71.0886 60.9248 71.4752 62.1729L73.6292 69.127L71.6423 69.7424L70.6504 68.5003L70.574 68.5239C70.3954 68.984 70.1844 69.3844 69.941 69.725C69.7103 70.0617 69.4069 70.3441 69.0309 70.5722C68.6716 70.8091 68.199 71.0183 67.6131 71.1998C67.0018 71.3891 66.4122 71.4461 65.8445 71.3707C65.2856 71.2786 64.791 71.034 64.3609 70.6368C63.9269 70.2269 63.5935 69.6462 63.3607 68.8947C63.0175 67.7867 63.1535 66.8512 63.7687 66.0884C64.3799 65.3128 65.4545 64.6589 66.9926 64.1267L68.7898 63.5072L68.6478 63.0487C68.4781 62.501 68.2074 62.1452 67.8356 61.9812C67.4765 61.8133 67.0422 61.8082 66.5327 61.966C66.0233 62.1238 65.5502 62.3541 65.1136 62.6568C64.673 62.9468 64.2442 63.275 63.8273 63.6415L62.2935 62.0019C62.7632 61.5353 63.3099 61.1148 63.9337 60.7401C64.5701 60.3615 65.2577 60.0578 65.9964 59.829ZM68.2084 65.5507C67.2992 65.8602 66.7137 66.2231 66.4518 66.6392C66.1898 67.0553 66.1358 67.5117 66.2896 68.0085C66.4238 68.4415 66.6478 68.7141 66.9617 68.8262C67.2716 68.9256 67.6304 68.9122 68.038 68.786C68.6493 68.5966 69.1099 68.2586 69.4197 67.7718C69.7256 67.2722 69.776 66.6913 69.5709 66.029L69.3046 65.1693L68.2084 65.5507ZM77.2093 56.5862L78.452 60.5982L82.4257 59.3674L81.1831 55.3554L84.0297 54.4737L87.2606 64.9048L84.414 65.7865L83.0826 61.488L79.1088 62.7188L80.4403 67.0173L77.5937 67.899L74.3628 57.4679L77.2093 56.5862ZM97.3608 52.6895L93.9411 53.7487L96.5093 62.0401L93.6627 62.9218L91.0945 54.6304L87.6748 55.6897L87.0121 53.55L96.6981 50.5498L97.3608 52.6895ZM110.572 51.9475C110.84 52.8135 110.958 53.6216 110.925 54.3715C110.905 55.1176 110.745 55.7953 110.445 56.4046C110.154 56.9972 109.734 57.5112 109.185 57.9465C108.632 58.369 107.961 58.7026 107.171 58.9472C106.445 59.172 105.734 59.2665 105.039 59.2306C104.353 59.1779 103.716 58.9914 103.128 58.6709C102.536 58.3378 102.009 57.8731 101.545 57.277C101.094 56.6769 100.734 55.9438 100.466 55.0778C100.107 53.9188 100.009 52.8813 100.172 51.9654C100.331 51.0368 100.727 50.244 101.361 49.587C101.995 48.93 102.835 48.4397 103.879 48.1163C104.86 47.8125 105.791 47.7544 106.672 47.9419C107.554 48.1295 108.336 48.5574 109.017 49.2257C109.695 49.8812 110.213 50.7884 110.572 51.9475ZM103.37 54.1783C103.583 54.8661 103.832 55.4239 104.118 55.8517C104.413 56.2629 104.757 56.5402 105.151 56.6836C105.54 56.8142 105.99 56.8006 106.499 56.6428C107.008 56.485 107.381 56.2441 107.615 55.9202C107.859 55.5796 107.979 55.1583 107.977 54.6564C107.984 54.1378 107.881 53.5347 107.668 52.8469C107.455 52.1591 107.201 51.6097 106.906 51.1985C106.624 50.7834 106.289 50.5105 105.899 50.3799C105.51 50.2493 105.06 50.2628 104.551 50.4206C103.799 50.6534 103.333 51.0841 103.15 51.7128C102.977 52.3248 103.05 53.1467 103.37 54.1783ZM122.459 45.5648C122.632 46.1252 122.602 46.658 122.368 47.1633C122.146 47.6647 121.709 48.0792 121.057 48.4068L121.08 48.4832C121.834 48.3475 122.49 48.4164 123.05 48.6898C123.622 48.9593 124.006 49.4125 124.204 50.0493C124.342 50.4951 124.381 50.9366 124.321 51.3739C124.274 51.8073 124.109 52.2213 123.826 52.6159C123.544 53.0105 123.133 53.375 122.594 53.7093C122.069 54.0396 121.392 54.333 120.564 54.5894L115.597 56.128L112.366 45.6969L117.333 44.1584C118.148 43.9059 118.902 43.7702 119.594 43.7512C120.295 43.7156 120.891 43.838 121.383 44.1184C121.887 44.3949 122.246 44.877 122.459 45.5648ZM121.214 50.8077C121.088 50.4002 120.838 50.1566 120.464 50.0769C120.087 49.9845 119.58 50.0369 118.943 50.2341L117.071 50.814L117.834 53.2785L119.763 52.6808C120.298 52.5152 120.708 52.2835 120.993 51.986C121.286 51.6717 121.36 51.279 121.214 50.8077ZM119.645 46.6876C119.542 46.3564 119.34 46.1539 119.038 46.08C118.736 46.006 118.337 46.046 117.84 46.1998L115.834 46.8212L116.473 48.8845L118.154 48.3637C118.753 48.1783 119.179 47.9555 119.434 47.6952C119.697 47.4183 119.767 47.0824 119.645 46.6876ZM129.646 40.1143C131.047 39.6803 132.211 39.6546 133.14 40.0372C134.076 40.403 134.738 41.21 135.125 42.4582L137.279 49.4122L135.292 50.0277L134.3 48.7855L134.223 48.8092C134.045 49.2693 133.834 49.6696 133.591 50.0103C133.36 50.3469 133.056 50.6293 132.68 50.8575C132.321 51.0944 131.848 51.3036 131.263 51.485C130.651 51.6744 130.062 51.7314 129.494 51.656C128.935 51.5639 128.441 51.3192 128.01 50.9221C127.576 50.5121 127.243 49.9314 127.01 49.18C126.667 48.0719 126.803 47.1365 127.418 46.3736C128.029 45.5981 129.104 44.9442 130.642 44.4119L132.439 43.7925L132.297 43.334C132.128 42.7863 131.857 42.4305 131.485 42.2665C131.126 42.0985 130.692 42.0935 130.182 42.2513C129.673 42.4091 129.2 42.6393 128.763 42.9421C128.323 43.2321 127.894 43.5603 127.477 43.9267L125.943 42.2871C126.413 41.8206 126.959 41.4 127.583 41.0254C128.22 40.6468 128.907 40.3431 129.646 40.1143ZM131.858 45.836C130.949 46.1455 130.363 46.5083 130.101 46.9245C129.839 47.3406 129.785 47.797 129.939 48.2937C130.073 48.7268 130.297 48.9994 130.611 49.1115C130.921 49.2109 131.28 49.1975 131.687 49.0713C132.299 48.8819 132.759 48.5438 133.069 48.057C133.375 47.5575 133.426 46.9766 133.22 46.3143L132.954 45.4546L131.858 45.836ZM140.859 36.8715L142.102 40.8835L146.075 39.6526L144.833 35.6407L147.679 34.759L150.91 45.1901L148.064 46.0718L146.732 41.7732L142.758 43.0041L144.09 47.3026L141.243 48.1843L138.012 37.7532L140.859 36.8715ZM162.798 35.7712C163.066 36.6372 163.184 37.4453 163.151 38.1952C163.131 38.9413 162.971 39.619 162.671 40.2283C162.38 40.8209 161.96 41.3349 161.411 41.7702C160.857 42.1927 160.186 42.5263 159.396 42.7709C158.67 42.9958 157.96 43.0902 157.265 43.0543C156.579 43.0016 155.942 42.8151 155.354 42.4946C154.762 42.1615 154.234 41.6968 153.77 41.1007C153.319 40.5006 152.96 39.7675 152.691 38.9015C152.332 37.7425 152.234 36.705 152.397 35.7891C152.556 34.8605 152.953 34.0677 153.587 33.4107C154.221 32.7537 155.06 32.2634 156.105 31.94C157.085 31.6362 158.016 31.5781 158.898 31.7656C159.78 31.9532 160.561 32.3811 161.243 33.0494C161.92 33.7049 162.439 34.6121 162.798 35.7712ZM155.595 38.002C155.808 38.6898 156.058 39.2476 156.344 39.6755C156.639 40.0866 156.983 40.3639 157.376 40.5073C157.766 40.6379 158.215 40.6243 158.725 40.4665C159.234 40.3087 159.606 40.0678 159.841 39.7439C160.084 39.4033 160.205 38.982 160.203 38.4801C160.21 37.9615 160.107 37.3584 159.894 36.6706C159.681 35.9828 159.427 35.4334 159.132 35.0222C158.85 34.6071 158.514 34.3342 158.125 34.2036C157.735 34.073 157.286 34.0865 156.776 34.2443C156.025 34.4771 155.558 34.9078 155.376 35.5365C155.203 36.1485 155.276 36.9704 155.595 38.002ZM165.438 26.0341L168.419 35.998L166.509 36.5898L163.336 26.685L165.438 26.0341ZM168.643 40.0325C168.282 40.1302 167.939 40.1039 167.614 39.9535C167.297 39.7865 167.089 39.5227 166.992 39.1621C166.898 38.8143 166.93 38.4903 167.088 38.19C167.259 37.8858 167.521 37.6721 167.874 37.5489C168.214 37.4296 168.536 37.4555 168.84 37.6265C169.144 37.7975 169.356 38.0529 169.475 38.3929C169.598 38.7455 169.578 39.0867 169.415 39.4164C169.248 39.7333 168.991 39.9387 168.643 40.0325Z" fill="#05003E"/>
<rect x="0.938324" y="53.6535" width="178.169" height="53.8445" rx="10.5916" transform="rotate(-17.2098 0.938324 53.6535)" stroke="#05003E" stroke-width="1.5"/>
</svg>
