<svg width="25" height="24" viewBox="0 0 25 24" fill="none" xmlns="http://www.w3.org/2000/svg">
<g id="mingcute:youtube-line" clip-path="url(#clip0_493_6908)">
<path id="Vector" d="M12.5773 2H12.7108C13.9438 2.00534 20.1917 2.05872 21.8763 2.59614C22.3856 2.76015 22.8497 3.07985 23.2222 3.52328C23.5946 3.96671 23.8625 4.51834 23.999 5.12305C24.1505 5.79927 24.257 6.69437 24.329 7.61794L24.344 7.80301L24.377 8.26568L24.389 8.45075C24.4865 10.0772 24.4985 11.6005 24.5 11.9333V12.0667C24.4985 12.412 24.485 14.0384 24.377 15.7325L24.365 15.9194L24.3515 16.1045C24.2765 17.1223 24.1655 18.1331 23.999 18.8769C23.8629 19.4819 23.5952 20.0338 23.2227 20.4773C22.8501 20.9208 22.3858 21.2403 21.8763 21.4039C20.1362 21.9591 13.5223 21.9982 12.6058 22H12.3927C11.9292 22 10.0121 21.9893 8.00197 21.9075L7.74695 21.8968L7.61645 21.8897L7.35993 21.8772L7.10341 21.8648C5.43831 21.7776 3.85271 21.637 3.12216 21.4021C2.61287 21.2387 2.1487 20.9194 1.77617 20.4763C1.40363 20.0331 1.13581 19.4816 0.999531 18.8769C0.833021 18.1349 0.722014 17.1223 0.647009 16.1045L0.635008 15.9176L0.623008 15.7325C0.548974 14.5267 0.50795 13.3184 0.5 12.1094L0.5 11.8906C0.503 11.508 0.515001 10.1858 0.596006 8.72658L0.606507 8.54329L0.611007 8.45075L0.623008 8.26568L0.65601 7.80301L0.671011 7.61794C0.743015 6.69437 0.849522 5.79749 1.00103 5.12305C1.13708 4.5181 1.4048 3.96621 1.77735 3.5227C2.1499 3.0792 2.61419 2.75966 3.12366 2.59614C3.85421 2.3648 5.43981 2.22244 7.10491 2.13346L7.35993 2.12101L7.61795 2.11033L7.74695 2.10499L8.00347 2.09254C9.43112 2.03804 10.8594 2.00778 12.2877 2.00178L12.5773 2ZM10.1006 7.71225V16.286L16.3365 12.0009L10.1006 7.71225Z" fill="#05003E"/>
</g>
<defs>
<clipPath id="clip0_493_6908">
<rect width="24" height="24" fill="white" transform="translate(0.5)"/>
</clipPath>
</defs>
</svg>
