<svg width="174" height="27" viewBox="0 0 174 27" fill="none" xmlns="http://www.w3.org/2000/svg">
<path d="M1.7932 9.80005V1.40005H4.9372C5.6492 1.40005 6.2612 1.51605 6.7732 1.74805C7.2852 1.97205 7.6772 2.30005 7.9492 2.73205C8.2292 3.15605 8.3692 3.67205 8.3692 4.28005C8.3692 4.87205 8.2292 5.38405 7.9492 5.81605C7.6772 6.24005 7.2852 6.56805 6.7732 6.80005C6.2612 7.03205 5.6492 7.14805 4.9372 7.14805H2.2852L2.6812 6.72805V9.80005H1.7932ZM2.6812 6.80005L2.2852 6.36805H4.9132C5.7532 6.36805 6.3892 6.18805 6.8212 5.82805C7.2612 5.46005 7.4812 4.94405 7.4812 4.28005C7.4812 3.60805 7.2612 3.08805 6.8212 2.72005C6.3892 2.35205 5.7532 2.16805 4.9132 2.16805H2.2852L2.6812 1.74805V6.80005ZM12.5367 9.86005C11.9287 9.86005 11.3807 9.72405 10.8927 9.45205C10.4127 9.17205 10.0327 8.79205 9.75267 8.31205C9.47267 7.82405 9.33267 7.26805 9.33267 6.64405C9.33267 6.01205 9.47267 5.45605 9.75267 4.97605C10.0327 4.49605 10.4127 4.12005 10.8927 3.84805C11.3727 3.57605 11.9207 3.44005 12.5367 3.44005C13.1607 3.44005 13.7127 3.57605 14.1927 3.84805C14.6807 4.12005 15.0607 4.49605 15.3327 4.97605C15.6127 5.45605 15.7527 6.01205 15.7527 6.64405C15.7527 7.26805 15.6127 7.82405 15.3327 8.31205C15.0607 8.79205 14.6807 9.17205 14.1927 9.45205C13.7047 9.72405 13.1527 9.86005 12.5367 9.86005ZM12.5367 9.10405C12.9927 9.10405 13.3967 9.00405 13.7487 8.80405C14.1007 8.59605 14.3767 8.30805 14.5767 7.94005C14.7847 7.56405 14.8887 7.13205 14.8887 6.64405C14.8887 6.14805 14.7847 5.71605 14.5767 5.34805C14.3767 4.98005 14.1007 4.69605 13.7487 4.49605C13.3967 4.28805 12.9967 4.18405 12.5487 4.18405C12.1007 4.18405 11.7007 4.28805 11.3487 4.49605C10.9967 4.69605 10.7167 4.98005 10.5087 5.34805C10.3007 5.71605 10.1967 6.14805 10.1967 6.64405C10.1967 7.13205 10.3007 7.56405 10.5087 7.94005C10.7167 8.30805 10.9967 8.59605 11.3487 8.80405C11.7007 9.00405 12.0967 9.10405 12.5367 9.10405ZM19.2187 9.87205C18.7627 9.87205 18.3107 9.80805 17.8627 9.68005C17.4147 9.55205 17.0187 9.35605 16.6747 9.09205L16.9507 8.45605C17.2547 8.68005 17.6067 8.85205 18.0067 8.97205C18.4067 9.08405 18.8027 9.14005 19.1947 9.14005C19.5867 9.13205 19.9267 9.07605 20.2147 8.97205C20.5027 8.86805 20.7267 8.72405 20.8867 8.54005C21.0467 8.35605 21.1267 8.14805 21.1267 7.91605C21.1267 7.58005 20.9747 7.32005 20.6707 7.13605C20.3667 6.94405 19.9507 6.84805 19.4227 6.84805H18.3427V6.22405H19.3627C19.6747 6.22405 19.9507 6.18405 20.1907 6.10405C20.4307 6.02405 20.6147 5.90805 20.7427 5.75605C20.8787 5.60405 20.9467 5.42405 20.9467 5.21605C20.9467 4.99205 20.8667 4.80005 20.7067 4.64005C20.5547 4.48005 20.3427 4.36005 20.0707 4.28005C19.7987 4.20005 19.4907 4.16005 19.1467 4.16005C18.8347 4.16805 18.5107 4.21605 18.1747 4.30405C17.8387 4.38405 17.5067 4.50805 17.1787 4.67605L16.9387 4.01605C17.3067 3.82405 17.6707 3.68005 18.0307 3.58405C18.3987 3.48005 18.7667 3.42805 19.1347 3.42805C19.6387 3.41205 20.0907 3.47205 20.4907 3.60805C20.8987 3.74405 21.2227 3.94005 21.4627 4.19605C21.7027 4.44405 21.8227 4.74405 21.8227 5.09605C21.8227 5.40805 21.7267 5.68005 21.5347 5.91205C21.3427 6.14405 21.0867 6.32405 20.7667 6.45205C20.4467 6.58005 20.0827 6.64405 19.6747 6.64405L19.7107 6.41605C20.4307 6.41605 20.9907 6.55605 21.3907 6.83605C21.7987 7.11605 22.0027 7.49605 22.0027 7.97605C22.0027 8.35205 21.8787 8.68405 21.6307 8.97205C21.3827 9.25205 21.0467 9.47205 20.6227 9.63205C20.2067 9.79205 19.7387 9.87205 19.2187 9.87205ZM27.1889 9.86005C26.6449 9.86005 26.1529 9.73605 25.7129 9.48805C25.2729 9.23205 24.9209 8.86805 24.6569 8.39605C24.4009 7.91605 24.2729 7.33205 24.2729 6.64405C24.2729 5.95605 24.4009 5.37605 24.6569 4.90405C24.9129 4.42405 25.2609 4.06005 25.7009 3.81205C26.1409 3.56405 26.6369 3.44005 27.1889 3.44005C27.7889 3.44005 28.3249 3.57605 28.7969 3.84805C29.2769 4.11205 29.6529 4.48805 29.9249 4.97605C30.1969 5.45605 30.3329 6.01205 30.3329 6.64405C30.3329 7.28405 30.1969 7.84405 29.9249 8.32405C29.6529 8.80405 29.2769 9.18005 28.7969 9.45205C28.3249 9.72405 27.7889 9.86005 27.1889 9.86005ZM23.9369 12.128V3.50005H24.7529V5.39605L24.6689 6.65605L24.7889 7.92805V12.128H23.9369ZM27.1289 9.10405C27.5769 9.10405 27.9769 9.00405 28.3289 8.80405C28.6809 8.59605 28.9609 8.30805 29.1689 7.94005C29.3769 7.56405 29.4809 7.13205 29.4809 6.64405C29.4809 6.15605 29.3769 5.72805 29.1689 5.36005C28.9609 4.99205 28.6809 4.70405 28.3289 4.49605C27.9769 4.28805 27.5769 4.18405 27.1289 4.18405C26.6809 4.18405 26.2769 4.28805 25.9169 4.49605C25.5649 4.70405 25.2849 4.99205 25.0769 5.36005C24.8769 5.72805 24.7769 6.15605 24.7769 6.64405C24.7769 7.13205 24.8769 7.56405 25.0769 7.94005C25.2849 8.30805 25.5649 8.59605 25.9169 8.80405C26.2769 9.00405 26.6809 9.10405 27.1289 9.10405ZM34.7554 9.86005C34.1474 9.86005 33.5994 9.72405 33.1114 9.45205C32.6314 9.17205 32.2514 8.79205 31.9714 8.31205C31.6914 7.82405 31.5514 7.26805 31.5514 6.64405C31.5514 6.01205 31.6914 5.45605 31.9714 4.97605C32.2514 4.49605 32.6314 4.12005 33.1114 3.84805C33.5914 3.57605 34.1394 3.44005 34.7554 3.44005C35.3794 3.44005 35.9314 3.57605 36.4114 3.84805C36.8994 4.12005 37.2794 4.49605 37.5514 4.97605C37.8314 5.45605 37.9714 6.01205 37.9714 6.64405C37.9714 7.26805 37.8314 7.82405 37.5514 8.31205C37.2794 8.79205 36.8994 9.17205 36.4114 9.45205C35.9234 9.72405 35.3714 9.86005 34.7554 9.86005ZM34.7554 9.10405C35.2114 9.10405 35.6154 9.00405 35.9674 8.80405C36.3194 8.59605 36.5954 8.30805 36.7954 7.94005C37.0034 7.56405 37.1074 7.13205 37.1074 6.64405C37.1074 6.14805 37.0034 5.71605 36.7954 5.34805C36.5954 4.98005 36.3194 4.69605 35.9674 4.49605C35.6154 4.28805 35.2154 4.18405 34.7674 4.18405C34.3194 4.18405 33.9194 4.28805 33.5674 4.49605C33.2154 4.69605 32.9354 4.98005 32.7274 5.34805C32.5194 5.71605 32.4154 6.14805 32.4154 6.64405C32.4154 7.13205 32.5194 7.56405 32.7274 7.94005C32.9354 8.30805 33.2154 8.59605 33.5674 8.80405C33.9194 9.00405 34.3154 9.10405 34.7554 9.10405ZM42.6243 9.87205C42.1123 9.87205 41.6563 9.78805 41.2563 9.62005C40.8643 9.45205 40.5283 9.19605 40.2483 8.85205C39.9683 8.50805 39.7563 8.08405 39.6123 7.58005C39.4683 7.06805 39.3963 6.47605 39.3963 5.80405C39.3963 5.20405 39.4523 4.68005 39.5643 4.23205C39.6763 3.77605 39.8323 3.38405 40.0323 3.05605C40.2323 2.72805 40.4643 2.45205 40.7283 2.22805C41.0003 1.99605 41.2923 1.81205 41.6043 1.67605C41.9243 1.53205 42.2523 1.42405 42.5883 1.35205L45.4203 0.692048L45.5643 1.48405L42.9003 2.08405C42.7323 2.12405 42.5283 2.18005 42.2883 2.25205C42.0563 2.32405 41.8163 2.43205 41.5683 2.57605C41.3283 2.72005 41.1043 2.92005 40.8963 3.17605C40.6883 3.43205 40.5203 3.76405 40.3923 4.17205C40.2723 4.57205 40.2123 5.07205 40.2123 5.67205C40.2123 5.80005 40.2163 5.90405 40.2243 5.98405C40.2323 6.05605 40.2403 6.13605 40.2483 6.22405C40.2643 6.30405 40.2763 6.42405 40.2843 6.58405L39.9123 6.27205C40.0003 5.78405 40.1803 5.36005 40.4523 5.00005C40.7243 4.63205 41.0643 4.34805 41.4723 4.14805C41.8883 3.94005 42.3483 3.83605 42.8523 3.83605C43.4363 3.83605 43.9563 3.96405 44.4123 4.22005C44.8683 4.46805 45.2243 4.81605 45.4803 5.26405C45.7443 5.71205 45.8763 6.23205 45.8763 6.82405C45.8763 7.40805 45.7403 7.93205 45.4683 8.39605C45.2043 8.86005 44.8283 9.22405 44.3403 9.48805C43.8523 9.74405 43.2803 9.87205 42.6243 9.87205ZM42.7203 9.16405C43.1683 9.16405 43.5643 9.06405 43.9083 8.86405C44.2523 8.65605 44.5203 8.37605 44.7123 8.02405C44.9123 7.67205 45.0123 7.27605 45.0123 6.83605C45.0123 6.40405 44.9123 6.02005 44.7123 5.68405C44.5203 5.34805 44.2523 5.08405 43.9083 4.89205C43.5643 4.69205 43.1643 4.59205 42.7083 4.59205C42.2603 4.59205 41.8643 4.68805 41.5203 4.88005C41.1763 5.06405 40.9043 5.32405 40.7043 5.66005C40.5123 5.99605 40.4163 6.38405 40.4163 6.82405C40.4163 7.26405 40.5123 7.66005 40.7043 8.01205C40.9043 8.36405 41.1763 8.64405 41.5203 8.85205C41.8723 9.06005 42.2723 9.16405 42.7203 9.16405ZM46.5153 9.78805L46.5753 9.05605C46.6313 9.06405 46.6833 9.07605 46.7313 9.09205C46.7873 9.10005 46.8353 9.10405 46.8753 9.10405C47.1313 9.10405 47.3353 9.00805 47.4873 8.81605C47.6473 8.62405 47.7673 8.36805 47.8473 8.04805C47.9273 7.72805 47.9833 7.36805 48.0153 6.96805C48.0473 6.56005 48.0753 6.15205 48.0993 5.74405L48.2073 3.50005H52.8273V9.80005H51.9753V3.99205L52.1913 4.24405H48.7593L48.9633 3.98005L48.8673 5.80405C48.8433 6.34805 48.7993 6.86805 48.7353 7.36405C48.6793 7.86005 48.5873 8.29605 48.4593 8.67205C48.3393 9.04805 48.1713 9.34405 47.9553 9.56005C47.7393 9.76805 47.4633 9.87205 47.1273 9.87205C47.0313 9.87205 46.9313 9.86405 46.8273 9.84805C46.7313 9.83205 46.6273 9.81205 46.5153 9.78805ZM57.9494 9.86005C57.2934 9.86005 56.7174 9.72405 56.2214 9.45205C55.7254 9.17205 55.3374 8.79205 55.0574 8.31205C54.7774 7.82405 54.6374 7.26805 54.6374 6.64405C54.6374 6.02005 54.7694 5.46805 55.0334 4.98805C55.3054 4.50805 55.6734 4.13205 56.1374 3.86005C56.6094 3.58005 57.1374 3.44005 57.7214 3.44005C58.3134 3.44005 58.8374 3.57605 59.2934 3.84805C59.7574 4.11205 60.1214 4.48805 60.3854 4.97605C60.6494 5.45605 60.7814 6.01205 60.7814 6.64405C60.7814 6.68405 60.7774 6.72805 60.7694 6.77605C60.7694 6.81605 60.7694 6.86005 60.7694 6.90805H55.2854V6.27205H60.3134L59.9774 6.52405C59.9774 6.06805 59.8774 5.66405 59.6774 5.31205C59.4854 4.95205 59.2214 4.67205 58.8854 4.47205C58.5494 4.27205 58.1614 4.17205 57.7214 4.17205C57.2894 4.17205 56.9014 4.27205 56.5574 4.47205C56.2134 4.67205 55.9454 4.95205 55.7534 5.31205C55.5614 5.67205 55.4654 6.08405 55.4654 6.54805V6.68005C55.4654 7.16005 55.5694 7.58405 55.7774 7.95205C55.9934 8.31205 56.2894 8.59605 56.6654 8.80405C57.0494 9.00405 57.4854 9.10405 57.9734 9.10405C58.3574 9.10405 58.7134 9.03605 59.0414 8.90005C59.3774 8.76405 59.6654 8.55605 59.9054 8.27605L60.3854 8.82805C60.1054 9.16405 59.7534 9.42005 59.3294 9.59605C58.9134 9.77205 58.4534 9.86005 57.9494 9.86005ZM62.6673 9.80005V3.50005H63.5193V6.28405H67.4913V3.50005H68.3433V9.80005H67.4913V7.01605H63.5193V9.80005H62.6673ZM73.357 9.86005C72.749 9.86005 72.201 9.72405 71.713 9.45205C71.233 9.17205 70.853 8.79205 70.573 8.31205C70.293 7.82405 70.153 7.26805 70.153 6.64405C70.153 6.01205 70.293 5.45605 70.573 4.97605C70.853 4.49605 71.233 4.12005 71.713 3.84805C72.193 3.57605 72.741 3.44005 73.357 3.44005C73.981 3.44005 74.533 3.57605 75.013 3.84805C75.501 4.12005 75.881 4.49605 76.153 4.97605C76.433 5.45605 76.573 6.01205 76.573 6.64405C76.573 7.26805 76.433 7.82405 76.153 8.31205C75.881 8.79205 75.501 9.17205 75.013 9.45205C74.525 9.72405 73.973 9.86005 73.357 9.86005ZM73.357 9.10405C73.813 9.10405 74.217 9.00405 74.569 8.80405C74.921 8.59605 75.197 8.30805 75.397 7.94005C75.605 7.56405 75.709 7.13205 75.709 6.64405C75.709 6.14805 75.605 5.71605 75.397 5.34805C75.197 4.98005 74.921 4.69605 74.569 4.49605C74.217 4.28805 73.817 4.18405 73.369 4.18405C72.921 4.18405 72.521 4.28805 72.169 4.49605C71.817 4.69605 71.537 4.98005 71.329 5.34805C71.121 5.71605 71.017 6.14805 71.017 6.64405C71.017 7.13205 71.121 7.56405 71.329 7.94005C71.537 8.30805 71.817 8.59605 72.169 8.80405C72.521 9.00405 72.917 9.10405 73.357 9.10405ZM84.1745 9.86005C83.5505 9.86005 82.9905 9.72405 82.4945 9.45205C82.0065 9.17205 81.6225 8.79205 81.3425 8.31205C81.0625 7.82405 80.9225 7.26805 80.9225 6.64405C80.9225 6.01205 81.0625 5.45605 81.3425 4.97605C81.6225 4.49605 82.0065 4.12005 82.4945 3.84805C82.9905 3.57605 83.5505 3.44005 84.1745 3.44005C84.7105 3.44005 85.1945 3.54405 85.6265 3.75205C86.0585 3.96005 86.3985 4.27205 86.6465 4.68805L86.0105 5.12005C85.7945 4.80005 85.5265 4.56405 85.2065 4.41205C84.8865 4.26005 84.5385 4.18405 84.1625 4.18405C83.7145 4.18405 83.3105 4.28805 82.9505 4.49605C82.5905 4.69605 82.3065 4.98005 82.0985 5.34805C81.8905 5.71605 81.7865 6.14805 81.7865 6.64405C81.7865 7.14005 81.8905 7.57205 82.0985 7.94005C82.3065 8.30805 82.5905 8.59605 82.9505 8.80405C83.3105 9.00405 83.7145 9.10405 84.1625 9.10405C84.5385 9.10405 84.8865 9.02805 85.2065 8.87605C85.5265 8.72405 85.7945 8.49205 86.0105 8.18005L86.6465 8.61205C86.3985 9.02005 86.0585 9.33205 85.6265 9.54805C85.1945 9.75605 84.7105 9.86005 84.1745 9.86005ZM89.379 9.80005V4.01605L89.595 4.24405H86.991V3.50005H92.619V4.24405H90.015L90.231 4.01605V9.80005H89.379ZM93.9589 12.188C93.6629 12.188 93.3789 12.14 93.1069 12.044C92.8429 11.948 92.6149 11.804 92.4229 11.612L92.8189 10.976C92.9789 11.128 93.1509 11.244 93.3349 11.324C93.5269 11.412 93.7389 11.456 93.9709 11.456C94.2509 11.456 94.4909 11.376 94.6909 11.216C94.8989 11.064 95.0949 10.792 95.2789 10.4L95.6869 9.47605L95.7829 9.34405L98.3749 3.50005H99.2149L96.0589 10.556C95.8829 10.964 95.6869 11.288 95.4709 11.528C95.2629 11.768 95.0349 11.936 94.7869 12.032C94.5389 12.136 94.2629 12.188 93.9589 12.188ZM95.6389 9.98005L92.7349 3.50005H93.6229L96.1909 9.28405L95.6389 9.98005ZM104.593 9.39205V4.24405H101.557L101.485 5.64805C101.469 6.07205 101.441 6.48805 101.401 6.89605C101.369 7.30405 101.309 7.68005 101.221 8.02405C101.141 8.36005 101.025 8.63605 100.873 8.85205C100.721 9.06005 100.525 9.18005 100.285 9.21205L99.4328 9.05605C99.6808 9.06405 99.8848 8.97605 100.045 8.79205C100.205 8.60005 100.329 8.34005 100.417 8.01205C100.505 7.68405 100.569 7.31205 100.609 6.89605C100.649 6.47205 100.681 6.04005 100.705 5.60005L100.789 3.50005H105.445V9.39205H104.593ZM99.1688 11.324V9.05605H106.429V11.324H105.625V9.80005H99.9728V11.324H99.1688ZM110.789 9.86005C110.133 9.86005 109.557 9.72405 109.061 9.45205C108.565 9.17205 108.177 8.79205 107.897 8.31205C107.617 7.82405 107.477 7.26805 107.477 6.64405C107.477 6.02005 107.609 5.46805 107.873 4.98805C108.145 4.50805 108.513 4.13205 108.977 3.86005C109.449 3.58005 109.977 3.44005 110.561 3.44005C111.153 3.44005 111.677 3.57605 112.133 3.84805C112.597 4.11205 112.961 4.48805 113.225 4.97605C113.489 5.45605 113.621 6.01205 113.621 6.64405C113.621 6.68405 113.617 6.72805 113.609 6.77605C113.609 6.81605 113.609 6.86005 113.609 6.90805H108.125V6.27205H113.153L112.817 6.52405C112.817 6.06805 112.717 5.66405 112.517 5.31205C112.325 4.95205 112.061 4.67205 111.725 4.47205C111.389 4.27205 111.001 4.17205 110.561 4.17205C110.129 4.17205 109.741 4.27205 109.397 4.47205C109.053 4.67205 108.785 4.95205 108.593 5.31205C108.401 5.67205 108.305 6.08405 108.305 6.54805V6.68005C108.305 7.16005 108.409 7.58405 108.617 7.95205C108.833 8.31205 109.129 8.59605 109.505 8.80405C109.889 9.00405 110.325 9.10405 110.813 9.10405C111.197 9.10405 111.553 9.03605 111.881 8.90005C112.217 8.76405 112.505 8.55605 112.745 8.27605L113.225 8.82805C112.945 9.16405 112.593 9.42005 112.169 9.59605C111.753 9.77205 111.293 9.86005 110.789 9.86005ZM115.507 9.80005V3.50005H116.359V6.28405H120.331V3.50005H121.183V9.80005H120.331V7.01605H116.359V9.80005H115.507ZM124.805 9.80005V4.01605L125.021 4.24405H122.417V3.50005H128.045V4.24405H125.441L125.657 4.01605V9.80005H124.805ZM133.189 9.80005V8.40805L133.153 8.18005V5.85205C133.153 5.31605 133.001 4.90405 132.697 4.61605C132.401 4.32805 131.957 4.18405 131.365 4.18405C130.957 4.18405 130.569 4.25205 130.201 4.38805C129.833 4.52405 129.521 4.70405 129.265 4.92805L128.881 4.29205C129.201 4.02005 129.585 3.81205 130.033 3.66805C130.481 3.51605 130.953 3.44005 131.449 3.44005C132.265 3.44005 132.893 3.64405 133.333 4.05205C133.781 4.45205 134.005 5.06405 134.005 5.88805V9.80005H133.189ZM131.017 9.86005C130.545 9.86005 130.133 9.78405 129.781 9.63205C129.437 9.47205 129.173 9.25605 128.989 8.98405C128.805 8.70405 128.713 8.38405 128.713 8.02405C128.713 7.69605 128.789 7.40005 128.941 7.13605C129.101 6.86405 129.357 6.64805 129.709 6.48805C130.069 6.32005 130.549 6.23605 131.149 6.23605H133.321V6.87205H131.173C130.565 6.87205 130.141 6.98005 129.901 7.19605C129.669 7.41205 129.553 7.68005 129.553 8.00005C129.553 8.36005 129.693 8.64805 129.973 8.86405C130.253 9.08005 130.645 9.18805 131.149 9.18805C131.629 9.18805 132.041 9.08005 132.385 8.86405C132.737 8.64005 132.993 8.32005 133.153 7.90405L133.345 8.49205C133.185 8.90805 132.905 9.24005 132.505 9.48805C132.113 9.73605 131.617 9.86005 131.017 9.86005ZM136.273 9.80005V3.50005H137.137L139.993 8.33605H139.633L142.537 3.50005H143.329V9.80005H142.549V4.47205L142.705 4.54405L139.993 9.03205H139.609L136.873 4.49605L137.053 4.46005V9.80005H136.273ZM145.753 9.80005V3.50005H146.605V8.50405L150.817 3.50005H151.573V9.80005H150.721V4.78405L146.521 9.80005H145.753ZM1.7932 24.8V16.4H5.2852C6.1732 16.4 6.8692 16.584 7.3732 16.952C7.8852 17.312 8.1412 17.844 8.1412 18.548C8.1412 19.244 7.8972 19.772 7.4092 20.132C6.9212 20.484 6.2812 20.66 5.4892 20.66L5.6932 20.36C6.6292 20.36 7.3412 20.544 7.8292 20.912C8.3172 21.28 8.5612 21.82 8.5612 22.532C8.5612 23.252 8.3052 23.812 7.7932 24.212C7.2892 24.604 6.5292 24.8 5.5132 24.8H1.7932ZM2.6692 24.092H5.5132C6.2252 24.092 6.7652 23.96 7.1332 23.696C7.5012 23.432 7.6852 23.024 7.6852 22.472C7.6852 21.928 7.5012 21.528 7.1332 21.272C6.7652 21.016 6.2252 20.888 5.5132 20.888H2.6692V24.092ZM2.6692 20.204H5.2372C5.8852 20.204 6.3812 20.076 6.7252 19.82C7.0772 19.556 7.2532 19.168 7.2532 18.656C7.2532 18.144 7.0772 17.76 6.7252 17.504C6.3812 17.24 5.8852 17.108 5.2372 17.108H2.6692V20.204ZM10.5775 24.8V18.5H11.4295V24.8H10.5775ZM11.0095 17.108C10.8335 17.108 10.6855 17.048 10.5655 16.928C10.4455 16.808 10.3855 16.664 10.3855 16.496C10.3855 16.328 10.4455 16.188 10.5655 16.076C10.6855 15.956 10.8335 15.896 11.0095 15.896C11.1855 15.896 11.3335 15.952 11.4535 16.064C11.5735 16.176 11.6335 16.316 11.6335 16.484C11.6335 16.66 11.5735 16.808 11.4535 16.928C11.3415 17.048 11.1935 17.108 11.0095 17.108ZM13.8587 24.8V18.5H14.7107V21.284H18.6827V18.5H19.5347V24.8H18.6827V22.016H14.7107V24.8H13.8587ZM21.9564 24.8V18.5H22.8084V21.284H26.7804V18.5H27.6324V24.8H26.7804V22.016H22.8084V24.8H21.9564ZM30.054 24.8V18.5H30.906V23.504L35.118 18.5H35.874V24.8H35.022V19.784L30.822 24.8H30.054ZM38.3158 24.8V18.5H39.1678V24.056H43.0198V18.5H43.8718V24.8H38.3158ZM44.0878 26.324V24.728L44.3038 24.8H43.0198V24.056H44.8918V26.324H44.0878ZM49.2309 20.72C50.0229 20.728 50.6229 20.904 51.0309 21.248C51.4469 21.592 51.6549 22.088 51.6549 22.736C51.6549 23.408 51.4309 23.924 50.9829 24.284C50.5429 24.644 49.9029 24.82 49.0629 24.812L46.5189 24.8V18.5H47.3709V20.696L49.2309 20.72ZM49.0149 24.164C49.5989 24.172 50.0389 24.056 50.3349 23.816C50.6389 23.568 50.7909 23.208 50.7909 22.736C50.7909 22.264 50.6429 21.92 50.3469 21.704C50.0509 21.48 49.6069 21.364 49.0149 21.356L47.3709 21.332V24.14L49.0149 24.164ZM57.9006 24.8L55.3086 21.68L56.0166 21.26L58.9086 24.8H57.9006ZM53.2806 24.8V18.5H54.1326V24.8H53.2806ZM53.8686 21.992V21.26H55.8966V21.992H53.8686ZM56.0886 21.74L55.2966 21.62L57.8046 18.5H58.7286L56.0886 21.74ZM62.6226 24.86C62.0146 24.86 61.4666 24.724 60.9786 24.452C60.4986 24.172 60.1186 23.792 59.8386 23.312C59.5586 22.824 59.4186 22.268 59.4186 21.644C59.4186 21.012 59.5586 20.456 59.8386 19.976C60.1186 19.496 60.4986 19.12 60.9786 18.848C61.4586 18.576 62.0066 18.44 62.6226 18.44C63.2466 18.44 63.7986 18.576 64.2786 18.848C64.7666 19.12 65.1466 19.496 65.4186 19.976C65.6986 20.456 65.8386 21.012 65.8386 21.644C65.8386 22.268 65.6986 22.824 65.4186 23.312C65.1466 23.792 64.7666 24.172 64.2786 24.452C63.7906 24.724 63.2386 24.86 62.6226 24.86ZM62.6226 24.104C63.0786 24.104 63.4826 24.004 63.8346 23.804C64.1866 23.596 64.4626 23.308 64.6626 22.94C64.8706 22.564 64.9746 22.132 64.9746 21.644C64.9746 21.148 64.8706 20.716 64.6626 20.348C64.4626 19.98 64.1866 19.696 63.8346 19.496C63.4826 19.288 63.0826 19.184 62.6346 19.184C62.1866 19.184 61.7866 19.288 61.4346 19.496C61.0826 19.696 60.8026 19.98 60.5946 20.348C60.3866 20.716 60.2826 21.148 60.2826 21.644C60.2826 22.132 60.3866 22.564 60.5946 22.94C60.8026 23.308 61.0826 23.596 61.4346 23.804C61.7866 24.004 62.1826 24.104 62.6226 24.104ZM67.6355 24.8V18.5H68.4875V24.8H67.6355ZM68.8595 17.24C68.7235 17.24 68.6075 17.192 68.5115 17.096C68.4155 16.992 68.3675 16.868 68.3675 16.724C68.3675 16.588 68.4155 16.472 68.5115 16.376C68.6075 16.272 68.7235 16.22 68.8595 16.22C69.0035 16.22 69.1235 16.268 69.2195 16.364C69.3155 16.46 69.3635 16.58 69.3635 16.724C69.3635 16.868 69.3155 16.992 69.2195 17.096C69.1235 17.192 69.0035 17.24 68.8595 17.24ZM67.2755 17.24C67.1315 17.24 67.0115 17.192 66.9155 17.096C66.8195 16.992 66.7715 16.868 66.7715 16.724C66.7715 16.588 66.8195 16.472 66.9155 16.376C67.0115 16.272 67.1315 16.22 67.2755 16.22C67.4195 16.22 67.5355 16.268 67.6235 16.364C67.7195 16.46 67.7675 16.58 67.7675 16.724C67.7675 16.868 67.7195 16.992 67.6235 17.096C67.5355 17.192 67.4195 17.24 67.2755 17.24ZM74.1788 24.8V16.4H75.0668V24.8H74.1788ZM79.4319 24.8V17.168H76.4799V16.4H83.2719V17.168H80.3199V24.8H79.4319ZM83.6558 21.92V21.176H86.7998V21.92H83.6558ZM87.522 24.8L91.362 16.4H92.238L96.078 24.8H95.142L91.614 16.916H91.974L88.446 24.8H87.522ZM89.034 22.556L89.298 21.836H94.182L94.446 22.556H89.034ZM102.104 24.8L99.5117 21.68L100.22 21.26L103.112 24.8H102.104ZM97.4837 24.8V18.5H98.3357V24.8H97.4837ZM98.0717 21.992V21.26H100.1V21.992H98.0717ZM100.292 21.74L99.4997 21.62L102.008 18.5H102.932L100.292 21.74ZM108.251 24.8V23.408L108.215 23.18V20.852C108.215 20.316 108.063 19.904 107.759 19.616C107.463 19.328 107.019 19.184 106.427 19.184C106.019 19.184 105.631 19.252 105.263 19.388C104.895 19.524 104.583 19.704 104.327 19.928L103.943 19.292C104.263 19.02 104.647 18.812 105.095 18.668C105.543 18.516 106.015 18.44 106.511 18.44C107.327 18.44 107.955 18.644 108.395 19.052C108.843 19.452 109.067 20.064 109.067 20.888V24.8H108.251ZM106.079 24.86C105.607 24.86 105.195 24.784 104.843 24.632C104.499 24.472 104.235 24.256 104.051 23.984C103.867 23.704 103.775 23.384 103.775 23.024C103.775 22.696 103.851 22.4 104.003 22.136C104.163 21.864 104.419 21.648 104.771 21.488C105.131 21.32 105.611 21.236 106.211 21.236H108.383V21.872H106.235C105.627 21.872 105.203 21.98 104.963 22.196C104.731 22.412 104.615 22.68 104.615 23C104.615 23.36 104.755 23.648 105.035 23.864C105.315 24.08 105.707 24.188 106.211 24.188C106.691 24.188 107.103 24.08 107.447 23.864C107.799 23.64 108.055 23.32 108.215 22.904L108.407 23.492C108.247 23.908 107.967 24.24 107.567 24.488C107.175 24.736 106.679 24.86 106.079 24.86ZM115.655 24.392V19.244H112.619L112.547 20.648C112.531 21.072 112.503 21.488 112.463 21.896C112.431 22.304 112.371 22.68 112.283 23.024C112.203 23.36 112.087 23.636 111.935 23.852C111.783 24.06 111.587 24.18 111.347 24.212L110.495 24.056C110.743 24.064 110.947 23.976 111.107 23.792C111.267 23.6 111.391 23.34 111.479 23.012C111.567 22.684 111.631 22.312 111.671 21.896C111.711 21.472 111.743 21.04 111.767 20.6L111.851 18.5H116.507V24.392H115.655ZM110.231 26.324V24.056H117.491V26.324H116.687V24.8H111.035V26.324H110.231ZM121.852 24.86C121.196 24.86 120.62 24.724 120.124 24.452C119.628 24.172 119.24 23.792 118.96 23.312C118.68 22.824 118.54 22.268 118.54 21.644C118.54 21.02 118.672 20.468 118.936 19.988C119.208 19.508 119.576 19.132 120.04 18.86C120.512 18.58 121.04 18.44 121.624 18.44C122.216 18.44 122.74 18.576 123.196 18.848C123.66 19.112 124.024 19.488 124.288 19.976C124.552 20.456 124.684 21.012 124.684 21.644C124.684 21.684 124.68 21.728 124.672 21.776C124.672 21.816 124.672 21.86 124.672 21.908H119.188V21.272H124.216L123.88 21.524C123.88 21.068 123.78 20.664 123.58 20.312C123.388 19.952 123.124 19.672 122.788 19.472C122.452 19.272 122.064 19.172 121.624 19.172C121.192 19.172 120.804 19.272 120.46 19.472C120.116 19.672 119.848 19.952 119.656 20.312C119.464 20.672 119.368 21.084 119.368 21.548V21.68C119.368 22.16 119.472 22.584 119.68 22.952C119.896 23.312 120.192 23.596 120.568 23.804C120.952 24.004 121.388 24.104 121.876 24.104C122.26 24.104 122.616 24.036 122.944 23.9C123.28 23.764 123.568 23.556 123.808 23.276L124.288 23.828C124.008 24.164 123.656 24.42 123.232 24.596C122.816 24.772 122.356 24.86 121.852 24.86ZM126.57 24.8V18.5H127.434L130.29 23.336H129.93L132.834 18.5H133.626V24.8H132.846V19.472L133.002 19.544L130.29 24.032H129.906L127.17 19.496L127.35 19.46V24.8H126.57ZM136.05 24.8V18.5H136.902V24.8H136.05ZM136.482 17.108C136.306 17.108 136.158 17.048 136.038 16.928C135.918 16.808 135.858 16.664 135.858 16.496C135.858 16.328 135.918 16.188 136.038 16.076C136.158 15.956 136.306 15.896 136.482 15.896C136.658 15.896 136.806 15.952 136.926 16.064C137.046 16.176 137.106 16.316 137.106 16.484C137.106 16.66 137.046 16.808 136.926 16.928C136.814 17.048 136.666 17.108 136.482 17.108ZM139.307 24.8V18.5H140.159V24.8H139.307ZM140.531 17.24C140.395 17.24 140.279 17.192 140.183 17.096C140.087 16.992 140.039 16.868 140.039 16.724C140.039 16.588 140.087 16.472 140.183 16.376C140.279 16.272 140.395 16.22 140.531 16.22C140.675 16.22 140.795 16.268 140.891 16.364C140.987 16.46 141.035 16.58 141.035 16.724C141.035 16.868 140.987 16.992 140.891 17.096C140.795 17.192 140.675 17.24 140.531 17.24ZM138.947 17.24C138.803 17.24 138.683 17.192 138.587 17.096C138.491 16.992 138.443 16.868 138.443 16.724C138.443 16.588 138.491 16.472 138.587 16.376C138.683 16.272 138.803 16.22 138.947 16.22C139.091 16.22 139.207 16.268 139.295 16.364C139.391 16.46 139.439 16.58 139.439 16.724C139.439 16.868 139.391 16.992 139.295 17.096C139.207 17.192 139.091 17.24 138.947 17.24ZM144.951 24.8V24.188L148.443 20.768C148.763 20.456 149.003 20.184 149.163 19.952C149.323 19.712 149.431 19.488 149.487 19.28C149.543 19.072 149.571 18.876 149.571 18.692C149.571 18.204 149.403 17.82 149.067 17.54C148.739 17.26 148.251 17.12 147.603 17.12C147.107 17.12 146.667 17.196 146.283 17.348C145.907 17.5 145.583 17.736 145.311 18.056L144.699 17.528C145.027 17.144 145.447 16.848 145.959 16.64C146.471 16.432 147.043 16.328 147.675 16.328C148.243 16.328 148.735 16.42 149.151 16.604C149.567 16.78 149.887 17.04 150.111 17.384C150.343 17.728 150.459 18.132 150.459 18.596C150.459 18.868 150.419 19.136 150.339 19.4C150.267 19.664 150.131 19.944 149.931 20.24C149.739 20.528 149.455 20.856 149.079 21.224L145.875 24.368L145.635 24.032H150.843V24.8H144.951ZM155.252 24.872C154.604 24.872 154.028 24.704 153.524 24.368C153.02 24.024 152.624 23.536 152.336 22.904C152.048 22.264 151.904 21.496 151.904 20.6C151.904 19.704 152.048 18.94 152.336 18.308C152.624 17.668 153.02 17.18 153.524 16.844C154.028 16.5 154.604 16.328 155.252 16.328C155.9 16.328 156.476 16.5 156.98 16.844C157.484 17.18 157.88 17.668 158.168 18.308C158.464 18.94 158.612 19.704 158.612 20.6C158.612 21.496 158.464 22.264 158.168 22.904C157.88 23.536 157.484 24.024 156.98 24.368C156.476 24.704 155.9 24.872 155.252 24.872ZM155.252 24.08C155.748 24.08 156.18 23.948 156.548 23.684C156.916 23.412 157.204 23.02 157.412 22.508C157.62 21.988 157.724 21.352 157.724 20.6C157.724 19.848 157.62 19.216 157.412 18.704C157.204 18.184 156.916 17.792 156.548 17.528C156.18 17.256 155.748 17.12 155.252 17.12C154.772 17.12 154.344 17.256 153.968 17.528C153.592 17.792 153.3 18.184 153.092 18.704C152.884 19.216 152.78 19.848 152.78 20.6C152.78 21.352 152.884 21.988 153.092 22.508C153.3 23.02 153.592 23.412 153.968 23.684C154.344 23.948 154.772 24.08 155.252 24.08ZM159.693 24.8V24.188L163.185 20.768C163.505 20.456 163.745 20.184 163.905 19.952C164.065 19.712 164.173 19.488 164.229 19.28C164.285 19.072 164.313 18.876 164.313 18.692C164.313 18.204 164.145 17.82 163.809 17.54C163.481 17.26 162.993 17.12 162.345 17.12C161.849 17.12 161.409 17.196 161.025 17.348C160.649 17.5 160.325 17.736 160.053 18.056L159.441 17.528C159.769 17.144 160.189 16.848 160.701 16.64C161.213 16.432 161.785 16.328 162.417 16.328C162.985 16.328 163.477 16.42 163.893 16.604C164.309 16.78 164.629 17.04 164.853 17.384C165.085 17.728 165.201 18.132 165.201 18.596C165.201 18.868 165.161 19.136 165.081 19.4C165.009 19.664 164.873 19.944 164.673 20.24C164.481 20.528 164.197 20.856 163.821 21.224L160.617 24.368L160.377 24.032H165.585V24.8H159.693ZM166.256 22.592V21.968L170.708 16.4H171.668L167.252 21.968L166.784 21.824H173.54V22.592H166.256ZM170.996 24.8V22.592L171.02 21.824V19.88H171.86V24.8H170.996Z" fill="white"/>
<path d="M0.377197 11.3H155.947V11.9H0.377197V11.3ZM0.377197 26.3H173.708V26.9H0.377197V26.3Z" fill="white"/>
</svg>
