<svg width="51" height="44" viewBox="0 0 51 44" fill="none" xmlns="http://www.w3.org/2000/svg">
<g id="logo_ita 2" clip-path="url(#clip0_1728_3187)">
<path id="Vector" d="M42.4933 0H7.72605C3.45907 0 0 3.03069 0 6.76923V37.2308C0 40.9693 3.45907 44 7.72605 44H42.4933C46.7602 44 50.2193 40.9693 50.2193 37.2308V6.76923C50.2193 3.03069 46.7602 0 42.4933 0Z" fill="url(#paint0_linear_1728_3187)"/>
<path id="Vector_2" d="M22.5392 5.97975C21.0227 6.61729 20.6706 8.2636 21.8441 9.27238C22.3315 9.68395 22.7468 9.82111 23.5231 9.82111H24.182L27.0073 12.3471L29.8237 14.865V17.5523C29.8237 19.7231 29.8508 20.28 29.9501 20.4575C30.0222 20.5786 30.3202 20.8853 30.618 21.1516L31.1596 21.6196L31.1145 22.0958C31.0242 22.9189 31.5388 23.726 32.3873 24.1295C33.1726 24.5007 34.3371 24.2989 34.996 23.6856C35.3571 23.3548 35.691 22.6768 35.6821 22.2894C35.673 21.6116 35.1675 20.8772 34.4454 20.4979C34.0752 20.3042 33.9218 20.272 33.299 20.272C32.6039 20.272 32.5678 20.2638 32.2428 19.9814L31.8999 19.6909V16.9148V14.1467L28.7496 11.3141L25.5992 8.48952L25.6444 8.0457C25.7346 7.12571 25.3103 6.44782 24.3987 6.03624C23.7036 5.72151 23.1981 5.71343 22.5392 5.97975ZM23.7669 7.65834C23.8932 7.85202 23.8932 7.8843 23.7397 8.03763C23.3335 8.44114 22.6836 8.00535 23.0266 7.56957C23.2162 7.32746 23.5953 7.37588 23.7669 7.65834ZM33.6871 22.0232C33.8225 22.1281 33.8316 22.4267 33.6871 22.5558C33.6239 22.6123 33.4705 22.6526 33.3442 22.6526C32.9108 22.6526 32.7393 22.2894 33.0462 21.9908C33.1997 21.8456 33.4434 21.8537 33.6871 22.0232Z" fill="white"/>
<path id="Vector_3" d="M14.6259 5.86989C14.2381 6.0065 13.6248 6.50471 13.4264 6.85025C13.1468 7.31632 13.1468 8.17613 13.4174 8.64216C13.8773 9.42164 14.8333 9.87162 15.7622 9.75917L16.1951 9.71094L19.6944 12.7886L23.1935 15.8663L23.1845 16.4207V16.9671L22.7696 17.2966C21.471 18.3172 21.7235 19.9645 23.3017 20.7037C23.7256 20.9046 24.6636 20.8805 25.1235 20.6716C25.9713 20.2779 26.4222 19.635 26.4312 18.8314C26.4312 18.2288 26.1156 17.618 25.6105 17.2564L25.2587 17.0073V16.252C25.2587 15.7939 25.2136 15.4002 25.1325 15.2395C25.0604 15.0948 23.446 13.5922 21.3447 11.7279L17.6832 8.47344L17.7372 8.02346C17.7823 7.69399 17.7553 7.45292 17.6381 7.1556C17.4397 6.62525 16.7903 6.01453 16.2763 5.87793C15.8343 5.76543 14.9325 5.7574 14.6259 5.86989ZM15.7893 7.50113C15.9516 7.68595 15.8615 7.97523 15.5909 8.10381C15.3744 8.21631 15.3383 8.21631 15.167 8.0797C14.9595 7.91095 14.9235 7.62971 15.0859 7.48506C15.2391 7.34845 15.654 7.36453 15.7893 7.50113ZM24.375 18.4939C24.6996 18.735 24.6095 19.2011 24.2307 19.2011C23.8428 19.2011 23.7256 19.1207 23.7256 18.8314C23.7256 18.4618 24.0684 18.285 24.375 18.4939Z" fill="white"/>
<path id="Vector_4" d="M31.9026 7.06041C30.7637 7.47157 30.1373 8.54687 30.4979 9.45615C30.9155 10.4999 32.2253 11.1008 33.4685 10.8082C33.8102 10.7371 34.0664 10.5869 34.4745 10.2469L35.0345 9.78826H36.2872H37.54L39.5046 11.425L41.4691 13.0538V13.8998V14.7537L41.137 14.9594C40.7383 15.2124 40.3777 15.7184 40.2448 16.1928C40.036 16.9677 40.5485 17.8453 41.4691 18.2802C42.6269 18.8179 44.117 18.4463 44.7623 17.4421C44.8763 17.2602 44.9237 17.0072 44.9332 16.5881C44.9332 15.8686 44.6864 15.4022 44.0696 14.9752L43.6615 14.6905L43.6709 13.5361L43.6804 12.3817L43.2154 11.9864C42.9592 11.765 41.8108 10.8082 40.6624 9.85942C39.087 8.54687 38.4985 8.10411 38.2423 8.04877C38.062 8.00923 37.2648 7.9697 36.4675 7.9697H35.025L34.5219 7.55063C34.1993 7.28971 33.8671 7.09995 33.6204 7.03669C33.1079 6.91018 32.2917 6.91808 31.9026 7.06041ZM33.1743 8.72084C33.4401 9.05296 32.8611 9.48779 32.4909 9.23479C32.3297 9.11616 32.3202 8.74453 32.472 8.61803C32.6429 8.47571 33.0225 8.53105 33.1743 8.72084ZM42.8927 16.2719C43.2344 16.5566 43.0351 16.9361 42.5701 16.8886C41.9437 16.8333 42.0005 16.2086 42.6365 16.1216C42.6745 16.1216 42.7883 16.1849 42.8927 16.2719Z" fill="white"/>
<path id="Vector_5" d="M7.84386 7.05651C7.35591 7.2185 6.84085 7.62347 6.5788 8.04464C6.36193 8.3929 6.32579 8.53866 6.32579 9.07326V9.705L3.84085 11.9323L1.35592 14.1597L1.32881 16.8972C1.31074 18.3956 1.32881 19.7158 1.35592 19.8291C1.41917 20.056 3.39808 21.8864 3.76857 22.0646C3.96736 22.1537 4.64507 22.178 7.33784 22.178H10.6631L12.4885 23.814L14.3227 25.4582L18.1993 25.4987L22.0848 25.5392L22.4101 25.8794C22.5818 26.0656 22.9522 26.3168 23.2324 26.4382C24.6963 27.0781 26.4312 26.0495 26.4312 24.5349C26.4312 23.7736 25.7264 22.9231 24.9041 22.6721C24.0457 22.4129 23.0787 22.6558 22.4643 23.2876L22.1119 23.6439L18.6691 23.6602L15.2264 23.6764L13.374 22.016L11.5215 20.3556L8.06072 20.3313L4.60892 20.3071L4.00351 19.7644L3.38904 19.2298V17.0754V14.9291L5.62097 12.9285L7.84386 10.9361L8.32277 10.9766C9.07278 11.0495 9.58783 10.8794 10.1391 10.3853C11.0787 9.54305 11.0607 8.27952 10.0758 7.49388C9.44325 6.98363 8.58482 6.81353 7.84386 7.05651ZM8.88302 8.66829C9.03663 8.80596 9.01856 9.05702 8.83784 9.23522C8.65711 9.41342 8.46735 9.42154 8.25048 9.24334C8.06976 9.09755 8.04265 8.95176 8.1782 8.72499C8.28663 8.54679 8.71132 8.51438 8.88302 8.66829ZM24.5426 24.4134C24.6059 24.5754 24.5968 24.6726 24.4885 24.8184C24.2535 25.1504 23.7203 25.0128 23.7203 24.624C23.7203 24.3324 23.874 24.2028 24.1902 24.2028C24.389 24.2028 24.4703 24.2514 24.5426 24.4134Z" fill="white"/>
<path id="Vector_6" d="M10.8271 12.8224C10.118 13.0427 9.47338 13.7034 9.29842 14.3967C9.14188 15.0329 9.37209 15.6446 9.99826 16.1993C10.5508 16.6887 11.0665 16.8518 11.8491 16.7784L12.3648 16.7295L14.4644 18.5647L16.5639 20.3999L16.5179 20.873C16.3337 22.6103 18.4517 23.7686 20.0539 22.8142C21.3063 22.072 21.5089 20.718 20.5144 19.7637C19.9803 19.2417 19.5014 19.0704 18.6911 19.0949L18.0373 19.1112L15.9469 17.2597L13.8566 15.4162L13.8934 14.8452C13.9211 14.3885 13.8934 14.2091 13.7277 13.9154C13.479 13.4586 12.8437 12.9448 12.3648 12.8224C11.9321 12.7083 11.2046 12.7083 10.8271 12.8224ZM11.9228 14.4864C12.1163 14.6495 12.107 14.7882 11.8952 15.0166C11.7479 15.1797 11.6834 15.1961 11.4624 15.1307C10.9928 14.9839 11.0757 14.3559 11.5729 14.3559C11.6834 14.3559 11.8491 14.413 11.9228 14.4864ZM19.1423 20.8159C19.262 20.9219 19.2896 21.1993 19.1791 21.3461C19.0595 21.5173 18.6451 21.5581 18.4793 21.4113C18.1662 21.134 18.3504 20.718 18.7923 20.718C18.9213 20.718 19.0778 20.7588 19.1423 20.8159Z" fill="white"/>
<path id="Vector_7" d="M41.0582 21.0362C40.5471 21.2542 40.0457 21.7063 39.8433 22.11C39.6311 22.5299 39.6696 23.2485 39.9204 23.6925C40.036 23.9025 40.3254 24.2173 40.5664 24.3949L41.01 24.7179L38.4451 26.8736C37.0372 28.0605 35.8318 29.1101 35.774 29.207C35.7161 29.3039 35.6679 29.5138 35.6679 29.6672C35.6679 29.8691 35.6101 29.974 35.4751 30.0387C35.369 30.0871 35.1087 30.305 34.9061 30.5231C34.3951 31.064 34.2408 31.6373 34.4529 32.2428C34.6169 32.7111 34.993 33.1713 35.3979 33.3974C35.6294 33.5346 35.6679 33.6073 35.6679 33.9545C35.6679 34.342 35.6391 34.3824 35.2437 34.657C33.5754 35.8358 34.5108 38.1449 36.6901 38.2095C37.4519 38.2256 37.9533 38.0642 38.4644 37.6362C38.9465 37.2325 39.2357 36.6593 39.2357 36.1426C39.2261 35.5935 38.7151 34.8184 38.175 34.5197C37.9243 34.3824 37.8858 34.3097 37.8858 33.9868C37.8858 33.6558 37.9243 33.5912 38.2715 33.357C38.4836 33.2198 38.7729 32.9291 38.9175 32.7192C39.149 32.4044 39.1875 32.2509 39.1875 31.7746C39.1779 31.1044 38.9368 30.6442 38.339 30.1759L37.9436 29.8691L40.5664 27.673C42.0707 26.4054 43.1989 25.4042 43.1989 25.3154C43.2086 25.2266 43.2182 25.057 43.2279 24.9359C43.2374 24.7906 43.4014 24.6048 43.7196 24.3546L44.1921 23.9832H48.7049H50.2194V22.6542V21.7225H48.7049H44.1921L43.8546 21.4319C43.3821 21.012 42.8807 20.8344 42.1286 20.8424C41.6561 20.8424 41.3957 20.8908 41.0582 21.0362ZM42.5336 22.6429C42.6589 22.7882 42.6203 22.9255 42.4179 23.0951C42.1864 23.2888 42.0032 23.2969 41.8007 23.1274C41.4343 22.8206 41.82 22.2715 42.2636 22.4653C42.3793 22.5137 42.495 22.5945 42.5336 22.6429ZM37.1625 31.4919C37.4229 31.7261 37.259 32.0894 36.8926 32.1217C36.3912 32.1701 36.1597 31.7907 36.5069 31.4758C36.7093 31.282 36.9408 31.2901 37.1625 31.4919ZM37.1143 35.9326C37.3747 36.1506 37.3554 36.3847 37.0662 36.5463C36.8443 36.6674 36.8058 36.6674 36.584 36.5463C36.2754 36.3767 36.2658 36.0699 36.5551 35.9003C36.8347 35.7389 36.883 35.7389 37.1143 35.9326Z" fill="white"/>
<path id="Vector_8" d="M9.77963 25.5398C9.13461 25.6791 8.51806 26.0971 8.22402 26.5694C7.87307 27.1422 7.84461 27.4751 8.09123 28.0093C8.34734 28.5589 8.64137 28.8531 9.21997 29.1317C9.5899 29.3098 9.7606 29.3408 10.4056 29.3408H11.155L12.3501 30.3239C13.0046 30.858 13.6401 31.338 13.7539 31.3844C13.8867 31.4387 14.674 31.4696 15.9071 31.4696H17.8611L18.4112 31.9186C19.0088 32.4063 19.4261 32.5534 20.2039 32.5534C20.8204 32.5534 21.5603 32.2515 22.0156 31.8102L22.3571 31.4696H25.4113H28.4656L28.6363 31.6786C28.8165 31.9109 29.3382 32.3211 29.4614 32.3211C29.4994 32.3211 29.5279 33.0721 29.5279 33.9855V35.6422L29.1959 35.8589C27.7542 36.7879 27.9439 38.5142 29.5468 39.1644C30.761 39.6599 32.1742 39.2263 32.8382 38.1504C33.2745 37.4381 32.9805 36.486 32.1458 35.9131L31.7095 35.6189V33.9855V32.3521L32.1174 32.1199C32.9141 31.6554 33.2556 30.6568 32.8572 29.9059C32.1174 28.4969 29.8504 28.226 28.7691 29.4259L28.5319 29.6814L25.4303 29.6892H22.3191L21.8259 29.2711C21.2757 28.8143 20.8963 28.6827 20.09 28.6827C19.4546 28.6827 18.7336 28.9692 18.3353 29.3718L18.0223 29.6892H16.3529H14.6834L13.6591 28.8608L12.6347 28.0403L12.701 27.7074C12.8433 26.9177 12.2837 26.0662 11.3921 25.7101C10.7377 25.4624 10.3297 25.4159 9.77963 25.5398ZM10.7186 27.2738C10.7945 27.537 10.6427 27.7074 10.2918 27.7383C9.95984 27.7693 9.74167 27.5447 9.84598 27.2816C9.97877 26.9487 10.6143 26.9409 10.7186 27.2738ZM20.441 30.3626C20.6497 30.5175 20.6592 30.68 20.4505 30.8658C20.1375 31.1522 19.6633 30.9664 19.6633 30.5639C19.6633 30.2465 20.1185 30.1226 20.441 30.3626ZM30.9127 30.3626C31.1025 30.5716 31.074 30.8348 30.8463 30.9278C30.5523 31.0593 30.2013 30.9587 30.135 30.7265C30.0211 30.3471 30.6282 30.0607 30.9127 30.3626ZM30.8653 37.1208C31.074 37.2137 31.1119 37.5774 30.9317 37.7246C30.6661 37.9413 30.097 37.7401 30.097 37.4304C30.097 37.2601 30.3436 37.0433 30.5333 37.0433C30.6187 37.0433 30.761 37.082 30.8653 37.1208Z" fill="white"/>
</g>
<defs>
<linearGradient id="paint0_linear_1728_3187" x1="7.55785e-07" y1="22.4151" x2="50.2193" y2="22.4151" gradientUnits="userSpaceOnUse">
<stop stop-color="#00C99F"/>
<stop offset="1" stop-color="#009ACB"/>
</linearGradient>
<clipPath id="clip0_1728_3187">
<rect width="50.2193" height="44" fill="white"/>
</clipPath>
</defs>
</svg>
