<svg width="32" height="32" viewBox="0 0 32 32" fill="none" xmlns="http://www.w3.org/2000/svg">
<g id="&#208;&#134;&#208;&#189;&#209;&#129;&#209;&#130;&#208;&#176;&#208;&#179;&#209;&#128;&#208;&#176;&#208;&#188;">
<path id="Vector" d="M17.4877 2.6665C18.9996 2.67054 19.767 2.6786 20.4295 2.69742L20.6903 2.70682C20.9913 2.71757 21.2883 2.73101 21.6471 2.74714C23.0771 2.81434 24.0528 3.04013 24.9089 3.37209C25.7958 3.71346 26.5431 4.17578 27.2903 4.92168C27.9737 5.59353 28.5025 6.40622 28.8399 7.3032C29.1718 8.1593 29.3976 9.13502 29.4648 10.5664C29.4809 10.9238 29.4943 11.2209 29.5051 11.5233L29.5132 11.784C29.5333 12.4452 29.5414 13.2126 29.5441 14.7246L29.5454 15.7272V17.4878C29.5487 18.4681 29.5384 19.4484 29.5145 20.4284L29.5064 20.6891C29.4957 20.9915 29.4823 21.2885 29.4661 21.646C29.3989 23.0774 29.1705 24.0517 28.8399 24.9092C28.5034 25.8067 27.9745 26.6195 27.2903 27.2907C26.6183 27.9739 25.8057 28.5026 24.9089 28.8403C24.0528 29.1723 23.0771 29.398 21.6471 29.4652C21.3282 29.4803 21.0093 29.4937 20.6903 29.5056L20.4295 29.5136C19.767 29.5324 18.9996 29.5418 17.4877 29.5445L16.4851 29.5459H14.7259C13.7452 29.5493 12.7645 29.539 11.784 29.515L11.5233 29.5069C11.2043 29.4948 10.8853 29.4809 10.5664 29.4652C9.13648 29.398 8.16078 29.1723 7.30335 28.8403C6.40651 28.5035 5.59416 27.9746 4.92325 27.2907C4.23925 26.6191 3.70998 25.8064 3.37236 24.9092C3.0404 24.0531 2.81462 23.0774 2.74743 21.646C2.73245 21.3271 2.71901 21.0082 2.70711 20.6891L2.70039 20.4284C2.67562 19.4484 2.66442 18.4681 2.66679 17.4878V14.7246C2.66304 13.7443 2.6729 12.764 2.69636 11.784L2.70577 11.5233C2.71652 11.2209 2.72996 10.9238 2.74608 10.5664C2.81328 9.13502 3.03906 8.16065 3.37101 7.3032C3.70849 6.4053 4.23881 5.59236 4.9246 4.92168C5.59534 4.23824 6.40714 3.70941 7.30335 3.37209C8.16078 3.04013 9.13513 2.81434 10.5664 2.74714C10.9239 2.73101 11.2223 2.71757 11.5233 2.70682L11.784 2.69876C12.764 2.67488 13.7443 2.66458 14.7245 2.66785L17.4877 2.6665ZM16.1061 9.38635C14.3239 9.38635 12.6148 10.0943 11.3546 11.3545C10.0944 12.6148 9.38645 14.324 9.38645 16.1062C9.38645 17.8884 10.0944 19.5976 11.3546 20.8578C12.6148 22.1181 14.3239 22.826 16.1061 22.826C17.8883 22.826 19.5974 22.1181 20.8576 20.8578C22.1178 19.5976 22.8258 17.8884 22.8258 16.1062C22.8258 14.324 22.1178 12.6148 20.8576 11.3545C19.5974 10.0943 17.8883 9.38635 16.1061 9.38635ZM16.1061 12.0743C16.6356 12.0742 17.1599 12.1784 17.6491 12.3809C18.1382 12.5835 18.5828 12.8804 18.9572 13.2547C19.3317 13.6291 19.6287 14.0735 19.8314 14.5626C20.0341 15.0518 20.1385 15.576 20.1386 16.1055C20.1387 16.635 20.0345 17.1593 19.8319 17.6485C19.6294 18.1377 19.3325 18.5822 18.9582 18.9567C18.5838 19.3312 18.1394 19.6282 17.6503 19.8309C17.1612 20.0336 16.6369 20.138 16.1074 20.1381C15.0381 20.1381 14.0126 19.7133 13.2565 18.9572C12.5004 18.201 12.0757 17.1755 12.0757 16.1062C12.0757 15.0369 12.5004 14.0113 13.2565 13.2552C14.0126 12.4991 15.0381 12.0743 16.1074 12.0743M23.1631 7.37039C22.7175 7.37039 22.2903 7.54739 21.9752 7.86244C21.6602 8.1775 21.4832 8.6048 21.4832 9.05035C21.4832 9.49591 21.6602 9.92321 21.9752 10.2383C22.2903 10.5533 22.7175 10.7303 23.1631 10.7303C23.6086 10.7303 24.0359 10.5533 24.351 10.2383C24.666 9.92321 24.843 9.49591 24.843 9.05035C24.843 8.6048 24.666 8.1775 24.351 7.86244C24.0359 7.54739 23.6086 7.37039 23.1631 7.37039Z" fill="#05003E"/>
</g>
</svg>
