<svg width="32" height="32" viewBox="0 0 32 32" fill="none" xmlns="http://www.w3.org/2000/svg">
<path d="M29.6101 3.27352C29.4551 3.13973 29.2666 3.05075 29.0649 3.01617C28.8631 2.98159 28.6557 3.00271 28.4651 3.07727L3.13257 12.991C2.77355 13.1306 2.4696 13.3831 2.26648 13.7104C2.06335 14.0377 1.97205 14.4221 2.00632 14.8058C2.04058 15.1895 2.19856 15.5516 2.45646 15.8378C2.71437 16.1239 3.05825 16.3185 3.43632 16.3923L10.0001 17.681V24.9998C9.99878 25.3984 10.1172 25.7883 10.3401 26.1188C10.563 26.4493 10.88 26.7053 11.2501 26.8535C11.6196 27.0044 12.0259 27.0406 12.4162 26.9575C12.8066 26.8743 13.1629 26.6756 13.4388 26.3873L16.6038 23.1048L21.6251 27.4998C21.9873 27.8211 22.4546 27.9989 22.9388 27.9998C23.151 27.9996 23.3619 27.9663 23.5638 27.901C23.8938 27.7963 24.1905 27.607 24.4245 27.352C24.6585 27.0969 24.8216 26.785 24.8976 26.4473L29.9713 4.37477C30.0167 4.17571 30.0071 3.96805 29.9434 3.77405C29.8798 3.58005 29.7645 3.40702 29.6101 3.27352ZM21.9676 7.77352L10.7688 15.7935L4.56882 14.5773L21.9676 7.77352ZM12.0001 24.9998V19.0648L15.0988 21.7823L12.0001 24.9998ZM22.9413 25.9998L12.6063 16.9373L27.4813 6.27602L22.9413 25.9998Z" fill="#05003E"/>
</svg>
